<?xml version="1.0" encoding="utf-8"?>
<!-- Generator: Adobe Illustrator 24.0.2, SVG Export Plug-In . SVG Version: 6.00 Build 0)  -->
<svg version="1.1" id="Capa_1" xmlns="http://www.w3.org/2000/svg" xmlns:xlink="http://www.w3.org/1999/xlink" x="0px" y="0px"
	 viewBox="0 0 1024 287" style="enable-background:new 0 0 1024 287;" xml:space="preserve">
<style type="text/css">
	.st0{fill:#F9F9F9;}
</style>
<g>
	<g>
		<path class="st0" d="M70.4,107.3c-1.6-5.8-2.5-11.9-2.6-18.2c0-1.1-0.1-2.3-0.3-3.6L67,82c-1.1-7-1.9-12.5-2.6-16.3
			c-0.3-1.5-0.7-3.5-1.2-5.8l-1.1-5.7c0-0.3-0.1-0.7-0.1-1.2v-1.3h1.7c1.4,3.2,2.2,5.8,2.2,7.8c0.1,2.7,0.5,5.3,1.2,7.7l-0.3-4.9
			c-0.1-2-0.2-3.7-0.3-5.1V46.9c1.1,0.6,1.7,0.9,1.9,1c-0.1,1.3-0.1,2.5-0.1,3.8c0,8.1,1.1,17.9,3.2,29.3c0.2-0.5,0.3-1,0.4-1.4
			c0-0.4-0.1-0.9-0.3-1.4c-0.3-1.7-0.4-3.9-0.4-6.4v-3.2l-0.1-3.2l-0.3-8.5c-0.1-3.2-0.1-6-0.1-8.4c0-4.3,0.2-8.8,0.6-13.4
			c0.1-0.7,0.3-1.5,0.7-2.6l0.4-1.3l0.6-1.4l1.4-0.1l1.4-0.1h2.9c0.6,0.9,1.3,1.8,2,2.9l2,3c0.1,0.7,0.2,1.7,0.4,3l0.4,3.3
			c2.2,1,3.3,2.8,3.3,5.5V48l-0.4,4.8l-0.3,4.9v9.5c0.2,1.8,0.4,4,0.6,6.5l0.7,6.5l0.3,3.9l0.4,3.8c0.1,1,0.3,2.2,0.6,3.6l0.1,1
			l0.1,0.9c0.2,0.9,0.3,1.6,0.4,2.2c0.8-1,1.8-2.4,3-4.3l1.4-2.2l1.4-2c2.2-3.2,4.5-5.7,6.8-7.5c0.3-0.1,1-0.3,2.2-0.6l0.1,0.4
			l0.1,0.4v0.4c0,1.2-0.3,2.4-1,3.8c-4.4,8.2-8.5,14.7-12.3,19.7v2.3c0.1,1,0.1,1.7,0.1,2.3c0.2,1.7,0.7,3.2,1.4,4.5
			c0.3,0.5,0.4,1,0.4,1.6c0,0.3-0.1,0.6-0.1,0.9c-0.1,0.6-0.1,1.2-0.1,1.7c0,0.7,0.1,1.4,0.1,2l0.3,1.7l0.3,1.9
			c0.2,0.9,0.3,1.9,0.4,3l0.3,3c0.4,4,0.6,7.1,0.7,9.4l0.4,6.4c0.1,2.4,0.1,4.5,0.1,6.4c0,1.4-0.1,2.9-0.1,4.8l-0.3,4.6
			c-0.1,0.5-0.1,1-0.1,1.4c0,1.1,0.1,2.2,0.4,3.5l0.6,2.3l0.6,2.3c1.9,9.6,4.5,19.7,7.7,30.1l1.3,4.2c0.6,1.7,1,3.2,1.3,4.5
			c0.4,1.5,0.6,3.4,0.7,5.6v5.1c0.1,2,0.2,3.7,0.4,5.1c0.1,0.4,0.1,0.9,0.1,1.4s-0.1,1.1-0.1,1.7l-0.3,1.7l-0.3,1.7
			c-2.2-1.8-4.2-4.2-6.1-7.2l-1.2-1.9c-0.4-0.8-0.8-1.4-1.2-1.9c-1.9-2.9-3.9-7.6-5.9-14l-0.6-2l-0.6-2c-0.5-1.6-1-3-1.4-4.2v9.4
			h-0.6l-0.7-3.2c-0.3-1.4-0.5-2.5-0.6-3.3l-0.7-5.9c-0.3-2.6-0.5-4.6-0.7-6.1c-0.3-1.8-0.6-4-1-6.4l-1.3-6.4
			c-1.2-6.2-2.2-11.5-3-15.9c-1.3-6.5-2.4-12-3.5-16.8l-3-13.3l-0.4-0.7c-2.3,2.7-4.4,4.3-6.4,4.8c-0.2-0.9-0.4-1.9-0.7-3l-1.6,1.7
			l-1.6,1.6c-1.2,1.3-2.2,2.3-3,3.2l-3.2,3.3c-1.3,1.3-2.4,2.3-3.3,3.2c-0.9,0.8-2,1.7-3.3,2.9l-3.3,2.7v18.4c0,4-0.7,8.7-2,13.9
			c-0.4,1.5-0.8,3.5-1.3,5.8l-1.2,5.6v0.4c0,0.3-0.1,0.5-0.1,0.6l-1.4,4.2l-0.7,2.2l-0.9,2.3c-0.5-0.4-0.8-0.9-1-1.6l-0.1-0.9
			l-0.1-0.7l-1-5.6l-1.2-5.5l-0.3-1.7l-0.3-1.6c-0.3-1.4-0.5-2.5-0.6-3.3c-0.4-5.1-0.6-9.4-0.6-13c-0.1-4.9-0.8-9-2.2-12.1
			c-0.2-0.3-0.4-0.6-0.7-1l-0.7-1c-1.6-1.9-2.5-4.1-2.5-6.5c-0.1-4-0.3-9.2-0.7-15.3c-0.1-0.9-0.2-2-0.3-3.3l-0.3-1.6l-0.1-1.9
			c-0.3-0.5-1-0.7-2-0.7c-4.9-0.2-10.1-1.3-15.5-3.3c-0.4-0.1-0.8-0.3-1.3-0.6l-0.7-0.4L8,120.6c0.4-3.9,1.6-8.1,3.8-12.9
			c0.8-0.2,1.6-0.3,2.5-0.3h2.3c1.9,0,3.4-0.1,4.5-0.4c-1-1.9-1.6-4.4-1.9-7.4l0.7-1l0.7-1c0.7-0.8,1.2-1.4,1.6-2l0.9,0.1l1,0.1
			c0.8,0.2,1.5,0.3,2.2,0.4l0.4-0.3l0.1-0.3c0-0.5-0.1-1.1-0.1-1.9v-1.9c-0.1-1.4-0.2-2.5-0.3-3.3l-0.6-7.4l-0.6-7.5l-0.4-4.2
			l-0.3-4.2l-0.6-4.9l-0.6-4.8c-0.1-0.5-0.1-1.1-0.1-1.7v-1.7c0.7-1.3,2.1-2.3,4.2-3c-0.6-11.1-2.5-20.3-5.6-27.6
			c0.5-0.6,0.8-0.9,0.9-1l0.7-0.3c2.4,5.5,4.1,11.8,5.2,18.9c0.4-0.2,0.7-0.5,0.9-1c0.1-0.2,0.2-0.4,0.3-0.7v-0.7
			c0.2-1.2,0.8-1.8,1.7-1.9l2.9-0.4c0.4-0.6,0.6-1.3,0.6-2s-0.1-1.4-0.4-2.2l-0.3-0.9l-0.3-1c-0.1-0.5-0.1-1-0.1-1.4v-0.7h0.7
			c0.2,0,0.3,0.1,0.3,0.1c1.2,1.7,1.9,4.2,2.2,7.5c0.2,0.5,0.5,1.2,1,2l1,1.9c1.2,0.3,2.1,0.5,2.9,0.7l0.3,2l0.7,6.1l0.9,6.8l1,6.6
			l0.3,3.6c0.2,1.5,0.3,2.7,0.4,3.6c0.4,2.3,0.6,5.3,0.6,8.8v7.8c0,2.1,0.1,4,0.1,5.5c0.1,2,0.2,4.6,0.4,7.7l0.4,3.8l0.3,3.8v3.8
			l0.9,0.3l0.9,0.3c0.6,0.1,1,0.2,1.2,0.3L52,109l1.4-0.1H59l2.9-0.1c2.1,0,4-0.2,5.6-0.7c0.4,0,0.8-0.1,1.3-0.3l0.7-0.1L70.4,107.3
			z M49.7,128c0.3,0.2,0.7,0.4,1.2,0.6l0.6,0.1l0.4,0.3c0.5,0.2,1.2,0.4,2.2,0.7l1,0.4l1.2,0.3c0.6,0.3,1.3,0.6,2.2,1l2,1.2l0.9-0.7
			l0.9-0.7c0.5-0.6,0.8-1.2,1-1.7l-2.8-0.7l-2.7-0.7c-2-0.7-3.8-1.2-5.2-1.6c-1-0.4-1.9-0.6-2.7-0.6c-0.6,0-1.2,0.1-1.7,0.3
			C48.3,127,48.9,127.6,49.7,128z M50.7,143c-0.8-0.3-1.4-0.5-2-0.7l-0.3,0.7c-0.1,0.3-0.2,0.5-0.3,0.6c0,0.1,0.1,0.6,0.3,1.6
			C49.1,144.6,49.8,143.9,50.7,143z M65.6,39.2h-0.4l-0.4,0.1l-0.1-1.9H65c0.9,0,1.3,0.5,1.3,1.6L65.6,39.2z M69.1,83.6
			c0,0.7,0.1,1.2,0.1,1.6c0.6,5.1,1.2,9.7,1.9,13.7c0.1,1,0.3,2.1,0.6,3.3l0.6,3.3c0.1,0.2,0.2,0.4,0.3,0.6l0.4,0.6l0.9-0.1
			c-0.3-3.4-1-7.5-2-12.3l-1.3-6.2c-0.6-2.4-1-4.4-1.3-6.1L69.1,83.6z"/>
		<path class="st0" d="M181.8,71.3c0,0.7-0.2,1.4-0.7,2.2l-0.6,0.6l-0.4,0.7c-0.4,0.5-0.7,1-0.9,1.4l0.3,1l0.3,0.6l0.1,0.7l-1.4,1.9
			l-1.6,1.9c-1.2,1.3-2.2,2.6-3,3.7c-2.1,2.9-3.9,5.5-5.2,8c0.2,0.6,0.4,1.3,0.7,2.1v0.4l-0.1,0.2c-2.3,4.5-5.6,9.3-10,14.5
			c-0.9,1-1.4,2-1.6,2.9c-0.6,2.8-1.8,5.4-3.6,7.7c-1.4,1.7-2.7,4.4-4,8c-0.3,0.9-0.7,1.9-1.3,3.3l-1.4,3.4v1.3
			c7-10.8,11.9-19.2,14.7-25.2c0.9,0.6,1.4,1,1.7,1.3l-1,1.9l-0.9,1.7c-0.7,1.5-1.3,2.7-1.9,3.6c-0.7,1.2-1.6,2.8-2.7,4.5l-2.7,4.4
			l-3,4.9c-1.2,1.9-2.2,3.6-3,4.9c-0.4,0.7-0.6,1.4-0.6,2.2c0,0.5,0.1,0.9,0.1,1.4c0.9,3.3,2.1,7.5,3.6,12.4l1.3,4.1l1.3,4
			c1.1,3.3,1.9,6,2.5,8.1c0.7,2.5,1.4,6.2,2.3,11.1c0,0.4-0.1,0.9-0.1,1.6l-0.1,0.8l-0.1,0.8v1.9l0.1,0.9l0.1,0.6l0.1,0.6
			c-0.7,0-1.1,0-1.3,0.1l-0.9-1.3l-0.7-1.2c-0.7-0.9-1.3-1.6-1.7-2.2c-1.1-1.3-2.1-3.4-3.2-6.2c-0.4-1.1-0.8-1.9-1.3-2.3
			c-0.4,0.5-0.6,1.2-0.6,2v0.8c0,0.4,0.1,0.9,0.3,1.4l0.4,1.4c0.3,0.8,0.7,1.7,1.2,2.9l0.3,0.7l0.4,0.8c0.3,0.7,0.5,1.2,0.7,1.6
			c-1.1-0.4-1.6-0.6-1.7-0.6c-0.2-0.2-0.4-0.4-0.6-0.7l-0.3-0.5l-0.4-0.5c-0.4,1.8-0.6,3.9-0.6,6.3v2.4c0.2,3.5,0.8,5.9,1.7,7.1
			c0.5,0,1.1,0,1.7-0.1l1-0.1l0.9-0.1h1c1.1,0,2,0.2,2.7,0.6c1.6,4.6,2.6,8.7,2.9,12.4c0,1.1-0.3,2.4-0.9,3.8l-0.7,1.9
			c-0.3,0.7-0.5,1.3-0.6,1.9c-0.1,0.5-0.5,0.9-1.2,1.3c-0.6,0.3-1.2,0.5-1.9,0.6c-1.4,0.1-3.2,0.2-5.3,0.3l-5.2,0.2h-0.6l-0.6-0.1
			c-1.2-1-2.1-2.6-2.8-4.9c-1.8-5.7-3.4-11.9-4.8-18.8l-0.7-3.7l-0.9-3.7c-0.7-3.1-1.2-5.6-1.4-7.6c-0.5-2.9-0.7-6.5-0.7-10.7
			l-0.1-2.3V171c0-1.8,0.2-3.3,0.6-4.6l-0.9-1.9c-0.7,1.5-1,2.2-1,2.3c0,0.5,0.1,1.2,0.3,2.1l0.3,2.1l0.1,0.8v0.9
			c0,0.7-0.4,1.3-1.2,1.7l-0.4-1.2L130,172c-0.3-0.9-0.6-1.7-0.9-2.4c-0.8,1.2-1.6,2.4-2.6,3.8l0.3,1.9l0.3,1.7
			c0.2,1.5,0.3,2.7,0.4,3.7l0.6,3.1l0.6,3.1l1.9,10.8l1.3,6.4l1.3,6.5l-0.7,1.3c-0.2-0.3-0.4-0.6-0.6-0.9l-0.4-0.9
			c-0.3-0.6-0.5-1.1-0.6-1.5c-1.3-4.7-2.1-8.5-2.6-11.3c-0.3-1.2-0.6-2.9-0.9-5.1l-0.3-2.7l-0.3-2.6l-0.9-4.6l-0.9-4.6l-0.6-2.2
			c-0.2-0.9-0.3-1.6-0.4-2.1c0-0.8,0.2-1.6,0.7-2.6c0.6-1.2,1.4-2.6,2.5-4.2c0.6-0.9,0.9-1.8,0.9-2.7c0-0.6-0.1-1.2-0.4-1.9
			c-0.2-0.4-0.4-0.9-0.6-1.5l-0.3-0.8l-0.4-0.9l-0.3,0.2l-0.4,0.4c-0.3,0.2-0.5,0.3-0.7,0.5c-0.1-0.3-0.1-0.6-0.1-0.9
			c0-0.9,0.2-1.8,0.6-2.9l0.7-1.7c0.3-0.8,0.5-1.4,0.6-1.9c-0.4-1.9-1.3-3.3-2.6-4.3c-1.2-0.8-2.2-1.9-3-3.3c-0.3-0.5-0.7-1-1.2-1.7
			l-1-1.9c-1.6-2.6-3.1-5-4.3-7.2c-0.5-0.9-1.1-2-1.7-3.4l-1.7-3.4c-0.5-0.9-0.7-1.7-0.7-2.4c0-0.9,0.2-1.6,0.7-2.3v-0.9
			c-8.9-10.8-15.7-20.1-20.4-27.9c0.2-0.2,0.7-0.7,1.4-1.3l0.9,0.8l0.9,0.8l1.4,0.1l1.3,0.2c0.1,0,0.3,0.2,0.7,0.5
			c-0.6,0.3-1.2,0.7-1.9,1l0.1,0.4l0.3,0.2c0.1,0.2,0.2,0.4,0.3,0.6c3.3,3,6.8,6.8,10.5,11.4c1.2,1.6,2.7,3.6,4.6,6.1l4.8,6.1
			l0.9,0.4l-0.1-0.5v-0.4c-0.1-0.3-0.2-0.5-0.3-0.7l-1.6-2.3c-0.7-0.9-1.2-1.7-1.4-2.3l-3.6-6.3l-3.6-6.3c-1.1-1.7-2.3-3.1-3.6-4.1
			c-1.4-0.9-2.6-2.1-3.6-3.6c-0.7-1-1.7-2.2-3-3.7l-3-3.7c-0.4-0.4-0.8-0.9-1.2-1.5l-0.9-1.6c0.5-1.3,1.5-2,3.2-2
			c1.2,1.2,2.5,2.5,4,4l2,2l2.2,2.1v-3.4c1.6-1.3,3.5-2,5.5-2h0.6c8.2,11.9,16.9,22.8,26.2,32.9l3,1.2l3.2,1.2
			c0.1,0.1,0.3,0.1,0.6,0.1l0.9-0.1l2.5-2.6c1-1,1.7-1.9,2.3-2.7c2.7-3.5,4.9-6.5,6.5-9l2.5-3.7l2.2-3.7c2-3.2,3.6-5.6,4.8-7.3l2-3
			l2-2.9c1.5-2.2,3.1-4.1,4.6-5.7c0.5-0.6,1.1-1.5,1.7-2.6l0.7-1.3c0.3-0.5,0.6-1,0.9-1.3c1.4-1.9,3.6-3.2,6.6-4
			C181.8,70.7,181.8,71,181.8,71.3z M104.3,108.8c0,0.7,0.5,1.2,1.6,1.5l-1.4-2.2C104.4,108.3,104.3,108.6,104.3,108.8z
			 M128.3,157.5l0.3,0.8l0.1,0.7c0.4,1.3,0.9,2.3,1.4,3c0.1-0.4,0.1-0.8,0.1-1.2c0-1.6-0.9-3.2-2.6-4.8
			C127.9,156.5,128.1,157,128.3,157.5z M147.3,130.2v1.3c0.3-0.5,0.8-1.3,1.6-2.6C147.9,129.6,147.4,130,147.3,130.2z M153.1,120
			c-1.1,0.9-1.8,1.7-2.3,2.2c-0.7,0.9-1.1,1.7-1.3,2.7c0.9-0.8,1.6-1.6,2.2-2.3c0.2-0.3,0.4-0.7,0.7-1.3L153.1,120z M175.5,90.7
			l0.7,0.6l-1,1.5l-1,1.3l-1,1.3l-0.4,0.6l-0.6,0.7c-0.6-0.4-1.1-0.7-1.4-1l0.9-1.4l1-1.4c0.8-1.2,1.4-2.2,2-3
			C174.9,90,175.2,90.3,175.5,90.7z"/>
		<path class="st0" d="M229.9,133.2h0.6c0.3-0.1,0.5-0.2,0.6-0.3c6.1-4,10.8-7.5,14.3-10.7l2.3-2l2.3-2c1.8-1.5,3.3-2.8,4.3-3.9
			c5.7-5.7,9.8-10.8,12.4-15.5c1.1-1.8,2.3-4.1,3.8-6.6l3.8-6.8l0.1,1.3l-2.5,5.8c-0.9,2.1-1.7,4-2.5,5.5c-2.3,4.9-5.6,9.5-9.8,13.9
			c-6.6,6.7-12.2,11.9-17.1,15.5c-2.5,1.9-5.6,4.1-9.4,6.6l-4.6,3.2l-4.8,3.2l-1.6,1l-1.4,1.2v3.9c0,1-0.1,2.1-0.3,3.3l-0.3,3.3
			c-0.2,2-0.3,3.8-0.3,5.2v1.4l-0.6,0.6c-0.7-0.9-1.2-2-1.4-3.5l-0.1-1.7c-0.1-0.8-0.2-1.4-0.3-1.7c-0.3-1-0.6-2.2-1-3.6l-0.6-1.9
			l-0.4-2c-2.4,1-4.1,2.2-5.2,3.8v4.3c0,3.6-0.4,8.5-1.2,14.9c-0.1,0.5-0.1,1-0.1,1.4c0,1.3,0.2,2.6,0.6,4c1.8,8.7,3.8,17.3,5.9,26
			c1.6,6.9,3.5,14.2,5.5,21.8c0.3,1,0.4,1.8,0.4,2.6s-0.1,1.5-0.4,2.2c-0.3,0.6-0.6,1.4-0.9,2.6l-0.4,1.3l-0.3,1.3
			c-0.1,0.2-0.2,0.5-0.4,0.9l-0.3,0.3l-0.3,0.4l-1.7-1.7l-1.6-2c-1.3-1.3-2.5-2.2-3.6-2.9c-0.3-0.2-0.5-0.5-0.7-1l-0.3-0.6l-0.1-0.6
			c-1.7-4.6-3.5-10.6-5.2-18.1l-1-4.3c-0.4-1.6-0.7-3-1-4.2c-0.3-1.8-1.2-3.6-2.8-5.3l-1.7-2l-1.6-2c-1.3-1.5-2.3-2.9-3.2-4.2
			c-4.3-6.6-7.3-13.8-9-21.7c-0.3-1.4-0.6-3-0.9-5.1l-0.3-2.5l-0.3-2.5c-0.5-4.1-0.9-7.5-1.2-10c-0.2-1.9-0.4-4.6-0.7-8.1
			c-0.1-1.5-0.2-3.4-0.4-5.6l-0.1-2.9l-0.3-3c-3.6-2.4-7-4.7-10.3-6.9c-0.1-0.4-0.1-0.8-0.1-1.2c0-0.5,0.1-1,0.3-1.6
			c0.2-0.4,0.4-0.8,0.7-1.3l0.6-1.4c0.7-0.1,1.4-0.1,2-0.1c2,0,4.1,0.4,6.2,1.3v-3.6c-0.3-7.1-0.5-15.3-0.6-24.6V59.4
			c0-3.2,0.4-7.1,1.2-11.9c0.2-1.1,0.3-2.4,0.4-3.9l0.3-1.9l0.1-1.9c-1.3-0.3-2.7-0.6-4.3-1l-2.2-0.6l-2.2-0.4l-1.9-1.9
			c0-0.5,0.1-1.1,0.1-1.9l0.1-1.2l0.1-1.3c-0.1-0.7-0.7-1.4-1.9-2l-0.7-0.3l-0.6-0.4c-0.5-0.4-0.9-0.8-1.2-1.2l0.6-1.4l0.7-1.3
			c0.5-1.1,1-1.9,1.6-2.6c1.3,0.2,2.5,0.6,3.8,1.2c0.5,0.3,1,0.6,1.6,1l1.6,0.9c3.1,2,6.8,3.4,11.1,4.2l10.1,2l0.6,0.1
			c3.1,1.5,7.3,3.2,12.6,5.1l3.2,1.2l3.2,1.2c2.4,0.9,4.5,1.6,6.4,2.3c5,2.1,11.5,4,19.4,5.6c3.2,0.7,6.2,1,9.1,1
			c1.4,0,2.9-0.1,4.3-0.3c-0.3-0.4-0.7-0.9-1.2-1.4l-1.3-1.3c-0.9-1-1.4-1.9-1.7-2.9c-0.1-0.2-0.2-0.4-0.4-0.6s-0.4-0.4-0.7-0.6
			l-3.2-2l-3.2-1.9V37c0-0.9,0.5-1.4,1.6-1.4h1.2l1.2-0.1c0.9,0,1.6,0.1,2.3,0.3c1.2,0.3,2.5,0.4,4,0.4h4.1c2.9,0,5.5,1.3,7.8,3.9
			c1.8,2.1,3.8,4.7,5.9,7.8c1.3,1.9,2.8,3.1,4.8,3.6c0.7,0.1,1.4,0.4,2.3,0.9l1.3,0.4l1,0.6c0.7,0.9,1.2,1.6,1.6,2.2l0.1,0.6v0.4
			l0.1,6.2v0.7c0,2.8-1,5.1-3,6.9l-1.3,1l-1.3,1.2c-1,0.9-1.8,1.6-2.6,2.2c-1.6,1.1-3.3,2.6-4.9,4.5l-2.2,2.6l-2.2,2.5
			c-1.3,1.4-2.7,3.2-4.5,5.3l-2.2,2.6l-2.2,2.6l-1,1.2l-0.9,1.3c-0.8,1-1.3,1.9-1.6,2.8c-0.3,0.2-0.6,0.5-1,0.9l-1.2,0.9
			c0.5,0.4,1.2,0.9,2,1.6c-0.1,0.2-0.2,0.4-0.4,0.6l-0.4,0.6c-0.3,0.3-0.5,0.5-0.7,0.7c-2.2,1.7-4.5,4.1-6.9,7.2
			c-0.9,1-1.9,2.3-3,3.9l-1.4,2.2l-1.6,2l-2.3,3l-2.3,3.2c-1.8,2.3-3.5,4.3-5.1,5.9C229.9,132.9,229.9,133,229.9,133.2l-0.1,0.3
			l-0.7-0.6c-0.3-0.3-0.5-0.5-0.7-0.7l3-3.6c1.2-1.4,2.1-2.7,2.9-3.6c2.2-2.8,4-5.3,5.2-7.7c-4.6,3.3-10.4,7.5-17.2,12.7
			c-0.4,0.3-0.7,0.5-0.9,0.7c-0.3,0.4-0.4,0.7-0.4,0.9c-0.2,1.4-0.3,2.8-0.3,4.2s0.1,2.6,0.3,3.8l2.2-1.3l2-1.3
			c1.5-1,2.8-1.8,3.9-2.6c0.2,0,0.3-0.1,0.4-0.4l0.1-0.3L229.9,133.2z M184.1,74.6c0.8-6.4,1.4-11.5,2-15.5l0.6-2.8
			c0.2-1.3,0.3-2.2,0.4-2.9l0.4-3l0.3-2.9c0.1-1.2,0.1-2.3,0.1-3.3s-0.1-1.9-0.1-2.7c-0.9-0.5-1.8-0.7-2.8-0.7c-0.5,0-1,0.1-1.6,0.1
			l-0.1,1.4c-0.1,0.6-0.1,1-0.1,1.3c-1.1,5.8-1.6,10.8-1.7,15.2c0,1.4,0.1,3.3,0.1,5.6l0.1,2.9l0.1,2.7l0.1,5.1v5.8
			c0.1,0.3,0.1,0.5,0.1,0.6c0.1,0.5,0.4,0.8,1,1L184.1,74.6z M184.9,101.2c-1.3,0.4-2.1,0.7-2.6,0.9v10.7c0.2,0.2,0.7,0.5,1.6,0.9
			c0.1-1.5,0.2-3.6,0.4-6.2l0.3-3L184.9,101.2z M183.5,136.4h0.9c0.2-0.5,0.3-1,0.3-1.4c0-0.5-0.1-1-0.3-1.6l-0.4-1.6l-0.4-1.6
			L183.5,136.4L183.5,136.4z M185.6,97.3c0.2-1.3,0.3-2.3,0.4-3l0.4-7.2l0.3-7.1l0.1-1.9l0.3-1.7c0.2-0.8,0.3-1.5,0.3-2.3
			c0-1.2-0.2-2.3-0.6-3.5l-0.9,7.4c-0.3,2.9-0.5,5.4-0.7,7.5c-0.3,3.1-0.4,6-0.4,8.7c0,2.2,0.1,4.3,0.3,6.2L185.6,97.3z
			 M198.6,186.4c0-2.4-0.9-4.6-2.7-6.6l0.4-3.5c0.2-1.3,0.3-2.4,0.3-3.5v-0.7c0-2.3-0.4-4.4-1.2-6.4l-1.4-1.3l-1.4-1.4
			c-1.1-1.1-2-2-2.7-2.9c-1.9-2.3-3.3-4.6-4-6.9v1.4c0,5.5,1.5,11.9,4.6,19.4c3.4,8.2,7.1,13.8,11.1,16.9c-0.2-0.6-0.4-1.3-0.7-2
			l-0.1-0.9l-0.3-0.9c-0.7-0.1-1.3-0.2-1.7-0.3L198.6,186.4L198.6,186.4z M191.2,155.6l-0.6-0.3l-0.4-0.4c-0.9-0.5-1.4-1.2-1.4-2
			l0.7-1.6l0.6-1.4l-1.4-4.6c-0.6-1.7-1.1-3.3-1.6-4.8c-0.2,1.5-0.3,3.1-0.3,4.6c0,3,0.4,5.8,1.3,8.4c1.4,4,3.6,6.9,6.5,8.8
			c-0.4-0.9-0.8-1.9-1.2-3.2l-1-2.9C192.1,156,191.7,155.8,191.2,155.6z M201.9,45.9c-0.1,1.1-0.1,2.1-0.1,3.2c0,3,0.3,5.4,1,7.4
			c1.8,0.3,3.2,0.5,4.2,0.6v-4.8c2.4-0.7,4.7-1.3,6.8-1.9c-1.6-0.6-3.6-1.3-5.9-2.2l-3-1.2L201.9,45.9z M210.3,141v2.3l0.1,2.3
			c0.8,0,1.6-0.3,2.5-0.9l1-0.7c0.4-0.3,0.7-0.5,1-0.7c0.4-1.2,0.6-2.6,0.6-4.3l-0.1-2.2v-2.2h-0.3c-0.7,0-1.4,0.2-2,0.7l-0.4,0.3
			l-0.4,0.3c-0.4,0.3-0.7,0.5-1,0.6C210.7,137.8,210.4,139.2,210.3,141z M210.9,102.1c0,0.4,0.1,0.8,0.1,1.2
			c0.1,0.4,0.3,0.7,0.6,0.9c0.2,0.1,0.3,0.1,0.4,0.1c0.2,0,0.4-0.1,0.6-0.1c0.2-1.3,0.3-2.1,0.3-2.5c-0.1-0.4-0.4-1.2-1-2.3
			C211.2,100,210.9,100.9,210.9,102.1z M259.1,60.5l-7.5-0.1c-2.9-0.1-5.3-0.3-7.4-0.7c-8.8-1.4-16.9-3.8-24.3-6.9
			c-0.5-0.2-1.2-0.4-2-0.7l-1-0.3l-1-0.3l0.4,1.6l0.3,1.4c0.4,1.3,0.7,2.3,0.9,3c0.3,0.8,0.5,1.8,0.6,3.2v1.6c0,0.7,0.1,1.2,0.1,1.6
			c0.8,4.1,1.2,7.7,1.3,10.6v2.3c0.8,5.8,1.2,10.4,1.2,13.9v1.9c-1,2.3-1.5,3.8-1.7,4.5V98c0,0.7,0.1,1.5,0.1,2.6l1.2-0.7
			c0.4-0.3,0.7-0.5,1-0.6l3.3-1.7c1.4-0.6,2.5-1.1,3.5-1.4c0.6-0.2,1.3-0.3,2.2-0.4l2.3-0.3l7.2-7.4c2.9-3,5.3-5.4,7.4-7.4
			c3.1-3.1,6.4-7,10-11.7l1.3-1.7c0.5-0.6,1-1.1,1.4-1.6c1.2-1.2,2.4-1.9,3.8-2.2l2.8,1.4c1,0.6,1.8,1.1,2.6,1.4
			c0.9-0.9,2-1.9,3.5-3.2C267.9,61.5,263.5,60.7,259.1,60.5z"/>
		<path class="st0" d="M323.5,101.2l0.7,0.9l0.7,0.7c0.7,0.8,1.3,1.4,1.7,2c3.3,1.3,5.2,3.6,5.8,7.1c0.3,1.2,0.7,2.4,1.3,3.8
			l0.9,1.9l1,1.7c0.3,0.6,0.7,1.4,1.3,2.3l0.7,1.2l0.7,1.2c0.1-0.4,0.1-0.8,0.1-1.2c0-0.7-0.1-1.4-0.4-2.2l-2.6-7.5l-2.5-7.5
			l-0.3-0.9l0.3-0.9c0.1-0.3,0.2-0.6,0.3-0.9l-1.4-2.9l-1.4-3l-3-6.2l0.4,0.1l0.4,0.3c0.2,0.1,0.3,0.2,0.4,0.3
			c2.8,2.7,5,6.5,6.6,11.4c0.7,2,1.5,4.8,2.6,8.4l2.6,8.4c1.2,3.7,2.3,7,3.5,10c0.8,1.8,1.6,4,2.6,6.4l2.7,6.2
			c0,0.1,0.3,0.5,0.9,1.2c0-0.7,0.1-1.5,0.1-2.5l0.3-2.3c0.2-1.7,0.3-3.2,0.4-4.3l0.6-5.8l0.6-5.9l0.4-3.9l0.3-3.8l0.7-6.5l0.7-6.5
			l0.3-1.6l0.3-1.6c0.3-1.4,0.5-2.4,0.6-3.2v-1.7l-0.1-1c-0.1-0.5-0.1-0.9-0.1-1.2c0.6-0.6,1-1.5,1.3-2.7c0.1-0.4,0.2-1,0.3-1.7
			l0.4-1.7l1.7-7.8l1.9-8l0.7-2.7c0.2-1.2,0.3-2.1,0.4-2.9c0.3-3,0.5-6.4,0.7-10.1l0.4-10l0.3-9.8l0.3-7.1c0.1-2.7,0.2-5,0.4-6.9
			l0.3-3.2l0.4-3.2c0.3-2.4,0.8-4.5,1.6-6.2l0.4-0.1h0.7c0.3,0.4,0.4,0.9,0.4,1.6c0,0.3-0.1,0.7-0.1,1.2l-0.3,0.6l-0.1,0.7V13
			c0.1,0.2,0.3,0.4,0.6,0.6l0.3,0.3l0.3,0.3v3.2c1.2,0.1,2.9,0.3,5.2,0.7c1.2-0.4,2.2-0.6,3.2-0.6c1.8,0,3.4,0.7,4.6,2.2v3l0.1,3.2
			c0,2.4-0.2,4.4-0.6,6.1c-0.3,1.5-0.5,3.6-0.7,6.1l-0.4,2.9l-0.3,3l-0.9,6.1l-1,6.1l-1,7.1l-1,7.1l-1,5.3l-0.9,5.5
			c-0.1,0.9-0.2,2.1-0.4,3.6l-0.3,3.8l-0.6,4l-0.6,4v0.7l-0.1,0.9l-0.3,3.5l-0.3,3.6c-0.3,3.6-0.5,7.7-0.7,12.3l-0.1,3.8l-0.1,3.6
			c-0.1,2.9-0.3,5.3-0.6,7.4c-0.2,1.3-0.3,3-0.3,5.2l-0.1,2.6l-0.1,2.5c0,0.5-0.1,1.1-0.1,1.7l-0.1,0.9l-0.1,0.9
			c0,0.2,0.1,0.5,0.3,0.9l0.3,0.6l0.3,0.6l0.3-1.2l0.1-5.2l0.1-5.1c0.1-4.1,0.3-7.6,0.6-10.3c0-1,0.1-2.1,0.1-3.3v-3.3
			c0.1-2.7,0.4-4.9,0.9-6.6c0.1-0.2,0.1-0.4,0.1-0.7v-0.9c0-2.8,0.4-6.9,1.2-12.3l0.3-2l0.1-2.2c0.1-1.8,0.2-3.2,0.4-4.2
			c0.4-2.2,0.8-4.7,1.3-7.4l1.6-7.5c0.4-2,0.9-4.3,1.6-6.9c0.3-1.1,0.9-2,1.7-2.8l0.1,0.4v0.4c0.1,0.2,0.1,0.3,0.1,0.4
			c0,0.2-0.1,0.3-0.1,0.4c-1,2.9-1.8,6.2-2.6,9.8l-0.9,5.1l-0.9,4.9c-0.3,1.9-0.6,4.2-0.9,6.8l-0.3,3.5l-0.4,3.3l-1.7,18.2v0.3
			l-0.7,24.9v0.4c0,0.5,0.1,1.1,0.3,1.9c0.7-4.1,1.4-9,2-14.5l0.9-7.2l0.9-7.4c1.5-12.5,2.9-22.4,4.2-29.6c0.5,1,0.7,1.6,0.7,1.9
			c-0.4,1.7-0.7,3.9-1,6.5l-0.9,6.5l-0.4,3.6l-0.6,3.5c-0.4,2.1-0.7,4.1-0.9,6.1l-0.3,4c-0.2,1.7-0.3,3.1-0.4,4l-0.9,6.1l-0.9,6.1
			l-0.4,2.7l-0.3,2.8l-1.3,8.8l-1.3,8.8c-0.3,1.7-0.5,4.1-0.7,7.1c-0.4,5.4-0.6,9.5-0.7,12.4c0,1,0.2,2.1,0.7,3.5
			c0.3,0.9,0.4,1.8,0.4,2.9c0,0.5-0.1,1-0.1,1.6c-0.4-0.1-0.9-0.2-1.4-0.3l-0.3,0.7l-0.3,0.9c-0.2,0.6-0.3,1.1-0.3,1.4v0.9
			c0,1.3-0.1,2.7-0.4,4.2L367,200c-0.8,4-1.2,7.3-1.2,9.8c0,0.8,0.1,1.5,0.1,2.2l0.9-0.1c0.3-0.1,0.6-0.1,0.9-0.1l0.4,0.4l0.3,0.7
			c0.3,0.5,0.6,0.9,0.9,1.3l-1,1l-0.4,0.4l2,5.1l2.2,5.1c0.2,0.6,0.3,1.3,0.3,2.2c0,0.6-0.1,1.2-0.1,1.9c-0.5,0-0.9-0.2-1.2-0.6
			c0-0.1-0.1-0.3-0.1-0.6V228v-0.3c-0.5-1-1.1-2.2-1.7-3.8l-1.4-3.8c-0.7-1.4-1.6-2.1-2.7-2.3l-0.7,4.1l-0.7,4l-0.3,2.2l-0.4,2
			l-0.9,4l-0.9,4.2c-0.2,1-0.5,2.1-0.9,3.5l-0.9,3.5c-0.7,2.7-1.1,5-1.2,6.9c0,0.1-0.4,1.1-1.3,2.9l-0.6-2v-6.2
			c0-1.9-0.1-4.1-0.3-6.4l-0.4-4.2l-0.6-4V232c0-0.2-0.1-0.3-0.1-0.3c-0.7-1.4-1.1-3.2-1.2-5.4V221c0-5.1,0.1-9.9,0.1-14.3v-1.3
			l0.1-1.2c0.1-0.7,0.1-1.3,0.1-1.7v-0.7c0-0.8-0.1-1.7-0.1-2.9l-0.4-3.2c-0.2-0.1-0.5-0.3-1-0.7l-0.6-0.4l-0.7-0.6l-0.3-0.9
			l-0.1-0.9c-0.1-0.9-0.2-1.5-0.4-2l-0.3-1.2l-0.4-1.2c-0.3-0.9-0.6-1.6-1-2.2c-0.8-1.3-1.7-2.7-2.9-4.3L343,177l-0.7-0.9l-0.6-1
			c-0.5-0.8-0.9-1.4-1.3-1.9l-4.2-5.1c-1.6-1.8-3.1-3.5-4.5-4.9c-2.3-2.3-4.2-4.7-5.6-7.1c-5.9-9.6-10.4-17.1-13.4-22.3
			c-1.6-2.7-3.7-6.2-6.1-10.4l-6.1-10.4c-0.1-0.3-0.3-0.6-0.7-1l-0.4-0.6l-0.4-0.7l-0.3,0.6l-0.3,0.6c-0.1,0.4-0.2,0.7-0.3,1
			c-0.4,4.1-0.8,8.7-1.2,13.9v8.8c0,2.2-0.1,4.1-0.1,5.6c-0.1,1.4-0.3,3.3-0.6,5.5l-0.3,2.7l-0.3,2.7v0.6l-0.7,12.4l-0.7,9.8
			c-0.3,3.8-0.7,7-1.2,9.8c-0.1,0.7-0.1,1.5-0.1,2.5l0.1,2.3c-0.8,0.6-1.6,0.9-2.5,0.9c-0.7,0-1.4-0.2-2-0.6l-1-8.7h-0.4l-0.1,2.5
			v3.3l-0.4,2.9l-0.1,1.6v1.6l-0.1,1.4v1.3c-0.6,0.5-1.2,0.7-1.7,0.7h-0.3c-0.3,0-0.6-0.1-1-0.1l-0.9-0.3l-1.2,0.4L280,197
			c-0.4-0.1-1.3-0.3-2.6-0.7L277,196l-0.1-0.4c-0.2-0.4-0.3-0.7-0.4-1l-0.1-1.9l-0.1-1.9c-0.1-1.5-0.2-2.8-0.4-3.8
			c-0.2-0.7-0.3-1.6-0.4-2.9l-0.1-1.6l-0.1-1.4c-0.3-2.4-0.9-4.4-1.9-5.9l0.1-1.6l0.1-1.6l0.3-3.3l0.3-3.5l0.1-3.3l0.1-0.9v-0.7
			l0.1-28.6v-0.9l-0.1-1l-0.6-0.9l-0.3-0.4l-0.3-0.4v-7.7c0.1-1.3,0.1-2.4,0.1-3.3c0-1.1-0.1-2-0.1-2.8l-0.3-4.3l-0.4-4.3
			c-0.2-2.7-0.3-5-0.3-6.9v-1.9c0-2.6-0.6-5.3-1.7-8c-0.5-1.1-1.1-2.3-1.7-3.6l-2.2-3.5c-5.9-9.6-10-18.6-12.3-26.7l-0.1-0.1v-0.3
			c-0.2-0.3-0.3-0.5-0.3-0.6v-0.3c0-0.4,0.2-0.7,0.7-1c0.5,0.3,0.8,0.7,1,1.3l0.3,0.7l0.3,0.9c2,6.6,4.8,12.9,8.2,19.1
			c0.9,1.7,2.1,3.8,3.6,6.2l1.9,3.2l1.9,3.3v-1l0.1-0.9v-4L272,79c0-2.1,0.1-3.9,0.3-5.2c0.4-2.4,1.3-4.9,2.6-7.5l0.9,0.3
			c0.3,0.1,0.6,0.2,0.9,0.3c-0.5,1.3-0.7,2.6-0.7,3.9c0,0.7,0.1,1.4,0.1,2.2c0.1,0.8,0.3,1.7,0.6,2.9l0.4,1.4l0.4,1.4l0.6-7.2
			l-0.6-2c-0.3-0.9-0.5-1.5-0.6-2c0.7-1.2,1.7-2.4,3-3.8l1.7-1.4c0.7-0.7,1.2-1.2,1.6-1.6h2.3l4.8,5.9l2.3,2.9l2.3,2.9
			c0.7-0.1,1.2-0.5,1.6-1.2l0.3-0.3l0.1-0.4c0.2-0.3,0.4-0.5,0.6-0.7c-0.2-0.6-0.5-1.4-0.9-2.3l0.6-0.4c0.1-0.2,0.2-0.3,0.4-0.4
			c0.5-0.1,1-0.1,1.4-0.1c1.5,0,2.9,0.4,4.2,1.3c1.8,1.3,2.8,2.8,3,4.8v0.6c0,0.5-0.1,1-0.1,1.6l-0.3,1l-0.3,1.2l-0.1,0.7l-0.3,0.9
			l-0.4,2.9l-0.1,1.4l-0.3,1.6c7.7,9.9,15,20.9,21.8,32.8c0.5-0.7,0.7-1.4,0.7-2.2c0-0.2-0.1-0.4-0.1-0.7l-0.1-0.6l-0.1-0.6
			c-0.2-0.5-0.3-0.9-0.3-1.3c0.1-0.7,0.1-1.5,0.1-2.5v-2.2c-0.4-0.9-0.9-1.9-1.4-3.2l-1.3-2.9L323.5,101.2L323.5,101.2z M277.8,92.5
			c0-3-0.4-5.8-1.2-8.5c-0.3-1.2-0.6-2.7-1-4.5l-1-4.3c-0.6,0.7-0.9,1.4-0.9,2.3v5.9l-0.1,5.8c0,2.3,1.2,5.5,3.6,9.5
			C277.6,96.7,277.8,94.6,277.8,92.5z M274.3,101.2c0,1.6,0.3,2.9,0.9,3.8c0.4-1.3,0.6-2.3,0.6-3.2v-0.4c-0.1-1-0.5-2.1-1.2-3.3
			C274.4,99.2,274.3,100.3,274.3,101.2z M287.6,159.3h0.3l0.1-1.2v-2l-0.1-1l-0.3,0.1V159.3z M333.3,118.6v9.4l1.9,2.9
			c0.8,1.2,1.4,2.1,2,2.9c1.5,2.2,3.1,4.1,4.8,5.8c-0.4-3.7-1.4-7.4-3-11.3c-0.7-1.4-1.5-3.1-2.5-5.1l-1.3-2.5l-1.2-2.5L333.3,118.6
			z M349.6,150.2l0.1-0.7v-0.9c0-1.2-0.1-2.1-0.4-2.9l-2.6-5.5l-2.6-5.5c1.5,5.7,3.1,10.6,4.8,14.9c-0.2,0.9-0.3,1.4-0.3,1.4l1,0.9
			V150.2L349.6,150.2z M355.1,117.3l0.3-0.1v-3.9h-0.3V117.3z M355.7,112.1h0.4V108h-0.4V112.1z"/>
		<path class="st0" d="M426.1,182.3c-3.7,0-7.1-0.9-10.3-2.6c-3.3-1.6-6.3-4.3-9.1-8.1c-2.9-3.9-5.7-8.9-8.5-15.1
			c-0.9-1.9-1.8-4.2-2.7-6.9c-0.2-0.5-0.3-1-0.4-1.5l-0.3-1.6c-0.3-1.7-1.2-4.1-2.7-7.3l-4.3-8.2l-4.2-8.2c-3-5.8-4.9-10.6-5.8-14.3
			l-0.4-1.9c-0.2-0.8-0.3-1.4-0.4-1.9s-0.1-0.9-0.1-1.4c0-0.9,0.1-1.8,0.4-2.6c0.2-0.5,0.5-1.1,0.9-1.6l0.6-0.8l0.7-0.7
			c0.2-0.3,0.5-0.6,0.9-0.9l0.4-0.6l0.6-0.5l0.4,0.5l0.4,0.6c-2.5,1.9-3.9,4-4,6.4l0.3,1l0.3,1.2c0.2,0.9,0.3,1.8,0.4,2.5
			c0.5,2.7,1.6,5.9,3.5,9.7c1.4,2.9,3.2,6.4,5.2,10.4l5.3,10.3c0.1,0.2,0.2,0.4,0.4,0.7l0.3,0.5l0.3,0.5c0.2-0.5,0.3-0.9,0.3-1.4
			s-0.1-1-0.3-1.5l-0.1-0.6l-0.3-0.7c-0.2-0.5-0.3-1-0.3-1.3l-0.6-1.9l-0.6-2c-0.4-1.5-0.6-2.8-0.6-3.9v-3.3
			c0.4-0.1,0.8-0.2,1.2-0.4l1.2-0.4l0.1,0.2l0.1,0.2c0.1,0.2,0.1,0.3,0.1,0.4c-0.1,0.5-0.1,1.1-0.1,1.8c0,1.3,0.2,2.8,0.7,4.6
			l0.4,1.5l0.4,1.5c0.3,1.3,0.5,2.3,0.7,3c0.4,1.9,1.2,4.1,2.5,6.8l1.7,3.3c0.6,1.3,1.1,2.3,1.4,3.3c2.8,7,5.8,13,9.1,18
			c2.8,4.1,5.3,6.9,7.7,8.5c1,0.6,2.2,1.3,3.8,2.1l2,1.2c0.8,0.5,1.4,0.9,2,1.2c0.1,0.1,0.2,0.2,0.3,0.2l0.1,0.2l0.3,0.2
			c0.4,0.5,0.7,0.9,0.9,1.2C427.5,182.2,426.8,182.3,426.1,182.3z M399.2,68.1l0.6,0.2l0.6,0.4l0.4-0.5c0.2-0.2,0.3-0.4,0.3-0.6
			c1.1-2.7,2.9-5.5,5.6-8.5l1.3-1.3c0.7-0.6,1.1-1.1,1.3-1.4l2.5-2.8l1.3-1.4l1.2-1.5h0.4c1,0,1.9,0.3,2.9,0.8
			c0.4,0.2,0.9,0.5,1.4,0.9l1.4,0.9l1.2-0.6l1.3-0.5c1-0.5,1.8-0.8,2.6-1c1.9-0.7,3.8-1.3,5.5-1.6c0.5-0.1,1-0.1,1.6-0.1
			c1.4,0,2.9,0.4,4.5,1.3c1.7,0.9,3.7,1.7,5.9,2.2c2.7,0.6,5.3,1.9,7.7,3.9l3.3,2.6l1.7,1.3l1.6,1.4c2.6-0.9,5-1.4,7.2-1.4
			c0.4,0,0.8,0,1.3,0.1c1.2,0.5,2,1.4,2.5,2.7c2,5.4,3.3,9.9,3.9,13.7c0.5,2.7,1,5.5,1.4,8.3c0,0.2,0.1,0.5,0.3,0.9l0.4,1l3.2-0.9
			c1.4-0.4,2.3-0.7,2.9-0.9c0.9,0.2,1.5,0.6,2,1.2c0.3,0.3,0.6,0.8,0.9,1.5c1.5,3.7,2.7,6.7,3.6,9c0.6,1.5,0.9,3,1,4.6
			c0.1,0.9,0.2,1.8,0.4,2.9l0.4,1.5l0.3,1.5c0.2,0.8,0.3,1.7,0.3,2.8l-0.1,1.5v1.4c0,3.7-0.6,7.6-1.7,11.7c-0.1,0.2-0.1,0.5-0.1,0.9
			l-0.1,0.9c0.5,0.5,1,1,1.6,1.5l-0.4,2.3l-0.3,2.3c-0.4,1.9-0.7,3.4-1,4.6c-1.3,4.3-1.9,8.2-1.9,11.6v1.9c0,3.5-0.8,7.1-2.5,10.6
			c-1.4,3.1-3.9,6-7.5,8.7c-4.6,3.4-7.9,6-9.8,8.1c-4.1,4.4-7.8,7.4-11,9.1c-0.9,0.5-1.9,0.9-3.2,1.4l-1.7,0.7l-1.6,0.7
			c-0.1,0-0.5-0.1-1.3-0.2l0.3-0.7c0.1-0.3,0.2-0.5,0.3-0.7l3.8-3c1.4-1.2,2.7-2.2,3.6-3c2.9-2.3,5.6-4.1,8.1-5.6
			c3.6-2.2,6.5-5.1,8.8-8.8c3.6-5.6,6.8-12.1,9.8-19.4v-1l-0.3-0.2c-2.6,4.4-7.4,9.1-14.5,14.2c-1.2,0.9-2,1.8-2.5,2.7
			c-2.7,4.4-7,8.3-12.9,11.7c-3.3,1.8-5.6,3.6-7.1,5.4c-0.2,0.3-0.6,0.7-1.3,1l-0.7,0.5l-0.7,0.5l-2.3-0.7l-2.3-0.8
			c0.2-0.3,0.4-0.8,0.6-1.4l0.4-1.5c0.4-1,1.1-1.8,2-2.5c-0.5-0.2-0.9-0.4-1.3-0.4s-0.8,0.1-1.2,0.4l-0.4,0.4l-0.3,0.2
			c-0.3,0.2-0.6,0.4-0.9,0.5h-4.3l-0.9-0.6l-0.4-0.4l-0.6-0.5l0.3-1.2l0.1-0.7l0.1-0.8l-0.6-0.2l-0.6-0.2l-1.2-0.7l-1.6-0.8
			c-0.7-0.3-1.2-0.6-1.6-0.9c-1.4-0.9-2.2-1.9-2.2-2.9c0-0.6,0.2-1.3,0.7-1.9l-1.2-2.6l-1.3-2.5c-1-1.9-2-3.5-3-4.8
			c-0.4,0.1-0.8,0.2-1.3,0.2l-1,0.2c-1.4-0.5-2.1-1.2-2.2-2.1c-0.1-1.1-0.3-2-0.7-2.8l-0.3-0.9l-0.4-0.9c-0.3-0.8-0.6-1.4-1-1.8
			c-3.4-3.9-5.9-7.9-7.5-11.9l-0.9-0.8v1l0.3,0.9c0.1,0.2,0.1,0.4,0.1,0.6c0,0.5-0.2,1-0.6,1.4l-0.4-0.8l-0.3-0.8
			c-0.3-0.6-0.5-1.1-0.7-1.5c-0.7-1.9-1.5-4.3-2.6-7.1l-1.6-3.5l-1.4-3.5c-0.4-0.9-0.7-2-0.9-3.2l-0.4-1.6l-0.3-1.6
			c-0.4-2.3-0.6-5.1-0.7-8.3V99c0-0.4-0.2-0.7-0.6-0.9V119h-1.9V99.1c0.1-1.2,0.3-2.7,0.6-4.7l0.3-2.5l0.3-2.3
			c0.2-2.5,0.6-5.2,1.3-8.1l1-4.2c0.4-1.7,0.8-3.1,1.2-4.2c0.3-0.8,0.7-1.7,1.3-2.8l0.9-1.4l0.9-1.5
			C398.5,67.6,398.8,67.8,399.2,68.1z M393.2,95h0.3v-3.9h-0.3V95z M406.6,97.2V83c-0.6,1.6-0.9,3.5-0.9,5.5v1.6
			c0,0.9,0.1,2,0.4,3.5l0.1,1.8L406.6,97.2z M423.8,153.5l3,5.2l2.9,5.2c0.7,1.2,1.7,1.9,3.2,2.2c1.6,0.4,3.2,1.1,4.8,2.1
			c0.9,0.5,1.7,0.8,2.5,0.8c1,0,1.9-0.3,2.7-0.9c1-0.7,1.7-1.4,2.2-2.2c1.1-1.6,2.2-2.8,3.5-3.9c2-1.6,3.7-3.7,4.9-6.1
			c1.4-2.7,2.8-5.6,4-8.9c3.8-10,5.6-20.2,5.6-30.8v-11.4c-0.1-4.2-0.3-8-0.7-11.3c-0.2-1.7-0.8-3.1-1.7-4.2c-2.7-3-5.9-5.6-9.5-8
			c-3-1.9-7.9-4.1-14.6-6.8c-3.2-1.3-5.5-2.7-7.1-4.1l-0.7-0.6l-0.7-0.6c-2.2,0.5-3.9,1.8-4.9,4.1c-1.2,2.4-1.8,4.7-2,6.9l-0.3,2.1
			l-0.4,2.1c-0.3,1.8-0.4,3.2-0.4,4.3l-0.1,5.7v5.6c0,4.4,0.2,8.2,0.6,11.3c0.2,1,0.3,2.5,0.4,4.4v2.2l0.3,2.3l1.3,10.9
			c0.6,4.1,1.7,8.5,3.5,13.1c0.4,0.9,1,2.1,1.7,3.5l1,1.8l1,1.8l-0.6,0.8l-0.6,0.8c-0.5,0.5-0.9,1.1-1.3,1.6
			c-1.4-0.9-2.4-1.7-3.2-2.2L423.8,153.5z M426.8,87.6l0.1,0.5c0.1,0.2,0.1,0.3,0.1,0.5s-0.1,0.3-0.1,0.5c-0.2,0.8-0.4,1.7-0.6,2.7
			l-0.1,1.4l-0.3,1.4c-0.3,2.5-0.7,4.5-1.2,6.1l-0.9-1.5c0.1-2.2,0.3-4.6,0.7-7.4l0.4-2.2c0.2-1,0.8-1.8,1.7-2.5v0.5H426.8z
			 M428,61.8l1.4,0.8l1.6,0.8c2.4,1.3,4.5,2.1,6.2,2.5c-3.6-3.4-7.3-6.1-11.1-8l-0.3,0.6l-0.3,0.6c-0.3,0.5-0.5,1-0.7,1.3
			C425.8,60.7,426.8,61.2,428,61.8z M443.6,70.9l0.3-0.5l-12.4-4.7h-0.1l-0.4,0.1l1.2,2.3L443.6,70.9z M443.7,72.5l-4.5-0.8
			l-4.5-0.9l-1.6-0.4l-0.1,0.5l4.5,1.9l4.6,2c3.7,1.6,6.7,3,9.3,4.1C450.1,75.3,447.5,73.2,443.7,72.5z M454.9,185.3
			c1.5-0.5,2.7-1.5,3.5-2.8C456.6,183.5,455.5,184.4,454.9,185.3z M480.3,142.8l-0.7,1c-0.6,0.9-1.1,1.6-1.6,2.1l-4.8,5.8l-4.9,5.8
			l-0.9,1.5c4-2.9,7.2-6,9.8-9.5c2.6-3.3,3.9-5.9,3.9-7.8v-0.2L480.3,142.8z M473.4,168.9c-0.1,0.1-0.1,0.2-0.1,0.5l-0.1,0.6
			c6.7-4.2,10.1-10.7,10.1-19.5v-0.4C480.7,156.3,477.4,162.6,473.4,168.9z M478.1,103.4c-0.1-1.1-0.3-2.4-0.6-3.9l-0.4-2
			c-0.2-0.7-0.4-1.3-0.7-1.9c-0.1-0.2-0.1-0.5-0.1-0.9v-0.5l-0.1-0.4c-0.1-0.8-0.5-1.3-1.2-1.6v2.9l0.1,1.2l0.1,1.3
			c0.2,1,0.3,1.8,0.3,2.5v0.4c0,2.1,0.9,4.4,2.6,6.8L478.1,103.4L478.1,103.4z M477.4,116.1v-0.8c-0.1-0.6-0.3-1.3-0.6-1.9l-0.3-0.9
			c-0.2-0.3-0.3-0.7-0.4-1c0,1.1-0.1,2.3-0.1,3.7l-0.1,1.9l-0.1,1.8c-0.1,1.2-0.1,2.2-0.1,3.2c0,1.5,0.1,2.8,0.3,3.9
			C476.9,121.2,477.4,118,477.4,116.1z"/>
		<path class="st0" d="M530.9,86.3c-1.1-0.2-2.2-0.3-3.4-0.4c-0.1,0.2-0.3,0.5-0.7,0.9l-0.4,0.6l-0.4,0.4c-0.1,0.3-0.1,0.6-0.1,1
			c0,1.4,0.4,2.9,1.2,4.6c1.8,4.4,3.4,10.2,4.8,17.3c0.1,0.5,0.1,1.1,0.1,1.7v3.9c-0.8-0.8-1.4-1.8-1.7-3l-0.3-1.6
			c-0.1-0.7-0.2-1.2-0.3-1.6l-1-3.2l-0.8-3.3c-0.7-2.6-1.4-4.8-2.1-6.5v1.2l-0.1,1.2l-0.6,22.1v3.5c0.8-0.6,1.2-1.5,1.2-2.8l0.1-1.4
			c0-0.6,0-1.1,0.1-1.4c0.3-0.7,0.4-1.6,0.4-2.7v-3.2c0.8,0.7,1.3,1.1,1.5,1.3c-0.1,1.1-0.2,2.5-0.3,4.2l-0.3,4l0.7,0.6l0.7,0.7v6.5
			l1.9,1.6l1.9,1.6c1.5,1.3,2.7,2.4,3.7,3.3c4.1,0,8.7-0.9,13.8-2.6c5.6-1.9,10-4.3,13.2-7.2c0.2,0.1,0.6,0.2,1.1,0.3l0.3,0.1h0.4
			c0.4,0.1,0.7,0.2,1,0.3c0.4-0.1,0.8-0.2,1.2-0.4l0.7-0.4l0.8-0.4c0.8-0.4,1.6-0.6,2.3-0.6c0.4,0,0.7,0.1,1.1,0.1l0.4,0.4l0.3,0.3
			l0.7,0.7v3.3c-1.2,1.1-2.8,2-4.7,2.9l-2.6,1l-2.5,1l-6.3,2.9l-6.5,2.9c-0.6,0.2-1.2,0.5-1.9,1l-1,0.6l-1.1,0.6l0.6,2.9l0.6,3
			c-0.6,0.9-1.6,1.7-2.8,2.5l-1.7,1l-1.7,0.9c-1.7,1.1-4,2.3-6.8,3.8l-3.3,1.7l-3.4,1.9l-0.6,0.4l-0.3,0.3l-0.3,0.3l0.6,3.3l0.8,3.9
			l0.7,3.9c0.6,3,1.1,5.6,1.4,7.8c0.2,1.2,0.3,2.6,0.3,4.3l-0.1,2.5v2.5c-2-2-3.7-4.5-5.1-7.5c-0.5-1.3-1-2.7-1.5-4.2l-0.7-2
			l-0.6-2.2l-0.1,1.2c0,0.4,0,0.7,0.1,1l0.4,3.5l0.4,3.5c0.4,2.6,0.8,4.9,1.4,6.8c0.7,2.5,1.6,5.6,2.5,9.3l2.3,9.3
			c0.1,0.5,0.2,1.1,0.3,1.9l0.4,2.5l0.3,2.6v0.6c0,0.8-0.1,1.5-0.4,2.3c-3.7-7.3-6.7-15.2-9-23.6h-4.3c0.4-2,0.6-3.9,0.6-5.5
			c0-1.4-0.1-2.8-0.4-4.1c-0.1,0.4-0.3,1.5-0.6,3.3c-0.9-0.8-1.4-1.7-1.5-2.9l-0.3-2.5l-0.3-2.5V179l1.2-10.8l0.4-3.8l-0.8-0.3
			l-0.7-0.3c-0.6-0.3-1.1-0.5-1.5-0.6c-4.3-0.8-8.6-3.1-12.7-7.1l-0.7-0.7l-0.8-0.6c-0.6-0.6-1-1.1-1.4-1.4c-0.9-1.3-1.5-2.3-1.7-3
			c-0.2-0.6-0.5-2.3-1-5.2l-1.9-2.5c-0.8-1-1.5-1.8-2.1-2.5l-1.1-1.2l-1.1-1.2c-1-1-1.7-1.7-2.2-2.3c-0.2-0.4-0.3-0.8-0.3-1.2
			c0-0.3,0.1-0.6,0.1-0.9c0.1-0.3,0.2-0.6,0.4-0.9l0.4-0.9c0.6-1.3,1-2.5,1-3.8c0-0.9-0.2-1.8-0.6-2.7c-0.3-0.7-0.5-1.5-0.6-2.6
			c0-0.1,0.1-0.3,0.1-0.7l0.3-0.4l0.1-0.4l0.8,0.9l0.7,0.9c0.6,0.8,1,1.3,1.2,1.6c0.6-0.1,1.3-0.2,2.2-0.4c4.9,3.7,9.8,7.3,14.9,11
			c0.9-0.8,1.7-1.4,2.2-1.9c0.5,0.1,1,0.2,1.7,0.3l0.8,0.1l1,0.1c0.1-0.9,0.1-1.9,0.1-3.2v-9l-0.6-0.4l-0.6-0.4
			c-0.5-0.3-0.8-0.5-1.1-0.6l-5.2-2.8l-5.4-2.7l-0.7-0.4c-0.3-0.1-0.5-0.2-0.7-0.3c-0.5-0.4-0.7-0.9-0.8-1.6h1.7l5.5,2.8l5.5,2.6
			c0.2,0.2,0.5,0.4,1,0.6l0.6,0.1c0.3,0.2,0.5,0.3,0.7,0.4c-0.1-4.9-0.6-10.4-1.4-16.5c-0.4-2.3-0.8-5-1.2-8.1l-1.4-8.1l-0.7-0.1
			h-0.6l-1.2-0.3c-4.6-0.9-8.8-2.6-12.5-5.2c-0.7-0.5-1.6-1.2-2.5-2s-2.1-1.6-3.6-2.3l-4.1-1.7l-1.2-3.5l0.4-0.4
			c0.2-0.2,0.4-0.3,0.6-0.3c1.2,0,2.8-0.2,4.7-0.6l2.3-0.4l2.3-0.3c0.4-0.1,0.7-0.1,1.1-0.1s0.8,0.1,1.2,0.1l1.1,0.1h1.2l3,0.3h3.2
			c0.1,0,0.3-0.1,0.6-0.3l0.1-0.1l0.4-0.3l-0.8-2.9l-0.6-2.9c0.7-0.9,1.7-1.6,3-2.2l3.2-1.2l0.8,0.1l0.7,0.3
			c0.6,0.2,1.2,0.3,1.7,0.3h0.4c1,0,1.8-0.4,2.5-1.2c4.1,1.3,8.9,1.9,14.3,1.9c2.9,0,6.1-0.2,9.5-0.6c3.7-0.4,6.5-0.9,8.4-1.6
			l1.4-0.4c0.5-0.1,0.9-0.2,1.2-0.4c1-0.5,1.8-1.1,2.3-1.7c0.1-0.2,0.3-0.3,0.7-0.4h0.3l0.4-0.1c0.4,0.5,0.6,1.1,0.6,1.7
			c0,0.4-0.1,0.8-0.1,1.3l-0.3,0.7l-0.1,0.7v0.4c0,0.4,0,0.7,0.1,1c-2,1.7-4.7,2.9-8,3.6c-0.9,0.2-2.4,0.4-4.4,0.7l-2.2,0.3
			l-2.3,0.4c0.6,0.1,1.2,0.2,2.1,0.4l1.1,0.1l0.8,0.1c1.5,0.3,2.7,0.5,3.6,0.7l2.9,0.4c1.1,0.1,2.1,0.1,2.9,0.1
			c1.6,0,3.5-0.3,5.8-0.9l4.4-1l4.4-1.2c3.5-0.9,6.4-1.5,8.7-1.9l2.8-0.6l2.9-0.6c2-0.5,3.9-1,5.5-1.4c0.6-0.2,1.3-0.3,1.9-0.3
			c1.6,0,3,0.6,4.4,1.9v2.6l-0.7,1.6l-0.7,1.7c-0.6,1.3-1.1,2.5-1.7,3.6c-1.5,2.1-4.6,3.6-9.5,4.3c-5.3,0.9-10.6,1.3-15.9,1.3H561
			c-1.6,0-3.4,0.3-5.5,0.9l-2.6,0.7l-2.8,0.9l-4.7,1.4l-4.7,1.3c-3.5,1-6.7,1.7-9.5,2.2c-0.9,0.1-1.4,0.5-1.5,1.3L530.9,86.3z
			 M506.3,72.7h-5.9v0.4h5.9V72.7z M513,136.1c0.3,0.2,0.5,0.3,0.7,0.4c0.2,0.1,0.4,0.1,0.7,0.1s0.6-0.1,1.1-0.3
			c-0.3-0.1-0.6-0.2-0.8-0.3l-0.8-0.3c-0.5-0.1-0.9-0.2-1.2-0.3L513,136.1z M513,64.9l0.4,1c0.3,0.8,0.5,1.4,0.7,1.7
			c0.6,1.4,1.3,2.3,2.2,2.9h1.5l1.4,0.1c1.1,0,2-0.1,2.8-0.3c-1.8-1.7-3.8-3.6-5.9-5.5l-0.7-0.3l-0.7-0.1c-0.7-0.3-1.4-0.5-1.9-0.6
			L513,64.9z M527.2,137.4v-2.5l-0.1-2.3c0-1.1-0.6-1.6-1.7-1.6c0.2,0.5,0.3,1,0.3,1.6l0.1,0.9v0.9c0,1.4,0.1,2.4,0.4,3.2
			L527.2,137.4z M527,143.6v-1.2c0.1-0.2,0.1-0.3,0.1-0.4c0-0.1-0.1-0.2-0.1-0.3s-0.1-0.2-0.3-0.4l-0.4-0.3l-0.3-0.3v1.2
			c0.1,0.2,0.2,0.4,0.4,0.7l0.3,0.4L527,143.6z M528.9,143.3h2.9c-1.5-0.8-2.3-1.2-2.6-1.3c0,0.2-0.1,0.4-0.1,0.6v0.3L528.9,143.3z
			 M533,146c-0.3,0.2-0.6,0.3-1.1,0.4l-0.6,0.1h-0.6c-0.9,0.2-1.6,0.6-1.9,1.3c0,0.3,0.1,0.8,0.3,1.4C531,148.3,532.3,147.2,533,146
			z M529.2,137.5h0.3l0.3-0.1l0.6-0.1v-1.4c-0.2-0.6-0.6-1-1.1-1.3L529.2,137.5L529.2,137.5z M530.8,86.5l1.2,0.7v0.6
			c0,3.2-0.6,5.4-1.9,6.6c-0.4-0.4-0.6-0.9-0.6-1.4c0-0.2,0-0.4,0.1-0.7l0.1-0.4l0.1-0.4c0.2-0.4,0.3-0.7,0.3-1
			c0.1-0.5,0.2-1.2,0.3-2L530.8,86.5L530.8,86.5z M533.4,140.1l-0.1,0.9l2.9,1.2l0.6-0.1l0.6-0.3l1.1-0.6c-0.6-0.7-1.5-1.1-2.5-1.2
			c-0.3,0-0.7,0.1-1.2,0.1L533.4,140.1L533.4,140.1z M535.6,176.8l0.6,0.1l0.6,5.6l0.4,5.8l-0.4,0.1l-1.2,0.1c-0.6-3.5-1-6.5-1-9.1
			c0-1.1,0-2,0.1-2.9C534.9,176.8,535.3,176.8,535.6,176.8z M542.8,139c-0.8,0-1.5,0.3-1.9,0.9c0.3,0.2,0.6,0.3,1,0.3
			c0.2,0,0.4-0.1,0.7-0.1c0.2-0.1,0.4-0.2,0.7-0.4l0.4-0.3l0.4-0.1C543.6,139,543.2,139,542.8,139z"/>
		<path class="st0" d="M695.7,89l-1.2,1.8l-1.2,1.8v0.6c0,0.1,0.1,0.3,0.2,0.4c1.6,3.6,2.4,7.7,2.4,12.3c0,2.9-0.4,6.1-1,9.5
			c-0.3,1.5-0.8,2.6-1.4,3.6c-1,1.9-2.4,4.1-4,6.7l-2.1,3.4l-2.1,3.4l-0.7-1.8c-0.3-0.7-0.6-1.2-0.9-1.6c-0.4-0.4-0.8-0.9-1.2-1.4
			l-0.7-0.6l-0.9-1h-4.2c-0.5-0.3-1.3-0.9-2.4-1.8l-1.2-0.8l-1.4-1.2l-0.7,0.4l-0.7,0.4c-0.6,0.3-1.1,0.5-1.6,0.8
			c-8.3,6.6-17.2,10.9-26.7,12.9c-0.8,0.3-1.8,0.6-2.9,1l-1.6,0.4l-1.7,0.6c2.2,3.3,5.5,6.8,10.1,10.5l2.6,2.2l2.6,2
			c2.1,1.7,3.8,3.1,5,4.2c1.2,1.1,2.7,2.6,4.7,4.6l2.4,2.4l2.4,2.4c2.8,2.5,6,5.8,9.5,9.9l8.8,10.7c4.6,5.3,10.3,10.5,17.2,15.5
			l7.8,5.6c3,2.1,5.5,4,7.6,5.6l1.9,1.4c0.7,0.5,1.3,1,1.7,1.4c1.4,1.2,2.4,2.5,2.9,3.8l7.8,6.4c-0.6,0.4-1.2,0.6-1.7,0.6H729
			c-0.2-0.1-0.5-0.3-0.9-0.4l-0.9-0.4l-2.6-1.2c-1-0.4-2-0.7-2.8-1c-1.4-0.5-2.7-0.8-4-0.8c-0.6,0-1.1,0.1-1.6,0.2l-0.3,0.2h-0.3
			l2.1,3l1.9,2.8c1.6,2.2,2.9,4.2,3.8,5.9c1.3,2.4,4.3,6.4,9,11.9c-1,0.1-1.8,0.2-2.3,0.2h-0.3c-0.3-0.1-0.8-0.3-1.2-0.6l-1.2-0.8
			c-3-2.2-7.6-4.4-13.9-6.5c-1.2-0.4-2.5-1.3-4.2-2.6c-1.2-0.9-2.7-2.5-4.7-4.6l-5-5.4c-2.2-2.1-3.9-3.8-5.2-5.2l-7.6-7.5l-7.8-7.7
			l-6.8-6.7l-6.8-6.7l-5.4-5.4l-5.6-5.4l-5-5l-5-4.8l-4-3.8c-1.5-1.3-2.8-2.5-4-3.6c-4.1-3.4-7-6.9-8.8-10.5
			c-0.6,4-1.1,7.9-1.6,11.7l-1.2-2l0.5-9.9l0.2-2v-2.2l-1-1.4l-1.2-1.8v-1.6l-0.2-1.6c-1-2.1-2.7-3.2-4.9-3.2c-1,0-2.3,0.3-3.6,0.8
			v1.6l-0.2,1.4l0.2,15.9v1.4c0,7.8,0.9,16.1,2.8,25c0.1,0.7,0.2,1.5,0.3,2.6l0.3,8.5c0.1,3.3,0.3,6.2,0.5,8.5
			c0,1.1,0.2,2.5,0.5,4.4l0.5,2.2l0.3,2l2.4,16.3l0.7,4l0.7,4c-0.3,0.1-0.6,0.2-0.9,0.2c-0.3,0-0.6-0.1-0.9-0.4
			c-0.1-0.1-0.3-0.4-0.5-0.8l-0.2-0.4l-0.2-0.4c-0.8-2-1.8-4.4-2.9-7.1l-3-7.3c-0.6-1.6-1.8-4.6-3.6-9.1c0.1,0.8,0.2,1.7,0.2,2.8
			l0.2,2.6c0.1,2,0.2,3.6,0.2,4.8v2.2l0.2,2.2c-0.1,1.9-0.4,3.4-0.9,4.6l-2.4,0.4c-0.9,0.3-1.8,0.5-2.6,0.6c-0.6-2.6-1-6.2-1.4-10.7
			l-0.2-2.8l-0.2-2.8c-0.2-2-0.5-3.8-0.7-5.6c-1-1.2-1.7-3.4-2.1-6.5c-0.1-1.3-0.3-3-0.5-5.2l-0.9-5.4c-0.1-0.7-0.2-1.7-0.2-3v-11.3
			c-0.1-2.4-0.4-4.9-0.9-7.5l-0.9-5.2l-1-5.2c-0.8-4.4-1.4-7.9-1.7-10.5c-0.2-1.5-0.5-3.2-0.7-5.4l-0.3-5.4l-0.3-7.1l-0.5-7.1
			c-0.1-1.6-0.6-3-1.6-4.4v8.3l-0.2,4l-0.2,3.8c-0.1,2-0.2,3.8-0.2,5.4v2.2c0.3,4.4,0.5,10.1,0.5,17.3v5.6
			c-0.1,3.2-0.3,7.8-0.7,13.9l-0.4,6.9l-0.2,6.9l-0.2,4.8l-0.2,4.8c0,3.7,0.2,6.9,0.7,9.7c0.2,1.7,0.5,3.9,0.7,6.5l0.3,3.4l0.3,3.4
			c-0.9-0.3-1.6-0.9-2.1-1.8c-0.1-0.4-0.2-0.9-0.3-1.4l-0.3-1.2c-1-6.1-1.6-11.4-1.6-15.9v-10.9c0.6-8.1,0.9-17.9,0.9-29.6v-41.5
			l0.2-3.8l0.2-3.8c0.1-3.2,0.2-5.7,0.2-7.5c0-6.7-0.2-14.2-0.7-22.4c0-1.1-0.2-2.2-0.5-3.6l-0.3-1.6l-0.5-1.8
			c-1.2-4.4-1.7-8.3-1.7-11.9v-1.8c0.1-0.9,0.2-1.9,0.2-2.8c0-3.3-0.5-7-1.6-11.1l0.7-0.6l0.7-0.6c0.6-0.5,1.2-1,1.7-1.4
			c-1.7-0.9-3.9-2.1-6.6-3.6l-6.4-3.4l-0.5-1.6l-0.5-1.6l1.2-4.2l0.5-2l0.7-2.2l-5.7-5.4l-3.6-3.4l-3.5-3.6c-2-1.9-3.1-4-3.3-6.4
			c0-0.4-0.1-1-0.3-1.8l-0.5-0.8l-0.3-1c0.9-1.9,1.9-3.6,2.8-5.2c0.6-0.3,1.1-0.4,1.6-0.4h0.5l1.9,0.6c2.9,0.4,6.1,2.2,9.5,5.4
			l6.2,5.6l6.1,5.7c4.6,4.4,8.6,8.5,11.8,12.3c4.5,5.2,9.9,8.9,16.1,11.3c6.4,2.5,13.8,5.6,22.2,9.1c1.5,0.7,2.9,1,4.2,1
			c1.6,0,3.1-0.5,4.3-1.6l0.5-0.6l0.7-0.2c0.7-0.1,1.3-0.2,1.9-0.2c2.1,0,4,0.5,5.7,1.6c2,1.1,4.2,2.2,6.8,3.4l3.5,1.6l3.5,1.6
			c3.2,1.5,6.6,4.7,10.1,9.7l6.1,1.4c1.5-2,3.4-4.5,5.7-7.5l3-3.8l2.9-3.8c0.5,1.2,0.7,2.6,0.7,4.2v1l-0.2,1.2l-0.2,1.2l-0.3,2.4
			c-0.3,2.8-0.7,5.8-1,8.9c0.8,1.9,1.7,4,2.8,6.4C697.5,86.4,696.7,87.6,695.7,89z M594.1,115c0-0.8-0.1-1.6-0.2-2.4l-0.2-1.6
			l-0.4-1.8c-0.2-1.5-0.4-2.6-0.5-3.4l-0.2,3.4v3.6c0,2.5,0.2,4.8,0.5,6.9C593.8,118.3,594.1,116.7,594.1,115z M600,60.6
			c-1.7-1.7-3.9-3-6.6-3.8c0.4,4.5,0.8,10.8,1.2,19c1.2-1.7,1.8-3,1.9-4l0.3-4.6L597,65l0.3-2.2c0.3-0.4,0.7-0.8,1.2-1.2L600,60.6z
			 M619.9,119.9l0.9,1l0.9,1c1,0.9,2.2,1.4,3.5,1.4c0.5,0,0.9-0.1,1.4-0.2c0.5-1.5,0.7-3.6,0.7-6.4c0-4.1-0.5-9.6-1.6-16.7
			c-1.6-11.4-3.7-20.2-6.2-26.6l-7.5-3.2c-0.1,0.7-0.2,1.6-0.2,2.8c0,3.8,0.6,10.1,1.7,18.7c1.5,11.4,3.1,20.1,4.7,26.2
			C618.7,118.3,619.2,119,619.9,119.9z M612.3,103l0.5,5l0.5,5c0,0.1,0.4,0.7,1.2,1.6v-0.8c0-1.6-0.2-3.3-0.7-5.2l-0.7-2.8
			L612.3,103z M653.9,81l-9-2.8l-9-2.6c-0.6,0.7-1,1.3-1.4,1.8c-0.9,0-1.9-0.2-2.9-0.6l-1.4-0.8l-1.4-0.6c-1.9-1.1-3.5-1.6-4.9-1.6
			c-0.3,0-0.7,0.1-1,0.2l1.2,5.9l1.4,5.9c1,4.8,1.8,8.7,2.3,11.9c0.5,3.3,0.9,7.3,1.2,12.1l0.5,6.4c0.1,2.5,0.2,4.6,0.4,6.4l3.5-1.2
			l3.5-1.2c2.5-0.9,4.7-1.8,6.6-2.6c5.8-2.5,10.6-5.9,14.6-10.1c2-2.1,4.2-4.7,6.8-7.7l6.8-7.7c0.2-0.3,0.5-0.7,0.9-1.2l0.3-0.6
			l0.3-0.6c-2.9-7.3-7.1-11-12.7-11.3C657.5,79.6,655.3,80.5,653.9,81z"/>
		<path class="st0" d="M679.3,197.1c3.7-1.9,6.7-3.6,9.1-4.9l0.1-0.1c1.4-0.6,2.6-1.1,3.6-1.6c0.1,0,0.2-0.1,0.3-0.3
			c0.3,0.2,0.5,0.3,0.7,0.3l6.1,0.3c2.3,0.2,4.3,0.3,6.1,0.3c1,0,2.3-0.1,4-0.1l2.1-0.3h1.9l11.7-0.4l11.7-0.4c1,0,2.3-0.1,4-0.3
			l1.9-0.1l2.1-0.1c-0.2-0.4-0.4-0.8-0.7-1.3l-0.4-0.6l-0.4-0.6c-0.6-0.9-1-1.7-1-2.6l0.7-1.3l0.7-1.3c0.5-1.1,1-1.7,1.5-2
			c0.4-0.2,0.9-0.3,1.7-0.3h0.8l3.7,0.3l3.7,0.4c1.6,0.3,3.5,0.6,5.8,0.9l2.9,0.4c1.3,0.2,2.3,0.4,3.2,0.6c0.6-0.2,1.2-0.4,2.1-0.7
			l1.2-0.3l1.1-0.3c1.8-0.6,3.3-1.4,4.4-2.3c0.2-1,0.5-2.2,0.8-3.8l0.7-3.8c0.6-2.5,0.8-4.7,0.8-6.6v-0.7h-0.8l-0.8,0.1
			c-0.6,0-1.1,0.1-1.5,0.3c-0.8,0.4-1.6,0.6-2.3,0.6c-1.6,0-2.9-0.8-4.1-2.3c-1,0.1-1.9,0.1-2.8,0.1c-1.6,0-2.9-0.1-4-0.4
			c-4.5-1.1-8.4-3-11.6-5.8c-1.7-1.5-2.6-3.8-2.9-6.8c2.5,0.1,4.5,0.2,5.9,0.4l-2.5-2.7l-2.3-2.6c-1.8-2-3.4-3.7-4.7-5.1
			c-1.3-1.3-2.5-2.6-3.6-3.9c2.8,1.7,5.7,3.3,8.8,4.8c4.4,4.7,8,8.8,10.6,12.3c0.2,0.3,0.5,0.6,0.8,1l1.2,1.4
			c3.1-3.3,6.6-6.9,10.3-10.8l-0.1,0.7v0.1c0,0.1,0.1,0.2,0.1,0.3h0.4c1.6-1.2,2.7-2.8,3.4-4.8v-0.1c0-0.1,0-0.2-0.1-0.3h0.3
			l2.6-2.9c1.1-1.2,2.1-2.1,2.9-2.9c1.8-1.7,3-4,3.4-6.9c0.6-4,1.3-7.3,2.1-9.8c0.9-3,1.5-5.3,1.8-6.8c1.4-8.1,2.2-15.3,2.3-21.7
			v-1.6c0.1-0.7,0.4-1.2,1-1.6h1.1l1.4-0.1c0.1-0.5,0.1-0.9,0.1-1.3c0-0.7-0.1-1.3-0.3-1.9l-3.7,2l-3.6,2c-0.5,0.2-0.9,0.5-1.4,0.9
			l-1.4,1.2l-1.7,1.3L781,91l-5.8,4.5c-2.3,1.7-4.2,3.2-5.7,4.5c-5.2,4.1-11.2,7.6-17.8,10.4c-0.6,0.2-1.2,0.4-2.1,0.6l-1.1,0.1
			l-1.1,0.1c-0.8-1-2-2.4-3.6-4.2c-0.4-0.4-0.8-0.7-1.4-1l-0.8-0.3l-0.8-0.3c-1.5-0.4-2.5-1.1-3-2c2.9-1.9,5.3-2.9,7.4-2.9h0.3
			c0.6,0,1.3-0.1,2.3-0.4l1.1-0.4l1.1-0.4c-0.6-0.4-1.1-0.6-1.8-0.6l-3.4,0.3c-1.4,0.2-2.5,0.3-3.3,0.3c-1.3,0-2.9-0.1-4.8-0.1
			l-2.5-0.1l-2.3-0.1c-4.7-0.2-10.1-0.9-16.3-2.2c-3.4-0.7-6.3-1.8-8.6-3.5c-3.6-2.4-7.5-6.7-11.9-12.9l-0.6-1.6
			c2.9,0.9,4.9,1.8,6.2,2.7c2,1.4,4,2.2,5.8,2.2h0.6c0.3,0,0.6,0.1,1,0.1l0.8,0.3l3.3,0.9l3.3,0.9c4.7,1.4,10.2,2.4,16.5,2.9
			c2.8,0.2,5.3,0.3,7.7,0.3c4.1,0,7.9-0.3,11.3-0.9c6.9-1.3,13.3-3,19.3-5.3c3.8-1.4,7-3.6,9.6-6.5s5.5-5.7,8.8-8.5
			c4-3.5,7.7-5.2,11.2-5.2c0.6,0,1.2,0.1,1.8,0.1h0.4v-0.1c0.3-0.1,0.6-0.3,0.8-0.6l0.3-0.4l0.3-0.4c0.5-0.7,1-1,1.5-1h0.3
			c0.3,1,0.4,2,0.4,3.2c0,0.6,0,1.3-0.1,2s-0.2,1.5-0.4,2.6l-0.4,1.3l-0.3,1.3c0.5,0.2,1.2,0.5,2.2,0.9l0.4-0.6l0.3-0.6
			c0.3-0.4,0.5-0.7,0.6-1l1.7-4.6l1.8-4.8c2.8-7.3,6.3-13.1,10.6-17.2c1.6-1.5,3.1-2.5,4.7-2.9c0.6,0.3,1.1,0.5,1.8,0.7l0.8,0.4
			l0.7,0.3c1.2-1,2.4-2,3.7-3l1.8-1.4l1.7-1.4c-0.2,1.3-0.7,2.5-1.5,3.8l-1.2,1.6c-0.6,0.7-0.9,1.2-1.1,1.6l-0.1,0.4v1.2
			c-0.1,0.2-0.2,0.5-0.4,0.9l-0.4,0.9c-1.6,0.2-3,1.1-4.3,2.6l-1.4,1.7c-0.6,0.7-1,1.3-1.4,1.7c-2.8,4-4.7,7.9-5.8,11.7
			c6.7-5.7,11.6-10.4,14.6-14.2c3-3.7,6.2-9.4,9.5-17.3c0.3,0,0.6,0.1,0.8,0.3h0.4l0.4,0.1l-0.1,0.7l-0.1,0.7
			c-0.2,0.5-0.3,0.9-0.4,1.2c-2.4,6.8-5.9,12.9-10.6,18.2c-3.8,4.1-8.4,8.3-13.9,12.4c-1.7,1.4-3,3.1-3.7,5.2l-3,9.5
			c-1.4,4-2.5,7.3-3.3,9.7c-1.5,4.6-3.3,10.7-5.4,18.2l-2.6,9.1c-0.9,3.6-1.8,6.6-2.6,9.1c-0.1,0.2-0.2,0.5-0.3,0.9l-0.1,0.6
			c-0.1,0.3-0.1,0.5-0.1,0.7c0.9-0.5,1.4-0.7,1.5-0.7l6.5-4.6c2.6-1.8,4.8-3.3,6.6-4.5c1.7-1.2,3.4-1.9,5.4-2.2
			c4-0.7,7.6-1.4,10.9-2.2c0.2-0.1,0.4-0.1,0.6-0.1c0.5,0,0.7,0.2,0.8,0.6l-1.5,1.7l-1.5,1.6c-1.1,1.4-2,2.6-2.6,3.6
			c-1.3,2.2-3.8,4.5-7.4,6.9l-1.2,0.9l-1.2,0.9c-1,0.6-1.8,1.2-2.5,1.7c-3.6,2.8-6.8,5.4-9.5,7.8c-1.2,1.1-2.6,2.4-4.3,3.9l-4.4,4
			c-1,1-1.5,2.2-1.5,3.6v0.7l0.3,2.9c0.1,1.2,0.1,2.1,0.1,2.9c0.1,4,0.6,8.4,1.4,13c0.9,4.7,2.2,8.1,3.7,10.3
			c0.4,0.5,0.9,1.1,1.5,1.9l0.7,0.9l1,1v0.4c0,1.1-0.3,2.3-0.8,3.8l-0.3,0.9l-0.4,1c-0.3,0.8-0.5,1.4-0.6,2h-0.7
			c-1.5,0-2.6-0.2-3.4-0.7c-1.3-0.8-2.7-1.2-4.1-1.2c-0.6,0-1.1,0.1-1.7,0.1l1.4,1.4c0.5,0.5,0.9,1,1.2,1.4c0.8,1.1,1.4,2.1,1.8,3.2
			l-0.4,0.6l-0.4,0.4c-2.4-0.8-4.4-1.4-5.9-1.9l-0.8,2.3c-0.4,0.9-0.7,1.6-1,2.2c-0.7,1.4-1.9,2.5-3.4,3.3l-7.6-2.5l-7.7-2.5
			l-1.4-0.4l-1.4-0.6c-1.1-0.4-2.1-0.6-2.9-0.6c-2.4-0.2-4.6-0.3-6.6-0.3c-3.7,0-6.8,0.3-9.2,1c-6.4,1.6-11.4,2.7-15,3.2
			c-2.7,0.4-5.4,0.6-8.3,0.6c-2,0-4.1-0.1-6.3-0.3c-1.7-0.1-3.7-0.4-6.1-1l-1.4-0.3l-1.4-0.4c-1.2-0.3-2.1-0.5-2.8-0.6
			c-0.4,0.1-0.8,0.1-1.2,0.1l-0.6,0.1l-0.6,0.1c-0.7,0.1-1.3,0.2-1.8,0.4c-2.2,1.2-4.6,1.7-7.3,1.7c-1.5,0-3-0.2-4.5-0.6h-1
			l-0.8,0.1l-2.2,0.1l-2.2,0.3c-0.9-1.3-1.6-2.3-2.1-3c-0.2-0.1-0.4-0.1-0.7-0.1l-0.3-0.1h-0.3c-0.6-0.2-1-0.5-1.1-1L679.3,197.1z
			 M790.4,175.1l-0.3-2.8c-0.3-2.3-0.5-4.3-0.7-5.9c-0.7,4.5-1.3,8-1.8,10.4c0.3,0.1,0.6,0.2,0.8,0.4l0.7,0.4c0.4,0.2,0.7,0.3,1,0.3
			c0.2,0,0.4-0.1,0.6-0.1L790.4,175.1z M787.8,187.2L787.8,187.2c-0.5,0-1,0.2-1.8,0.7c0.9,0.6,1.6,0.9,1.9,0.9h2.2
			C789,187.9,788.2,187.3,787.8,187.2z M774.7,140.5c-0.6,1.2-1.2,2.2-2.1,3c0.1-0.7,0.1-1.3,0.1-1.9v-0.9
			C773.3,140.7,773.9,140.6,774.7,140.5z"/>
		<path class="st0" d="M865.3,125.1l0.7,0.9l0.7,0.7c0.6,0.8,1.2,1.4,1.7,2c3.1,1.3,5,3.6,5.5,7.1c0.3,1.2,0.7,2.4,1.2,3.8l0.8,1.9
			l1,1.7c0.3,0.6,0.7,1.4,1.2,2.3l0.7,1.2l0.7,1.2c0.1-0.4,0.1-0.8,0.1-1.2c0-0.7-0.1-1.4-0.4-2.2l-2.5-7.5l-2.3-7.5l-0.3-0.9
			l0.3-0.9c0.1-0.3,0.2-0.6,0.3-0.9l-1.4-2.9l-1.4-3l-2.9-6.2l0.4,0.1l0.4,0.3c0.2,0.1,0.3,0.2,0.4,0.3c2.7,2.7,4.8,6.5,6.3,11.4
			c0.6,2,1.5,4.8,2.5,8.4l2.5,8.4c1.1,3.7,2.2,7,3.3,10c0.7,1.8,1.6,4,2.5,6.4l2.6,6.2c0,0.1,0.3,0.5,0.8,1.2c0-0.7,0-1.5,0.1-2.5
			l0.3-2.3c0.2-1.7,0.3-3.2,0.4-4.3l0.6-5.8l0.6-5.9l0.4-3.9l0.3-3.8l0.7-6.5l0.7-6.5l0.3-1.6l0.3-1.6c0.3-1.4,0.5-2.4,0.6-3.2v-1.7
			l-0.1-1c-0.1-0.5-0.1-0.9-0.1-1.2c0.6-0.6,1-1.5,1.2-2.7c0.1-0.4,0.2-1,0.3-1.7l0.4-1.7l1.7-7.8l1.8-8l0.7-2.7
			c0.2-1.2,0.3-2.1,0.4-2.9c0.3-3,0.5-6.4,0.7-10.1l0.4-10l0.3-9.8l0.3-7.1c0.1-2.7,0.2-5,0.4-6.9l0.3-3.2l0.4-3.2
			c0.3-2.4,0.8-4.5,1.5-6.2l0.4-0.1h0.7c0.3,0.4,0.4,0.9,0.4,1.6c0,0.3-0.1,0.7-0.1,1.2l-0.3,0.6l-0.1,0.7v1.3
			c0.1,0.2,0.3,0.4,0.6,0.6l0.3,0.3l0.3,0.3V41c1.1,0.1,2.8,0.3,5,0.7c1.1-0.4,2.1-0.6,3-0.6c1.7,0,3.2,0.7,4.4,2.2v3l0.1,3.2
			c0,2.4-0.2,4.4-0.6,6.1c-0.3,1.5-0.5,3.6-0.7,6.1l-0.4,2.9l-0.3,3l-0.8,6.1l-1,6.1l-1,7.1l-1,7.1l-1,5.3l-0.8,5.5
			c-0.1,0.9-0.2,2.1-0.4,3.6l-0.3,3.8l-0.6,4l-0.6,4v0.7l-0.1,0.9l-0.3,3.5l-0.3,3.6c-0.3,3.6-0.5,7.7-0.7,12.3l-0.1,3.8l-0.1,3.6
			c-0.1,2.9-0.3,5.3-0.6,7.4c-0.2,1.3-0.3,3-0.3,5.2l-0.1,2.6l-0.1,2.5c0,0.5-0.1,1.1-0.1,1.7l-0.1,0.9l-0.1,0.9
			c0,0.2,0.1,0.5,0.3,0.9l0.3,0.6l0.3,0.6l0.3-1.2l0.1-5.2l0.1-5.1c0.1-4.1,0.3-7.6,0.6-10.3c0-1,0-2.1,0.1-3.3v-3.3
			c0.1-2.7,0.4-4.9,0.8-6.6c0.1-0.2,0.1-0.4,0.1-0.7v-0.9c0-2.8,0.4-6.9,1.1-12.3l0.3-2l0.1-2.2c0.1-1.8,0.2-3.2,0.4-4.2
			c0.4-2.2,0.8-4.7,1.2-7.4l1.5-7.5c0.4-2,0.9-4.3,1.5-6.9c0.3-1.1,0.8-2,1.7-2.8l0.1,0.4v0.4c0.1,0.2,0.1,0.3,0.1,0.4
			c0,0.2-0.1,0.3-0.1,0.4c-0.9,2.9-1.7,6.2-2.5,9.8l-0.8,5.1l-0.8,4.9c-0.3,1.9-0.6,4.2-0.8,6.8l-0.3,3.5l-0.4,3.3l-1.7,18.2v0.3
			l-0.7,24.9v0.4c0,0.5,0.1,1.1,0.3,1.9c0.6-4.1,1.3-9,1.9-14.5l0.8-7.2l0.8-7.4c1.5-12.5,2.8-22.4,4-29.6c0.5,1,0.7,1.6,0.7,1.9
			c-0.4,1.7-0.7,3.9-1,6.5l-0.8,6.5l-0.4,3.6l-0.6,3.5c-0.4,2.1-0.6,4.1-0.8,6.1l-0.3,4c-0.2,1.7-0.3,3.1-0.4,4l-0.8,6.1l-0.8,6.1
			l-0.4,2.7l-0.3,2.8l-1.2,8.8l-1.2,8.8c-0.3,1.7-0.5,4.1-0.7,7.1c-0.4,5.4-0.6,9.5-0.7,12.4c0,1,0.2,2.1,0.7,3.5
			c0.3,0.9,0.4,1.8,0.4,2.9c0,0.5-0.1,1-0.1,1.6c-0.4-0.1-0.8-0.2-1.4-0.3l-0.3,0.7l-0.3,0.9c-0.2,0.6-0.3,1.1-0.3,1.4v0.9
			c0,1.3-0.1,2.7-0.4,4.2l-1.1,4.9c-0.7,4-1.1,7.3-1.1,9.8c0,0.8,0,1.5,0.1,2.2l0.8-0.1c0.3-0.1,0.6-0.1,0.8-0.1l0.4,0.4l0.3,0.7
			c0.3,0.5,0.6,0.9,0.8,1.3l-1,1l-0.4,0.4l1.9,5.1l2.1,5.1c0.2,0.6,0.3,1.3,0.3,2.2c0,0.6-0.1,1.2-0.1,1.9c-0.5,0-0.8-0.2-1.1-0.6
			c0-0.1-0.1-0.3-0.1-0.6l-0.1-0.3v-0.3c-0.5-1-1-2.2-1.7-3.8l-1.4-3.8c-0.6-1.4-1.5-2.1-2.6-2.3l-0.7,4.1l-0.7,4l-0.3,2.2l-0.4,2
			l-0.8,4l-0.8,4.2c-0.2,1-0.5,2.1-0.8,3.5l-0.8,3.5c-0.6,2.7-1,5-1.1,6.9c0,0.1-0.4,1.1-1.2,2.9l-0.6-2v-6.2c0-1.9-0.1-4.1-0.3-6.4
			l-0.4-4.2l-0.6-4V256c0-0.2-0.1-0.3-0.1-0.3c-0.6-1.4-1-3.2-1.1-5.4V245c0-5.1,0-9.9,0.1-14.3v-1.3l0.1-1.2
			c0.1-0.7,0.1-1.3,0.1-1.7v-0.7c0-0.8-0.1-1.7-0.1-2.9l-0.4-3.2c-0.2-0.1-0.5-0.3-1-0.7l-0.6-0.4l-0.7-0.6l-0.3-0.9l-0.1-0.9
			c-0.1-0.9-0.2-1.5-0.4-2l-0.3-1.2l-0.4-1.2c-0.3-0.9-0.6-1.6-1-2.2c-0.7-1.3-1.7-2.7-2.8-4.3l-2.8-4.3l-0.7-0.9l-0.6-1
			c-0.5-0.8-0.9-1.4-1.2-1.9l-4-5.1c-1.6-1.8-3-3.5-4.3-4.9c-2.2-2.3-4-4.7-5.4-7.1c-5.6-9.6-9.9-17.1-12.8-22.3
			c-1.6-2.7-3.5-6.2-5.8-10.4L843,137c-0.1-0.3-0.3-0.6-0.7-1l-0.4-0.6l-0.4-0.7l-0.3,0.6l-0.3,0.6c-0.1,0.4-0.2,0.7-0.3,1
			c-0.4,4.1-0.7,8.7-1.1,13.9v8.8c0,2.2-0.1,4.1-0.1,5.6c-0.1,1.4-0.3,3.3-0.6,5.5l-0.3,2.7l-0.3,2.7v0.6l-0.7,12.4l-0.7,9.8
			c-0.3,3.8-0.6,7-1.1,9.8c-0.1,0.7-0.1,1.5-0.1,2.5l0.1,2.3c-0.7,0.6-1.5,0.9-2.3,0.9c-0.6,0-1.3-0.2-1.9-0.6l-1-8.7h-0.4l-0.1,2.5
			v3.3l-0.4,2.9l-0.1,1.6v1.6l-0.1,1.4v1.3c-0.6,0.5-1.1,0.7-1.7,0.7h-0.3c-0.3,0-0.6-0.1-1-0.1l-0.8-0.3l-1.1,0.4l-1.2,0.6
			c-0.4-0.1-1.2-0.3-2.5-0.7l-0.1-0.6l-0.1-0.4c-0.2-0.4-0.3-0.7-0.4-1l-0.1-1.9l-0.1-1.9c-0.1-1.5-0.2-2.8-0.4-3.8
			c-0.2-0.7-0.3-1.6-0.4-2.9l-0.1-1.6L819,205c-0.3-2.4-0.9-4.4-1.8-5.9l0.1-1.6l0.1-1.6l0.3-3.3l0.3-3.5l0.1-3.3l0.1-0.9v-0.7
			l0.1-28.6v-0.9l-0.1-1l-0.6-0.9l-0.3-0.4L817,152v-7.7c0.1-1.3,0.1-2.4,0.1-3.3c0-1.1-0.1-2-0.1-2.8l-0.3-4.3l-0.4-4.3
			c-0.2-2.7-0.3-5-0.3-6.9v-1.9c0-2.6-0.6-5.3-1.7-8c-0.5-1.1-1-2.3-1.7-3.6l-2.1-3.5c-5.6-9.6-9.5-18.6-11.7-26.7l-0.1-0.1v-0.3
			c-0.2-0.3-0.3-0.5-0.3-0.6v-0.3c0-0.4,0.2-0.7,0.7-1c0.5,0.3,0.8,0.7,1,1.3l0.3,0.7l0.3,0.9c1.9,6.6,4.5,12.9,7.9,19.1
			c0.8,1.7,2,3.8,3.4,6.2l1.8,3.2l1.8,3.3v-1l0.1-0.9v-4l0.1-2.6c0-2.1,0.1-3.9,0.3-5.2c0.4-2.4,1.2-4.9,2.5-7.5l0.8,0.3
			c0.3,0.1,0.6,0.2,0.8,0.3c-0.5,1.3-0.7,2.6-0.7,3.9c0,0.7,0,1.4,0.1,2.2s0.3,1.7,0.6,2.9l0.4,1.4l0.4,1.4l0.6-7.2l-0.6-2
			c-0.3-0.9-0.5-1.5-0.6-2c0.6-1.2,1.6-2.4,2.9-3.8l1.7-1.4c0.6-0.7,1.1-1.2,1.5-1.6h2.2l4.5,5.9l2.2,2.9l2.2,2.9
			c0.6-0.1,1.1-0.5,1.5-1.2l0.3-0.3l0.1-0.4c0.2-0.3,0.4-0.5,0.6-0.7c-0.2-0.6-0.5-1.4-0.8-2.3l0.6-0.4c0.1-0.2,0.2-0.3,0.4-0.4
			c0.5-0.1,0.9-0.1,1.4-0.1c1.5,0,2.8,0.4,4,1.3c1.7,1.3,2.7,2.8,2.9,4.8v0.6c0,0.5-0.1,1-0.1,1.6l-0.3,1l-0.3,1.2l-0.1,0.7
			l-0.3,0.9l-0.4,2.9l-0.1,1.4l-0.3,1.6c7.4,9.9,14.3,20.9,20.8,32.8c0.5-0.7,0.7-1.4,0.7-2.2c0-0.2-0.1-0.4-0.1-0.7l-0.1-0.6
			l-0.1-0.6c-0.2-0.5-0.3-0.9-0.3-1.3c0.1-0.7,0.1-1.5,0.1-2.5V131c-0.4-0.9-0.8-1.9-1.4-3.2l-1.2-2.9L865.3,125.1L865.3,125.1z
			 M821.8,116.4c0-3-0.4-5.8-1.1-8.5c-0.3-1.2-0.6-2.7-1-4.5l-1-4.3c-0.6,0.7-0.8,1.4-0.8,2.3v5.9l-0.1,5.8c0,2.3,1.1,5.5,3.4,9.5
			C821.6,120.5,821.8,118.4,821.8,116.4z M818.5,125.1c0,1.6,0.3,2.9,0.8,3.8c0.4-1.3,0.6-2.3,0.6-3.2v-0.4c-0.1-1-0.5-2.1-1.1-3.3
			C818.5,123.1,818.5,124.1,818.5,125.1z M831.1,183.2h0.3l0.1-1.2v-2l-0.1-1l-0.3,0.1V183.2z M874.7,142.4v9.4l1.8,2.9
			c0.7,1.2,1.4,2.1,1.9,2.9c1.5,2.2,3,4.1,4.5,5.8c-0.4-3.7-1.3-7.4-2.9-11.3c-0.6-1.4-1.4-3.1-2.3-5.1l-1.2-2.5l-1.1-2.5
			L874.7,142.4z M890.3,174.1l0.1-0.7v-0.9c0-1.2-0.1-2.1-0.4-2.9l-2.5-5.5l-2.5-5.5c1.5,5.7,3,10.6,4.5,14.9
			c-0.2,0.9-0.3,1.4-0.3,1.4l1,0.9L890.3,174.1L890.3,174.1z M895.5,141.1l0.3-0.1v-3.9h-0.3V141.1z M896.1,135.9h0.4v-4.1h-0.4
			V135.9z"/>
		<path class="st0" d="M949.2,78.2l1,0.9c0.6,0.7,1.2,1.3,1.7,1.7l1,0.1l1,0.1l1,1.2l1,1.2c0.8,0.9,1.4,1.7,1.8,2.5
			c1.8,3.2,3.9,7.2,6.1,12c0.3,0.6,0.4,1.2,0.4,1.7s-0.1,1-0.3,1.4c-0.2,0.7-0.3,1.4-0.3,2c0,0.7,0.1,1.3,0.4,1.9
			c0.4,0.3,0.8,0.6,1.4,1l1.1,1c0.9,0.8,1.7,1.4,2.2,1.9l0.7,0.7c0.3,0.3,0.5,0.5,0.7,0.6l4.3,2.6l4.4,2.6l1.7,1.2l1.7,1.2l1.2,0.6
			l1.2,0.6l0.7,0.3l0.6,0.3c0.6,0.2,1,0.4,1.2,0.7c3.2,2.4,5.4,4.9,6.6,7.5c0.4,0.8,0.8,1.7,1.4,2.8l1.4,2.6l1.8,0.3
			c0.6,0.1,1.2,0.1,1.7,0.1c-0.2,0.8-0.3,1.5-0.3,2.3c0,0.9,0.1,1.7,0.3,2.6c0.1,0.7,0.3,1.4,0.6,2.3l0.6,2.3
			c1.7,6.5,2.7,11.7,2.8,15.6v1.7c0,1.2-0.1,2.6-0.1,4.2l-0.1,2.9l-0.1,3c0.6-0.2,1.1-0.3,1.5-0.4l0.1,0.1l0.1,0.1v0.3
			c-1,1.6-1.6,3.3-1.7,5.1c0,1.4-0.5,2.9-1.4,4.3c-0.6,1.1-1.5,2.4-2.5,3.9l-0.7,1l-0.7,1.2c-0.6,0.9-1,1.6-1.4,2.2
			c-1,0.7-1.9,1.7-2.8,3.2c-0.4,0.6-0.7,1.2-1.1,1.9l-0.8,2l-1.5,1.2l-1.2,1.2c-1.2,0.9-2.1,1.5-2.6,2c1,0,2-0.4,3-1.2l1.2-1l1.2-1
			c0.6-0.5,1.4-1.1,2.3-1.9l1.2-1.2l1.2-1.3v0.7l0.1,0.6v1c-0.3,0.8-0.6,1.6-1.1,2.6l-1,2.6c-0.7,1.7-2.4,3.4-5.1,5.1
			c-4.6,2.8-9.3,4.2-14.2,4.2c-1.5,0-2.9-0.1-4.4-0.4c-0.4-0.1-0.8-0.1-1.2-0.1c-0.5,0-1,0.1-1.5,0.1c-0.8,0.1-1.7,0.1-2.6,0.1
			c-2.6,0-5.5-0.5-8.7-1.4c-5.3-1.7-10.6-4.6-15.9-8.7c-2.6-2-4.6-3.8-6.2-5.3c-5.2-4.9-10-11.9-14.2-21.1c-0.6-1.4-1.1-3-1.2-5.1
			c-0.5-4.5-1.4-8.7-2.8-12.6l-0.6-1.2c-0.2-0.5-0.3-0.9-0.4-1.2c-0.1-0.5-0.1-1-0.1-1.4c0-0.5,0.1-0.9,0.1-1.3
			c0.6,0.1,1,0.5,1.4,1.2l0.4,0.7c0.2,0.4,0.4,0.6,0.6,0.7c0.3,0.4,0.6,0.9,1.1,1.4l0.4,0.7l0.6,0.7c0.4,0.4,0.8,0.9,1.2,1.4
			l0.7,0.7l0.7,0.9c0.2-0.6,0.3-1.2,0.3-1.7c0-0.6-0.1-1.2-0.3-1.9c-1.1-3.8-1.7-8.4-1.7-13.9c0-2.4,0.1-5,0.3-7.8
			c0.5-5.5,1.7-11,3.6-16.6l0.1-0.4l0.1-0.3c0.1-0.4,0.2-0.6,0.3-0.7c0.9-1,1.8-2.4,2.6-4.3l0.8-2.3c0.4-0.9,0.7-1.6,1.1-2.2
			l0.6-0.6h0.4l0.6,0.1c0.5,0.1,0.9,0.1,1.2,0.1c-1,1-1.8,2.1-2.3,3.3c-0.4,0.9-0.7,2.1-1.1,3.6c0.4,0.6,0.9,1,1.7,1.2l1,0.1
			c0.4,0.1,0.6,0.1,0.8,0.1c0.7,0.8,1.6,1.6,2.6,2.5l1.2,1l1.2,1.2c-1.5,4.1-2.5,8.2-3,12.1c-0.7,6.1-1.1,10.6-1.1,13.6
			c0.1,4.7,1.1,9.4,3.2,14.2c3.9,9.2,8.6,17.1,14.3,23.9c2.8,3.5,5.6,6.6,8.3,9.4c0.6,0.5,1.3,1.1,2.2,1.9l1.2,0.9l1.4,0.9
			c0.4-0.5,0.7-1.1,1-1.7l0.3-1l0.3-1c0.4-1.6,0.9-2.8,1.5-3.6h4.8c2.9-1.8,5-4.7,6.5-8.7c0.7-2.1,1.4-4.6,2.1-7.4l1-3.6l0.7-3.8
			c0.4-1.7,0.6-3.2,0.7-4.5v-1.3c0-3.3-0.9-6.8-2.8-10.6c-1-2-2.3-4.5-4-7.4l-2.1-3.6l-2.1-3.6L971,131l-1.5-2.5c-1.2-2-2.9-3-5-3
			c-0.5,0-0.9,0.1-1.4,0.1l-1.4,0.3l-1.4,0.4l-3.2-3.9l-3.2-3.9l-6.2-7.7l-1.5-1.7l-1.5-1.9c-1.3-1.4-2.3-2.6-3-3.5
			c-3-3.9-5.3-6.9-6.8-9.3c-1.3-2.1-1.9-4.1-1.9-5.9c0-0.6,0-1.2,0.1-1.7c0.1-0.3,0.1-0.6,0.1-1v-1.3c0.7-0.7,1.4-1.3,1.9-1.7
			l-1-6.9l-1-7.1h-1L932,69h-0.6l0.1-0.6l0.3-0.4l0.3-0.7l0.3-0.7l0.3-0.4l0.1-0.4l-0.1-0.4l-0.1-0.6c-0.1-0.4-0.2-0.7-0.3-1
			c-1-2.5-1.6-5.8-1.8-9.8v-2.3c0-2.3,0.2-4.9,0.6-7.8c0.1-0.7,0.4-1.5,0.8-2.5l1.2-2.5c1.2-0.7,3.1-1.1,5.6-1.3l1.5-0.1l1.7-0.1
			c1.2-0.2,2.3-0.5,3.3-0.9c1.9-1.4,4.5-2.2,7.7-2.2c1.9,0,4.1,0.2,6.5,0.7c4.5,1.1,8.6,2.2,12.3,3.5c4.1,1.4,9.3,4.8,15.4,10.1
			c0.4,0.4,0.8,0.9,1.2,1.4l0.6,0.9l0.4,0.7c1.8,2.8,3.2,5,4.1,6.5c1.2,2.3,2.8,5.4,4.8,9.4c1.6,3.1,2.4,6.1,2.6,9l0.3,3.6l0.3,3.5
			v0.3c0,0.8-0.4,2.1-1.1,3.9c-0.5-0.4-0.7-0.9-0.7-1.4v-4.5c-1,1-1.7,2-2.2,3.2c-0.4,1.1-1,3.5-1.9,7.2l-0.4-0.1l-0.3-0.1
			c-0.2-0.1-0.3-0.2-0.4-0.3c-0.2-1.1-0.7-2.1-1.5-3.2c-0.4-0.3-0.8-0.7-1.2-1.2l-1.4-1.2v-0.6c0-2.6-0.6-5.2-1.8-7.7
			c-0.8-1.8-2.2-4.1-4.3-6.9l-1-1.3c-0.4-0.5-0.7-0.9-1-1.3c-0.8-0.8-1.7-1.3-2.6-1.4l-0.3-0.1l-0.3-0.1v-0.1l-1.7-0.4l-1.4-0.4
			c-1-0.2-1.9-0.4-2.6-0.6l-7.9-2.5c-3-0.8-5.7-1.2-8-1.3c-0.3,0-0.6-0.1-1.1-0.3l-1.1-0.3c-1.1,0.4-2.2,1.1-3.2,2
			c-0.4,0.4-0.8,0.9-1.2,1.4l-1.2,1.6c-0.6,0.9-1,1.7-1,2.6c0,0.8,0.2,1.5,0.6,2.3l0.6,1l0.4,0.9c-0.5,1.2-1.1,2.7-2.1,4.8
			L949.2,78.2z M955.7,56c-3.9,0-7,1.3-9.5,3.9c0.3,0.9,0.7,2.5,1.2,4.9c0.7-0.9,1.6-1.8,2.5-2.9l1.1-1.3l1.1-1.3l1.5-0.7l1.7-0.7
			c1.3-0.6,2.4-1.1,3.4-1.6C957.7,56.1,956.7,56,955.7,56z M970.6,62l0.3-0.9c-0.6-1.2-1.7-2-3.3-2.6l-1-0.3l-1-0.3
			c-0.8-0.2-1.5-0.4-1.9-0.7c-1.2,0.4-3,0.9-5.5,1.6c1.9,0.5,4,1,6.3,1.6l3,0.9L970.6,62z M971.9,127.5l-0.6,0.3
			c0.6,1.6,1.7,3.6,3.2,5.9l1.8,2.7c0.7,1.1,1.3,2,1.8,2.9l3.2,5.9l3.2,6.1c0.6-0.7,0.8-1.7,0.8-3v-1.6c0.1-0.6,0.2-1.1,0.4-1.6
			l-1.2-1.2l-1.1-1.2c-0.9-0.9-1.6-1.7-2.1-2.5c-0.7-1.2-1.1-2.5-1.1-3.9c0-0.8,0.1-1.6,0.4-2.6L971.9,127.5z M982.7,185.5l-0.6-0.3
			l-2.8,5.2l-2.8,5.2c-0.1,0.1-0.1,0.3-0.1,0.6l0.1,0.3v0.3l1.8-1.3c0.7-0.6,1.3-1.1,1.8-1.6c1.2-1.1,2-2.2,2.5-3.5L982.7,185.5
			L982.7,185.5z M985.3,169c0-1.4-0.2-2.9-0.6-4.5l-0.6,2.5l-0.6,2.3c-0.4,1.8-0.7,3.4-1.1,4.6c-0.8,3.5-1.7,6.5-2.8,9
			C983.5,178.3,985.3,173.7,985.3,169z M988.9,149.2c-0.6,5.8-1.1,10.1-1.7,12.9c-0.2,1-0.3,2-0.3,3c0,2,0.4,4,1.1,6.1
			c2.8-4,4.1-8.7,4.1-14v-1.4c-0.1-2.6-1.1-5-2.9-7.2L988.9,149.2z"/>
	</g>
</g>
</svg>
