<?xml version="1.0" encoding="utf-8"?>
<!-- Generator: Adobe Illustrator 24.0.2, SVG Export Plug-In . SVG Version: 6.00 Build 0)  -->
<svg version="1.1" id="Capa_1" xmlns="http://www.w3.org/2000/svg" xmlns:xlink="http://www.w3.org/1999/xlink" x="0px" y="0px"
	 viewBox="0 0 285.4 148.5" style="enable-background:new 0 0 285.4 148.5;" xml:space="preserve">
<style type="text/css">
	.st0{fill:#E5E528;}
</style>
<path d="M275.3,102.2c-1.1-2-2.5-3.7-4.1-5c0.3-0.6,0.6-1.1,0.8-1.6c0.1-0.1,0.2-0.2,0.2-0.3c2-3,3-5.6,3-8.1c0-3.2-1.5-6.2-4.6-9
	l-2.1-1.7c-1.2-1-2.6-1.8-4.5-2.5c0.1-0.1,0.3-0.3,0.4-0.4c3-3,5.4-6.4,7.1-10c4-6,6-12.9,6-20.4c0-10.3-3.8-19.1-11.2-26.2
	c-7.3-7-16-10.5-25.7-10.5l-14.8-0.1c-6.6,0-11,2.1-13.2,6.3c-0.2,0.4-0.4,0.8-0.6,1.2c-0.3-0.2-0.6-0.5-0.8-0.7
	c-5.8-4.5-12-6.8-18.5-6.8h-17.2c-4.4,0-7.9,1-10.3,2.9c-2.2-1.6-5.4-2.9-10.1-2.9c-4,0-7.3,0.8-9.7,2.4c-0.3-0.2-0.7-0.4-1-0.6
	c-1.7-0.9-3.2-1.4-4.8-1.6c-1-0.1-2.2-0.2-3.8-0.2h-31.4c-4.3,0-7.6,0.9-10.1,2.8c-1.2-0.8-2.6-1.4-4.1-1.9c-7-2.6-11.5-0.8-14,1.2
	c-1.7,1.4-3,2.9-3.8,4.7c-0.2,0.4-0.3,0.8-0.5,1.3C71,15.2,70.4,16,70,17c-0.3,0.6-0.5,1.2-0.9,2.1L68,15.5l-0.1-0.1
	c-0.9-2.3-2.5-4.3-4.9-6.1c-2.6-1.9-5.4-2.9-8.5-2.9c-2.5,0-4.6,0.4-6.5,1.2c-3.7,1.6-6.5,4.5-8,8.4c-0.8,1-1.4,2-2,3.2l-0.8-2.4
	c-0.8-2.7-1.8-4.8-3.1-6.5c-2.2-2.8-5.4-4.3-9.1-4.3c-2.1,0-4.4,0.4-6.8,1.2C11.7,9.4,9.1,13,8.1,16.1c-1.8,2.2-2.8,4.8-2.8,7.6
	c0,1.8,0.4,3.8,1.3,6.5L22,74.4l0.9,1.9c0.8,1.7,2,3.3,3.7,4.7l-0.3,0.7c-0.6,0.8-1.1,1.6-1.5,2.4L6.8,121.2c-1.3,2.7-2,4.9-2,6.9
	c0,2.8,1.1,7.9,8.2,11.4c2.7,1.3,5,2,7.1,2c2.6,0,5-0.8,6.9-2.3c1.4-1,2.4-2.1,3.2-3.4c0.4-0.6,0.8-1.4,1.4-2.6l0.2-0.4
	c0.3-0.3,0.5-0.6,0.7-1c0.2-0.4,0.5-0.8,0.8-1.4h8.1l1.3,2.8c0.5,1,0.9,1.8,1.2,2.3c0.8,1.5,2,2.8,3.5,3.9c1.9,1.4,4.2,2.1,6.8,2.1
	c2.1,0,4.5-0.6,7.1-2c0.3-0.1,0.5-0.3,0.7-0.4c2.1,1.1,4.6,1.6,7.6,1.6c5.9,0,9.9-2,12.1-5.8c0.4-0.7,0.8-1.5,1-2.2
	c0.5-0.5,0.9-1.1,1.2-1.7c0.7-1.2,1.2-2.4,1.4-3.6c1.5,0.6,3.1,0.8,4.7,0.8c2.3,0,4.6-0.6,6.6-1.7v0.4c0,2.4,0.2,4.2,0.7,5.8
	l0.2,0.5c0.8,1.9,1.9,3.5,3.5,4.8c1.2,0.9,2.6,1.6,4.3,2.1c1.5,0.4,3.2,0.7,5.3,0.7c2.1,0,3.9-0.3,5.6-0.8c0.6-0.2,1.3-0.5,2.1-0.9
	c1.8,1,4.4,1.8,7.8,1.8c6,0,10.1-2,12.2-6c0.3-0.5,0.5-1,0.7-1.5c6,5.4,13.1,8.2,21.1,8.2c9.6,0,17.2-2.8,22.5-8.2
	c0.4-0.4,0.8-0.9,1.2-1.4c6.2,6.4,13.9,9.7,22.9,9.7c8.8,0,16.3-3.2,22.3-9.4c1.6,1.9,3.7,3.7,6.5,5.4c1.8,1.2,4.1,2.1,6.7,2.9
	c2.5,0.7,5.2,1.1,8,1.1c5.6,0,11-1.6,15.8-4.8c3-1.9,5.5-4.7,7.3-8.1c0.2-0.4,0.4-0.8,0.6-1.3c0.6-0.8,1.2-1.8,1.6-2.7
	c1.8-3.3,2.6-7.1,2.6-11.3C278,109.2,277.1,105.4,275.3,102.2z M240.7,50.6v-9.9c0.9,0.3,1.7,0.9,2.5,1.7c1.5,1.4,2.1,2.9,2.1,5.1
	c0,0.4,0,0.8-0.1,1.2C243.8,49.9,242.4,50.5,240.7,50.6z M191.3,77c-1.8,1.2-3.4,2.5-4.9,3.9c-0.2,0.2-0.5,0.5-0.7,0.7
	c-0.3-0.4-0.6-0.8-0.9-1.2c0.6-0.7,1.2-1.5,1.6-2.3c0.3-0.6,0.6-1.3,0.9-1.9c0.5-0.6,1-1.3,1.4-2c0.3-0.5,0.5-1.1,0.7-1.6
	C190.3,74.8,190.9,76.1,191.3,77z M204.3,104c0.9-0.6,1.5-0.7,2.1-0.7c0.8,0,1.7,0.2,3.1,1.4c0.7,0.7,1.4,1.6,1.4,4
	c0,0.3,0,0.5,0,0.7c-0.8,0.6-1.5,0.7-2.1,0.7c-0.8,0-1.7-0.2-3-1.5c-0.7-0.7-1.4-1.7-1.4-3.9C204.3,104.4,204.3,104.2,204.3,104z
	 M92.2,88.7l-8.8-11.5l-0.9-1c-0.4-0.4-0.8-0.8-1.2-1.1c0-0.1,0.1-0.2,0.1-0.2c0.6-0.7,1.1-1.4,1.5-2.2c0.4-0.9,0.8-1.7,1-2.4
	l2.9-8.5v7.7c0,2.8,0.3,4.9,0.9,6.6c0.8,2.4,2.9,6.1,8.2,7.6C94.9,85.3,93.6,86.9,92.2,88.7z M58.2,81.2c-0.2,0.3-0.4,0.6-0.6,0.9
	l-0.1,0.1c-0.8,1.5-1.3,3-1.5,4.5c-0.1,0.5-0.1,1.1-0.1,1.8l-4.1-8.4c-0.7-1.4-1.6-2.6-2.6-3.7c0.4-0.7,0.7-1.3,0.9-1.9
	c0.3-0.4,0.6-0.8,0.8-1.2c0.5-0.8,0.9-1.6,1.2-2.3l1.4,4.1l0.2,0.6C54.7,77.8,56.2,79.6,58.2,81.2z"/>
<g>
	<path class="st0" d="M86.5,15.2c3.6,1.3,5.3,3,5.3,5.1c0,0.7-0.3,2-1,3.9L75.6,68.4c-0.1,0.4-0.3,0.8-0.6,1.4s-1,1.2-2.1,2.1
		c-1.1,0.9-2.5,1.3-4.1,1.3s-2.9-0.4-4.1-1.3c-1.1-0.9-1.9-1.7-2.3-2.6l-9.3-27.5c-5.9,17.4-8.9,26.3-9,26.6s-0.3,0.8-0.7,1.4
		c-0.4,0.6-0.8,1.1-1.3,1.6c-1.2,1.2-2.7,1.8-4.4,1.8s-3.1-0.4-4.2-1.2c-1.1-0.8-1.8-1.6-2.2-2.4l-0.6-1.2L15.5,24.2
		c-0.6-1.8-0.9-3.1-0.9-3.9c0-2.1,1.8-3.8,5.3-5c1.5-0.5,2.9-0.8,4.2-0.8c1.3,0,2.2,0.4,2.9,1.3c0.7,0.9,1.3,2.1,1.8,3.9l8.8,26.6
		l8.7-26.2c0.7-2.2,2.1-3.8,4.1-4.6c0.8-0.4,2-0.6,3.3-0.6c1.3,0,2.6,0.4,3.8,1.3c1.2,0.9,1.9,1.7,2.2,2.6l9.2,27.7l8.8-26.8
		c0.4-1.2,0.8-2.1,1-2.7c0.3-0.6,0.8-1.2,1.5-1.7c0.7-0.6,1.6-0.8,2.7-0.8C83.8,14.4,85.1,14.7,86.5,15.2z"/>
	<path class="st0" d="M110.3,59.2h24.6c1.2,0,2.1,0,2.8,0.1c0.6,0.1,1.3,0.3,2.1,0.8c1.4,0.7,2.1,2.8,2.1,6.2c0,3.7-1,5.9-2.9,6.5
		c-0.9,0.3-2.3,0.5-4.1,0.5h-31.6c-3.7,0-5.9-1-6.5-3c-0.3-0.8-0.5-2.2-0.5-4.1V21.9c0-2.7,0.5-4.6,1.5-5.5s2.9-1.5,5.7-1.5h31.4
		c1.2,0,2.1,0,2.8,0.1s1.3,0.3,2.1,0.8c1.4,0.7,2.1,2.8,2.1,6.2c0,3.7-1,5.9-2.9,6.5c-0.9,0.3-2.3,0.5-4.1,0.5h-24.5v8h15.8
		c1.2,0,2.1,0,2.8,0.1c0.6,0.1,1.3,0.3,2.1,0.8c1.4,0.7,2.1,2.8,2.1,6.2c0,3.7-1,5.9-3,6.5c-0.9,0.3-2.3,0.5-4.1,0.5h-15.6
		L110.3,59.2C110.3,59.2,110.3,59.2,110.3,59.2z"/>
	<path class="st0" d="M147.1,21.9c0-1.2,0-2.1,0.1-2.8s0.3-1.3,0.8-2.1c0.7-1.4,2.8-2.1,6.2-2.1c3.7,0,5.9,1,6.6,3
		c0.3,0.9,0.4,2.3,0.4,4.1v44.3c0,1.3,0,2.2-0.1,2.8s-0.3,1.3-0.8,2.1c-0.7,1.4-2.8,2.2-6.2,2.2c-3.7,0-5.9-1-6.5-3
		c-0.3-0.8-0.5-2.2-0.5-4.1V21.9z"/>
	<path class="st0" d="M212.3,63.4c0.8,1.9,1.2,3.3,1.2,4.1c0,2-1.6,3.7-4.9,5.1c-1.7,0.7-3.1,1.1-4.1,1.1c-1,0-1.9-0.3-2.6-0.8
		c-0.7-0.5-1.2-1-1.5-1.6c-0.5-1-2.6-5.8-6.2-14.4l-2.5,0.2h-10v9c0,1.2,0,2.1-0.1,2.8s-0.3,1.3-0.8,2.1c-0.7,1.4-2.8,2.2-6.2,2.2
		c-3.7,0-5.9-1-6.5-2.9c-0.3-0.9-0.5-2.3-0.5-4.1V21.9c0-1.2,0-2.1,0.1-2.8s0.3-1.3,0.8-2.1c0.7-1.4,2.8-2.1,6.2-2.1h17.2
		c4.7,0,9.2,1.7,13.6,5.1c2.1,1.6,3.9,3.9,5.3,6.7c1.4,2.8,2.1,6,2.1,9.4c0,6-2,11-6,14.8C208,53.7,209.8,57.9,212.3,63.4z
		 M181.7,43.1h10.2c1.5,0,3.1-0.6,4.6-1.8s2.3-2.9,2.3-5.3c0-2.3-0.8-4.1-2.3-5.3c-1.5-1.2-3.1-1.8-4.8-1.8h-10V43.1z"/>
	<path class="st0" d="M224.9,14.8l14.8,0.1c7.7,0,14.5,2.8,20.3,8.3c5.9,5.5,8.8,12.4,8.8,20.5s-2.9,15-8.6,20.8
		c-5.7,5.8-12.6,8.7-20.8,8.7h-14.6c-3.2,0-5.3-0.7-6.1-2c-0.6-1.1-1-2.8-1-5.1V21.8c0-1.3,0-2.2,0.1-2.8c0.1-0.6,0.3-1.3,0.8-2.1
		C219.5,15.5,221.5,14.8,224.9,14.8z M250.1,54.8c3.1-2.8,4.6-6.4,4.6-10.7s-1.5-7.9-4.5-10.8s-6.5-4.3-10.6-4.3H232v30.1h7.7
		C243.5,59.1,247,57.7,250.1,54.8z"/>
</g>
<g>
	<path class="st0" d="M43.9,84.3l18,37.1c0.8,1.5,1.1,2.6,1.1,3.4c0,1.6-1.3,3-3.9,4.3c-1.5,0.8-2.7,1.1-3.6,1.1
		c-0.9,0-1.6-0.2-2.1-0.6c-0.5-0.4-1-0.8-1.2-1.3c-0.2-0.4-0.6-1.1-1-2l-3.5-7.2H29.4l-3.5,7.2c-0.4,0.9-0.8,1.5-1,1.9
		s-0.6,0.8-1.2,1.2c-0.5,0.4-1.3,0.6-2.1,0.6c-0.9,0-2-0.4-3.6-1.1c-2.6-1.2-3.9-2.7-3.9-4.3c0-0.8,0.4-1.9,1.1-3.4l18-37.2
		c0.5-1,1.2-1.8,2.2-2.5s2-0.9,3.2-0.9C41,80.8,42.8,82,43.9,84.3z M38.5,100.3l-4.4,9.1H43L38.5,100.3z"/>
	<path class="st0" d="M117,82.7c0.3,0.7,0.6,1.3,0.6,1.8c0.1,0.5,0.1,1.3,0.1,2.3v36.9c0,3.1-0.8,4.9-2.5,5.4
		c-0.8,0.3-1.9,0.4-3.2,0.4c-1.3,0-2.3-0.1-3.1-0.3s-1.3-0.5-1.7-0.8s-0.7-0.8-0.9-1.3c-0.2-0.8-0.3-1.9-0.3-3.5v-22.3
		c-1.1,1.4-2.7,3.6-4.9,6.6c-2.1,3-3.5,4.9-4.1,5.6c-0.6,0.8-1,1.3-1.2,1.6c-0.2,0.3-0.8,0.7-1.6,1.2c-0.9,0.5-1.8,0.8-2.8,0.8
		c-1,0-1.9-0.2-2.7-0.7c-0.8-0.5-1.4-0.9-1.8-1.4l-0.5-0.7c-0.9-1.1-2.6-3.5-5.3-7.1c-2.6-3.6-4-5.6-4.3-5.8v22.4c0,1,0,1.8-0.1,2.3
		c-0.1,0.5-0.3,1.1-0.6,1.7c-0.7,1.2-2.4,1.8-5.2,1.8c-2.7,0-4.4-0.6-5.1-1.8c-0.3-0.6-0.6-1.2-0.6-1.7c-0.1-0.5-0.1-1.3-0.1-2.4
		V86.7c0-1,0-1.8,0.1-2.3s0.3-1.1,0.6-1.8c0.7-1.2,2.4-1.7,5.2-1.7c1.2,0,2.2,0.1,3.1,0.4c0.9,0.3,1.4,0.6,1.7,0.9l0.4,0.4
		l15.1,19.8c7.5-10,12.6-16.6,15.1-19.8c0.8-1.2,2.5-1.8,5.3-1.8C114.7,80.9,116.4,81.5,117,82.7z"/>
	<path class="st0" d="M121.6,86.7c0-1,0-1.8,0.1-2.3s0.3-1.1,0.6-1.8c0.6-1.2,2.3-1.8,5.2-1.8c3.1,0,4.9,0.8,5.5,2.5
		c0.2,0.8,0.3,1.9,0.3,3.5v37c0,1.1,0,1.8-0.1,2.3c-0.1,0.5-0.3,1.1-0.6,1.7c-0.6,1.2-2.4,1.8-5.2,1.8c-3.1,0-4.9-0.8-5.4-2.5
		c-0.3-0.7-0.4-1.8-0.4-3.4C121.6,123.7,121.6,86.7,121.6,86.7z"/>
	<path class="st0" d="M163.4,100.2h11.7c2.4,0.1,3.9,0.7,4.4,1.9c0.4,0.8,0.7,2.1,0.7,3.7v14.6c0,1.4-0.6,2.8-1.9,4.1
		c-3.7,3.9-9.3,5.8-16.8,5.8c-6.6,0-12.4-2.5-17.2-7.5c-4.9-5-7.3-11-7.3-18.1c0-7.1,2.5-12.9,7.4-17.7c5-4.7,10.8-7.1,17.6-7.1
		c5.2,0,10.2,1.7,14.8,5.2c1.2,0.9,1.8,1.9,1.8,3s-0.5,2.3-1.5,3.8c-1.7,2.3-3.3,3.5-4.7,3.5c-0.8,0-2.2-0.6-4.1-1.8
		c-1.9-1.2-4.1-1.8-6.6-1.8c-3.4,0-6.4,1.2-9,3.6c-2.6,2.4-3.9,5.5-3.9,9.3c0,3.8,1.3,7.1,4,9.8c2.7,2.7,5.7,4,9.1,4
		c2.4,0,4.6-0.4,6.6-1.2V110h-5.3c-1.4,0-2.4-0.2-2.9-0.5c-0.6-0.3-0.9-0.9-1.1-1.6c-0.2-0.7-0.3-1.6-0.3-2.8s0.1-2.1,0.3-2.8
		s0.6-1.2,1.1-1.5C161,100.4,162,100.2,163.4,100.2z"/>
	<path class="st0" d="M207.6,80.2c6.6,0,12.3,2.4,17.1,7.1c4.8,4.7,7.3,10.6,7.3,17.7c0,7-2.3,13-6.9,18c-4.6,4.9-10.3,7.4-17,7.4
		s-12.5-2.4-17.2-7.3s-7.1-10.7-7.1-17.4c0-3.7,0.7-7.1,2-10.3c1.3-3.2,3.1-5.9,5.3-8.1s4.8-3.9,7.6-5.1
		C201.6,80.9,204.5,80.2,207.6,80.2z M195.5,105.3c0,3.9,1.3,7.2,3.8,9.6s5.4,3.7,8.6,3.7c3.1,0,6-1.2,8.5-3.6
		c2.5-2.4,3.8-5.6,3.8-9.6s-1.3-7.3-3.8-9.7c-2.6-2.4-5.4-3.7-8.6-3.7c-3.1,0-6,1.2-8.5,3.7C196.8,98.2,195.5,101.4,195.5,105.3z"/>
	<path class="st0" d="M235.5,122.7c-1.1-1.4-1.7-2.7-1.7-3.8s0.9-2.6,2.9-4.5c1.1-1.1,2.3-1.6,3.5-1.6c1.2,0,3,1.1,5.2,3.3
		c0.6,0.8,1.5,1.5,2.7,2.2c1.1,0.7,2.2,1,3.2,1c4.1,0,6.2-1.7,6.2-5.1c0-1-0.6-1.9-1.7-2.6c-1.1-0.7-2.5-1.2-4.2-1.5
		c-1.7-0.3-3.5-0.8-5.4-1.5s-3.8-1.5-5.4-2.4c-1.7-0.9-3.1-2.4-4.2-4.4s-1.7-4.4-1.7-7.3c0-3.9,1.4-7.3,4.4-10.2
		c2.9-2.9,6.9-4.4,11.9-4.4c2.7,0,5.1,0.3,7.3,1s3.7,1.4,4.6,2.1l1.7,1.3c1.4,1.3,2.1,2.4,2.1,3.3s-0.5,2.1-1.6,3.7
		c-1.5,2.2-3.1,3.3-4.7,3.3c-0.9,0-2.1-0.4-3.5-1.3c-0.1-0.1-0.4-0.3-0.8-0.7c-0.4-0.3-0.7-0.6-1-0.9c-0.9-0.6-2.1-0.9-3.6-0.9
		s-2.6,0.3-3.6,1s-1.4,1.6-1.4,2.9s0.6,2.2,1.7,3c1.1,0.8,2.5,1.3,4.2,1.5s3.5,0.7,5.5,1.2c2,0.6,3.8,1.2,5.5,2
		c1.7,0.8,3.1,2.2,4.2,4.2c1.1,2,1.7,4.4,1.7,7.3s-0.6,5.4-1.7,7.6c-1.1,2.2-2.7,3.9-4.5,5.1c-3.6,2.4-7.4,3.5-11.5,3.5
		c-2.1,0-4.1-0.3-5.9-0.8c-1.9-0.5-3.4-1.1-4.5-1.9c-2.4-1.4-4-2.8-4.9-4.1L235.5,122.7z"/>
</g>
</svg>
