<?xml version="1.0" encoding="utf-8"?>
<!-- Generator: Adobe Illustrator 27.0.0, SVG Export Plug-In . SVG Version: 6.00 Build 0)  -->
<svg version="1.1" id="Layer_1" xmlns="http://www.w3.org/2000/svg" xmlns:xlink="http://www.w3.org/1999/xlink" x="0px" y="0px"
	 viewBox="0 0 1440 1920" style="enable-background:new 0 0 1440 1920;" xml:space="preserve">
<style type="text/css">
	.st0{fill:#050102;}
</style>
<path class="st0" d="M889.77,1055.96c-0.12-2.43-0.16-3.85-0.16-3.85s0-1.64,0-4.64c0-0.02,0-0.04,0-0.06s0-0.04,0-0.06
	c0-18.97,0-92.92,0-177.88c0-3.03,0.03-5.98,0.09-8.85c-0.03-1.71-0.09-3.41-0.09-5.14c0-48.24,13.14-88.07,30.22-94.84l-13.81-3.88
	c-31.55-7.43-58.36-23.39-76.06-44.45l-0.07-0.14l-0.04,0.02c-0.01-0.01-0.02-0.01-0.02-0.02v0.03l-41.71,19.16
	c1.02-31.03,9.83-55.94,21.08-60.4l-9.67-2.72c-22.17-5.22-40.99-16.44-53.4-31.25c-12.41,14.81-31.23,26.03-53.4,31.25l-9.67,2.72
	c11.24,4.45,20.04,29.32,21.07,60.32l-41.61-19.11l-0.08,0.16v-0.16c-17.71,21.14-44.57,37.15-76.2,44.59l-13.81,3.88
	c17.09,6.77,30.22,46.6,30.22,94.84c0,1.74-0.06,3.43-0.09,5.14c0.06,2.87,0.09,5.82,0.09,8.85c0,84.97,0,158.91,0,177.88
	c0,0.02,0,0.04,0,0.06s0,0.04,0,0.06c0,3,0,4.64,0,4.64s-0.04,1.42-0.16,3.85c-1.47,44.91-14.33,80.84-30.69,86.52
	c0.06,1.05,0.06,1,0.13,2.05c24.8,6.94,57.15,23.03,89.81,46.03c0.23,0.17,0.45,0.33,0.68,0.5V746.84
	c12.7-0.78,27.64,2.97,41.79,11.27c0,54.88,0,101.29,0,113.76c0,0.01,0,0.03,0,0.04s0,0.03,0,0.04c0,2.1,0,3.25,0,3.25v72.86
	c0.02,0.01,0.04,0.02,0.06,0.02c0,0-0.46,218.25-0.61,219.81c-2.13,22.32-9.07,39.1-17.54,41.07c-0.02,0.03-0.04,0.06-0.07,0.09
	c30.69,25.13,52.57,50.71,60.07,69.53c7.5-18.82,29.38-44.4,60.07-69.53c-0.03-0.03-0.05-0.07-0.08-0.1
	c-7.6-1.85-13.96-15.63-16.7-34.61c-0.92-5.44-1.44-222.53-1.44-222.53c0.01-0.01,0.02-0.01,0.04-0.02v-76.59c0,0,0-1.15,0-3.25
	c0-0.01,0-0.03,0-0.04s0-0.03,0-0.04c0-9.68,0-39.8,0-78.42c0-11.14,0-22.98,0-35.25c14.15-8.34,29.1-12.12,41.81-11.38v444.22
	c0.23-0.16,0.45-0.33,0.68-0.5c32.66-23,65.01-39.09,89.82-46.03c0.06-1.05,0.06-1,0.13-2.05
	C904.1,1136.8,891.24,1100.87,889.77,1055.96z"/>
<g>
	<path class="st0" d="M979.63,941.43v13.56h15.17v5.83h-15.17v19.6h-6.88V935.6h24.86v5.83H979.63z"/>
	<path class="st0" d="M1025.21,980.41V935.6h6.88v44.81H1025.21z"/>
	<path class="st0" d="M1063.28,980.41V935.6h6.88v38.98h19.74v5.83H1063.28z"/>
	<path class="st0" d="M1159.92,980.41l-1.83-20.23c-0.14-1.5-0.27-3.16-0.39-4.99c-0.12-1.83-0.22-3.56-0.32-5.2h-0.14
		c-0.7,1.59-1.53,3.36-2.49,5.3c-0.96,1.94-1.81,3.64-2.56,5.09l-10.39,20.37h-2.53l-10.54-20.37c-0.8-1.5-1.63-3.17-2.49-5.02
		c-0.87-1.85-1.7-3.59-2.49-5.23h-0.14c-0.09,1.73-0.21,3.5-0.35,5.3c-0.14,1.8-0.26,3.38-0.35,4.74l-1.76,20.23h-6.04l3.86-44.81
		h4.21l11.94,23.04c0.94,1.78,1.92,3.71,2.95,5.79c1.03,2.08,1.92,3.99,2.67,5.72h0.14c0.7-1.73,1.56-3.62,2.56-5.65
		c1.01-2.04,1.98-3.99,2.92-5.86l11.8-23.04h4.21l4,44.81H1159.92z"/>
	<path class="st0" d="M1221.38,967.7c0,2.01-0.33,3.84-0.98,5.48c-0.66,1.64-1.64,3.06-2.95,4.25c-1.31,1.19-2.93,2.12-4.85,2.77
		c-1.92,0.66-4.14,0.98-6.67,0.98c-2.43,0-4.68-0.3-6.74-0.91c-2.06-0.61-3.68-1.31-4.85-2.11l-1.54-7.44
		c2.15,1.5,4.32,2.63,6.51,3.41c2.19,0.77,4.5,1.16,6.93,1.16c2.52,0,4.53-0.63,6.02-1.9c1.49-1.26,2.24-2.95,2.24-5.06
		c0-1.97-0.62-3.6-1.85-4.92c-1.24-1.31-3.21-2.41-5.91-3.3c-4.01-1.31-7.05-3.08-9.1-5.3c-2.05-2.22-3.08-4.88-3.08-7.97
		c0-1.55,0.29-3.05,0.88-4.53c0.58-1.47,1.46-2.78,2.63-3.91c1.17-1.13,2.64-2.04,4.42-2.71c1.78-0.67,3.86-1.01,6.24-1.01
		c2.24,0,4.23,0.28,5.96,0.83s2.99,1.13,3.79,1.73l-1.33,5.58c-0.79-0.56-1.99-1.13-3.57-1.72c-1.59-0.58-3.29-0.88-5.11-0.88
		c-2.29,0-4.09,0.61-5.39,1.83c-1.31,1.22-1.96,2.65-1.96,4.28c0,3,2.41,5.32,7.23,6.95c1.97,0.66,3.75,1.43,5.34,2.32
		c1.59,0.89,2.96,1.91,4.11,3.06s2.04,2.47,2.67,3.97C1221.06,964.14,1221.38,965.83,1221.38,967.7z"/>
</g>
<g>
	<path class="st0" d="M249.6,980.41l-1.83-20.23c-0.14-1.5-0.27-3.16-0.39-4.99c-0.12-1.83-0.22-3.56-0.32-5.2h-0.14
		c-0.7,1.59-1.53,3.36-2.49,5.3c-0.96,1.94-1.81,3.64-2.56,5.09l-10.39,20.37h-2.53l-10.54-20.37c-0.8-1.5-1.63-3.17-2.49-5.02
		c-0.87-1.85-1.7-3.59-2.49-5.23h-0.14c-0.09,1.73-0.21,3.5-0.35,5.3c-0.14,1.8-0.26,3.38-0.35,4.74l-1.76,20.23h-6.04l3.86-44.81
		h4.21l11.94,23.04c0.94,1.78,1.92,3.71,2.95,5.79c1.03,2.08,1.92,3.99,2.67,5.72h0.14c0.7-1.73,1.56-3.62,2.56-5.65
		c1.01-2.04,1.98-3.99,2.92-5.86l11.8-23.04h4.21l4,44.81H249.6z"/>
	<path class="st0" d="M284.85,980.41V935.6h24.23v5.83h-17.35v13.56h14.54v5.83h-14.54v13.77h19.81v5.83H284.85z"/>
	<path class="st0" d="M373,943.54c-0.56-0.33-1.24-0.67-2.04-1.02c-0.8-0.35-1.69-0.67-2.67-0.95c-0.98-0.28-2.03-0.51-3.13-0.7
		c-1.1-0.19-2.24-0.28-3.41-0.28c-2.2,0-4.38,0.36-6.53,1.09c-2.15,0.73-4.09,1.8-5.79,3.23c-1.71,1.43-3.09,3.23-4.14,5.41
		s-1.58,4.74-1.58,7.69c0,2.9,0.51,5.44,1.55,7.62c1.03,2.18,2.4,3.98,4.11,5.41c1.71,1.43,3.64,2.51,5.79,3.23
		c2.15,0.73,4.35,1.09,6.6,1.09c2.67,0,5.04-0.26,7.13-0.77c2.08-0.51,3.83-1.19,5.23-2.04l-1.4,6.53c-1.41,0.75-2.99,1.3-4.74,1.65
		c-1.76,0.35-4.09,0.53-6.99,0.53c-2.81,0-5.65-0.49-8.53-1.47s-5.48-2.45-7.8-4.39c-2.32-1.94-4.2-4.37-5.65-7.27
		c-1.45-2.9-2.18-6.27-2.18-10.11c0-3.89,0.74-7.28,2.21-10.18c1.47-2.9,3.37-5.33,5.69-7.27c2.32-1.94,4.91-3.41,7.76-4.39
		c2.86-0.98,5.69-1.47,8.5-1.47c3.09,0,5.72,0.29,7.9,0.88c2.18,0.59,3.94,1.28,5.3,2.07L373,943.54z"/>
	<path class="st0" d="M445.91,980.41l-1.83-20.23c-0.14-1.5-0.27-3.16-0.39-4.99c-0.12-1.83-0.22-3.56-0.32-5.2h-0.14
		c-0.7,1.59-1.53,3.36-2.49,5.3c-0.96,1.94-1.81,3.64-2.56,5.09l-10.39,20.37h-2.53l-10.54-20.37c-0.8-1.5-1.63-3.17-2.49-5.02
		c-0.87-1.85-1.7-3.59-2.49-5.23h-0.14c-0.09,1.73-0.21,3.5-0.35,5.3c-0.14,1.8-0.26,3.38-0.35,4.74l-1.76,20.23h-6.04l3.86-44.81
		h4.21l11.94,23.04c0.94,1.78,1.92,3.71,2.95,5.79c1.03,2.08,1.92,3.99,2.67,5.72h0.14c0.7-1.73,1.56-3.62,2.56-5.65
		c1.01-2.04,1.98-3.99,2.92-5.86l11.8-23.04h4.21l4,44.81H445.91z"/>
	<path class="st0" d="M511.79,980.41l-4.85-11.59h-17.42l-4.85,11.59H478l19.11-45.44h2.46l19.1,45.44H511.79z M500.2,952.46
		c-0.33-0.75-0.66-1.62-0.98-2.6c-0.33-0.98-0.63-1.94-0.91-2.88h-0.14c-0.23,0.94-0.53,1.9-0.88,2.88
		c-0.35,0.98-0.69,1.85-1.02,2.6l-4.42,10.96h12.78L500.2,952.46z"/>
</g>
</svg>
