<?xml version="1.0" encoding="utf-8"?>
<!-- Generator: Adobe Illustrator 24.0.2, SVG Export Plug-In . SVG Version: 6.00 Build 0)  -->
<svg version="1.1" id="Capa_1" xmlns="http://www.w3.org/2000/svg" xmlns:xlink="http://www.w3.org/1999/xlink" x="0px" y="0px"
	 viewBox="0 0 377.9 194.1" style="enable-background:new 0 0 377.9 194.1;" xml:space="preserve">
<style type="text/css">
	.st0{fill:#E6233A;}
	.st1{fill:#E7E000;}
</style>
<g>
	<g>
		<g>
			<path class="st0" d="M104.1,154.4c-0.3-1.1-0.5-2.3-0.5-3.5c0-0.2,0-0.4-0.1-0.7l-0.1-0.7c-0.2-1.4-0.4-2.4-0.5-3.2
				c-0.1-0.3-0.1-0.7-0.2-1.1l-0.2-1.1c0-0.1,0-0.1,0-0.2l0-0.3l0.3,0c0.3,0.6,0.4,1.1,0.4,1.5c0,0.5,0.1,1,0.2,1.5l-0.1-1
				c0-0.4,0-0.7-0.1-1l0-2c0.2,0.1,0.3,0.2,0.4,0.2c0,0.2,0,0.5,0,0.7c0,1.6,0.2,3.5,0.6,5.7c0-0.1,0.1-0.2,0.1-0.3
				c0-0.1,0-0.2-0.1-0.3c-0.1-0.3-0.1-0.7-0.1-1.2l0-0.6l0-0.6l-0.1-1.7c0-0.6,0-1.2,0-1.6c0-0.8,0-1.7,0.1-2.6
				c0-0.1,0.1-0.3,0.1-0.5l0.1-0.3l0.1-0.3l0.3,0l0.3,0l0.6,0c0.1,0.2,0.2,0.4,0.4,0.6l0.4,0.6c0,0.1,0,0.3,0.1,0.6l0.1,0.6
				c0.4,0.2,0.6,0.5,0.7,1.1l0,0.1l-0.1,0.9l-0.1,1l0,1.9c0,0.4,0.1,0.8,0.1,1.3l0.1,1.3l0.1,0.8l0.1,0.7c0,0.2,0.1,0.4,0.1,0.7
				l0,0.2l0,0.2c0,0.2,0.1,0.3,0.1,0.4c0.1-0.2,0.3-0.5,0.6-0.8l0.3-0.4l0.3-0.4c0.4-0.6,0.9-1.1,1.3-1.5c0.1,0,0.2-0.1,0.4-0.1
				l0,0.1l0,0.1l0,0.1c0,0.2-0.1,0.5-0.2,0.7c-0.9,1.6-1.7,2.9-2.4,3.8l0,0.4c0,0.2,0,0.3,0,0.4c0,0.3,0.1,0.6,0.3,0.9
				c0.1,0.1,0.1,0.2,0.1,0.3c0,0.1,0,0.1,0,0.2c0,0.1,0,0.2,0,0.3c0,0.1,0,0.3,0,0.4l0.1,0.3l0.1,0.4c0,0.2,0.1,0.4,0.1,0.6l0.1,0.6
				c0.1,0.8,0.1,1.4,0.1,1.8l0.1,1.2c0,0.5,0,0.9,0,1.2c0,0.3,0,0.6,0,0.9l-0.1,0.9c0,0.1,0,0.2,0,0.3c0,0.2,0,0.4,0.1,0.7l0.1,0.4
				l0.1,0.4c0.4,1.9,0.9,3.8,1.5,5.8l0.3,0.8c0.1,0.3,0.2,0.6,0.3,0.9c0.1,0.3,0.1,0.7,0.1,1.1l0,1c0,0.4,0,0.7,0.1,1
				c0,0.1,0,0.2,0,0.3c0,0.1,0,0.2,0,0.3l-0.1,0.3l-0.1,0.3c-0.4-0.4-0.8-0.8-1.2-1.4l-0.2-0.4c-0.1-0.2-0.2-0.3-0.2-0.4
				c-0.4-0.6-0.8-1.5-1.2-2.7l-0.1-0.4l-0.1-0.4c-0.1-0.3-0.2-0.6-0.3-0.8l0,1.8l-0.1,0l-0.1-0.6c-0.1-0.3-0.1-0.5-0.1-0.6l-0.1-1.2
				c-0.1-0.5-0.1-0.9-0.1-1.2c-0.1-0.4-0.1-0.8-0.2-1.2l-0.3-1.2c-0.2-1.2-0.4-2.2-0.6-3.1c-0.2-1.3-0.5-2.3-0.7-3.3l-0.6-2.6
				l-0.1-0.1c-0.4,0.5-0.9,0.8-1.2,0.9c0-0.2-0.1-0.4-0.1-0.6l-0.3,0.3l-0.3,0.3c-0.2,0.2-0.4,0.5-0.6,0.6l-0.6,0.6
				c-0.2,0.2-0.5,0.5-0.6,0.6c-0.2,0.2-0.4,0.3-0.6,0.6l-0.6,0.5l0,3.6c0,0.8-0.1,1.7-0.4,2.7c-0.1,0.3-0.2,0.7-0.2,1.1l-0.2,1.1
				l0,0.1c0,0.1,0,0.1,0,0.1l-0.3,0.8l-0.1,0.4l-0.2,0.4c-0.1-0.1-0.2-0.2-0.2-0.3l0-0.2l0-0.1l-0.2-1.1l-0.2-1.1l-0.1-0.3l-0.1-0.3
				c-0.1-0.3-0.1-0.5-0.1-0.6c-0.1-1-0.1-1.8-0.1-2.5c0-1-0.2-1.7-0.4-2.4c0-0.1-0.1-0.1-0.1-0.2l-0.1-0.2c-0.3-0.4-0.5-0.8-0.5-1.3
				c0-0.8-0.1-1.8-0.2-3c0-0.2,0-0.4-0.1-0.6l-0.1-0.3l0-0.4c-0.1-0.1-0.2-0.1-0.4-0.1c-1,0-2-0.2-3-0.6c-0.1,0-0.2-0.1-0.3-0.1
				l-0.1-0.1L92,157c0.1-0.7,0.3-1.6,0.7-2.5c0.2,0,0.3-0.1,0.5-0.1l0.4,0c0.4,0,0.7,0,0.9-0.1c-0.2-0.4-0.3-0.9-0.4-1.4l0.1-0.2
				l0.1-0.2c0.1-0.1,0.2-0.3,0.3-0.4l0.2,0l0.2,0c0.1,0,0.3,0.1,0.4,0.1l0.1-0.1l0-0.1c0-0.1,0-0.2,0-0.4l0-0.4c0-0.3,0-0.5-0.1-0.6
				l-0.1-1.4l-0.1-1.5l-0.1-0.8l-0.1-0.8l-0.1-1l-0.1-0.9c0-0.1,0-0.2,0-0.3l0-0.3c0.1-0.2,0.4-0.4,0.8-0.6
				c-0.1-2.2-0.5-3.9-1.1-5.4c0.1-0.1,0.1-0.2,0.2-0.2l0.1-0.1c0.5,1.1,0.8,2.3,1,3.7c0.1,0,0.1-0.1,0.2-0.2c0,0,0-0.1,0.1-0.1
				l0-0.1c0-0.2,0.1-0.3,0.3-0.4l0.6-0.1c0.1-0.1,0.1-0.2,0.1-0.4c0-0.1,0-0.3-0.1-0.4l-0.1-0.2l-0.1-0.2c0-0.1,0-0.2,0-0.3l0-0.1
				l0.1,0c0,0,0.1,0,0.1,0c0.2,0.3,0.4,0.8,0.4,1.5c0,0.1,0.1,0.2,0.2,0.4l0.2,0.4c0.2,0.1,0.4,0.1,0.6,0.1l0.1,0.4l0.1,1.2l0.2,1.3
				l0.2,1.3l0.1,0.7c0,0.3,0.1,0.5,0.1,0.7c0.1,0.4,0.1,1,0.1,1.7l0,1.5c0,0.4,0,0.8,0,1.1c0,0.4,0.1,0.9,0.1,1.5l0.1,0.7l0.1,0.7
				l0,0.7l0.2,0.1l0.2,0.1c0.1,0,0.2,0,0.2,0.1l0.3,0l0.3,0l1.1,0l0.6,0c0.4,0,0.8,0,1.1-0.1c0.1,0,0.2,0,0.3-0.1l0.1,0L104.1,154.4
				z M100.1,158.4c0.1,0,0.1,0.1,0.2,0.1l0.1,0l0.1,0.1c0.1,0,0.2,0.1,0.4,0.1l0.2,0.1l0.2,0.1c0.1,0.1,0.3,0.1,0.4,0.2l0.4,0.2
				l0.2-0.1l0.2-0.1c0.1-0.1,0.2-0.2,0.2-0.3l-0.5-0.1l-0.5-0.1c-0.4-0.1-0.7-0.2-1-0.3c-0.2-0.1-0.4-0.1-0.5-0.1
				c-0.1,0-0.2,0-0.3,0.1C99.8,158.2,99.9,158.3,100.1,158.4z M100.3,161.3c-0.2-0.1-0.3-0.1-0.4-0.1l-0.1,0.1c0,0.1,0,0.1-0.1,0.1
				c0,0,0,0.1,0.1,0.3C100,161.7,100.1,161.5,100.3,161.3z M103.1,141.1L103.1,141.1l-0.2,0l0-0.4l0.1,0c0.2,0,0.3,0.1,0.3,0.3
				L103.1,141.1z M103.8,149.8c0,0.1,0,0.2,0,0.3c0.1,1,0.2,1.9,0.4,2.7c0,0.2,0.1,0.4,0.1,0.6l0.1,0.6c0,0,0,0.1,0.1,0.1l0.1,0.1
				l0.2,0c-0.1-0.7-0.2-1.5-0.4-2.4l-0.3-1.2c-0.1-0.5-0.2-0.9-0.3-1.2L103.8,149.8z"/>
			<path class="st0" d="M125.8,147.3c0,0.1,0,0.3-0.1,0.4l-0.1,0.1l-0.1,0.1c-0.1,0.1-0.1,0.2-0.2,0.3l0.1,0.2l0.1,0.1l0,0.1
				l-0.3,0.4l-0.3,0.4c-0.2,0.3-0.4,0.5-0.6,0.7c-0.4,0.6-0.7,1.1-1,1.6c0,0.1,0.1,0.3,0.1,0.4l0,0.1l0,0c-0.4,0.9-1.1,1.8-1.9,2.8
				c-0.2,0.2-0.3,0.4-0.3,0.6c-0.1,0.5-0.3,1-0.7,1.5c-0.3,0.3-0.5,0.9-0.8,1.6c-0.1,0.2-0.1,0.4-0.3,0.6l-0.3,0.7l0,0.2
				c1.4-2.1,2.3-3.7,2.9-4.9c0.2,0.1,0.3,0.2,0.3,0.2l-0.2,0.4l-0.2,0.3c-0.1,0.3-0.3,0.5-0.4,0.7c-0.1,0.2-0.3,0.5-0.5,0.9
				l-0.5,0.9l-0.6,1c-0.2,0.4-0.4,0.7-0.6,1c-0.1,0.1-0.1,0.3-0.1,0.4c0,0.1,0,0.2,0,0.3c0.2,0.6,0.4,1.5,0.7,2.4l0.3,0.8l0.3,0.8
				c0.2,0.6,0.4,1.2,0.5,1.6c0.1,0.5,0.3,1.2,0.5,2.1c0,0.1,0,0.2,0,0.3l0,0.2l0,0.2l0,0.4l0,0.2l0,0.1l0,0.1c-0.1,0-0.2,0-0.3,0
				l-0.2-0.2l-0.1-0.2c-0.1-0.2-0.2-0.3-0.3-0.4c-0.2-0.3-0.4-0.7-0.6-1.2c-0.1-0.2-0.2-0.4-0.3-0.5c-0.1,0.1-0.1,0.2-0.1,0.4l0,0.2
				c0,0.1,0,0.2,0.1,0.3l0.1,0.3c0.1,0.2,0.1,0.3,0.2,0.6l0.1,0.1l0.1,0.2c0.1,0.1,0.1,0.2,0.1,0.3c-0.2-0.1-0.3-0.1-0.3-0.1
				c0,0-0.1-0.1-0.1-0.1l-0.1-0.1l-0.1-0.1c-0.1,0.3-0.1,0.8-0.1,1.2l0,0.5c0,0.7,0.2,1.1,0.3,1.4c0.1,0,0.2,0,0.3,0l0.2,0l0.2,0
				l0.2,0c0.2,0,0.4,0,0.5,0.1c0.3,0.9,0.5,1.7,0.6,2.4c0,0.2-0.1,0.5-0.2,0.7l-0.1,0.4c-0.1,0.1-0.1,0.3-0.1,0.4
				c0,0.1-0.1,0.2-0.2,0.3c-0.1,0.1-0.2,0.1-0.4,0.1c-0.3,0-0.6,0-1,0.1l-1,0l-0.1,0l-0.1,0c-0.2-0.2-0.4-0.5-0.5-0.9
				c-0.4-1.1-0.7-2.3-0.9-3.7l-0.1-0.7l-0.2-0.7c-0.1-0.6-0.2-1.1-0.3-1.5c-0.1-0.6-0.1-1.3-0.1-2.1l0-0.5l0-0.4
				c0-0.3,0-0.6,0.1-0.9l-0.2-0.4c-0.1,0.3-0.2,0.4-0.2,0.5c0,0.1,0,0.2,0.1,0.4l0.1,0.4l0,0.2l0,0.2c0,0.1-0.1,0.2-0.2,0.3
				l-0.1-0.2l-0.1-0.2c-0.1-0.2-0.1-0.3-0.2-0.5c-0.2,0.2-0.3,0.5-0.5,0.7l0.1,0.4l0.1,0.3c0,0.3,0.1,0.5,0.1,0.7l0.1,0.6l0.1,0.6
				l0.4,2.1l0.3,1.2l0.3,1.3l-0.1,0.2c0-0.1-0.1-0.1-0.1-0.2l-0.1-0.2c-0.1-0.1-0.1-0.2-0.1-0.3c-0.2-0.9-0.4-1.7-0.5-2.2
				c-0.1-0.2-0.1-0.6-0.2-1l-0.1-0.5l-0.1-0.5L115,169l-0.2-0.9l-0.1-0.4c0-0.2-0.1-0.3-0.1-0.4c0-0.2,0-0.3,0.1-0.5
				c0.1-0.2,0.3-0.5,0.5-0.8c0.1-0.2,0.2-0.4,0.2-0.5c0-0.1,0-0.2-0.1-0.4c0-0.1-0.1-0.2-0.1-0.3l-0.1-0.2l-0.1-0.2l-0.1,0l-0.1,0.1
				c-0.1,0-0.1,0.1-0.1,0.1c0-0.1,0-0.1,0-0.2c0-0.2,0-0.4,0.1-0.6l0.1-0.3c0.1-0.2,0.1-0.3,0.1-0.4c-0.1-0.4-0.2-0.6-0.5-0.8
				c-0.2-0.2-0.4-0.4-0.6-0.6c-0.1-0.1-0.1-0.2-0.2-0.3l-0.2-0.4c-0.3-0.5-0.6-1-0.8-1.4c-0.1-0.2-0.2-0.4-0.3-0.7l-0.3-0.7
				c-0.1-0.2-0.1-0.3-0.1-0.5c0-0.2,0-0.3,0.1-0.5l0-0.2c-1.7-2.1-3.1-3.9-4-5.4c0,0,0.1-0.1,0.3-0.3l0.2,0.2l0.2,0.2l0.3,0l0.3,0
				c0,0,0.1,0,0.1,0.1c-0.1,0.1-0.2,0.1-0.4,0.2l0,0.1l0.1,0c0,0,0,0.1,0.1,0.1c0.6,0.6,1.3,1.3,2.1,2.2c0.2,0.3,0.5,0.7,0.9,1.2
				l0.9,1.2l0.2,0.1l0-0.1l0-0.1c0-0.1,0-0.1-0.1-0.1l-0.3-0.5c-0.1-0.2-0.2-0.3-0.3-0.5l-0.7-1.2l-0.7-1.2
				c-0.2-0.3-0.4-0.6-0.7-0.8c-0.3-0.2-0.5-0.4-0.7-0.7c-0.1-0.2-0.3-0.4-0.6-0.7l-0.6-0.7c-0.1-0.1-0.1-0.2-0.2-0.3l-0.2-0.3
				c0.1-0.3,0.3-0.4,0.6-0.4c0.2,0.2,0.5,0.5,0.8,0.8l0.4,0.4l0.4,0.4l0-0.7c0.3-0.3,0.7-0.4,1.1-0.4l0.1,0c1.6,2.3,3.3,4.4,5.1,6.4
				l0.6,0.2l0.6,0.2c0,0,0.1,0,0.1,0l0.2,0l0.5-0.5c0.2-0.2,0.3-0.4,0.4-0.5c0.5-0.7,0.9-1.3,1.3-1.7l0.5-0.7l0.4-0.7
				c0.4-0.6,0.7-1.1,0.9-1.4l0.4-0.6l0.4-0.6c0.3-0.4,0.6-0.8,0.9-1.1c0.1-0.1,0.2-0.3,0.3-0.5l0.1-0.2c0.1-0.1,0.1-0.2,0.2-0.2
				c0.3-0.4,0.7-0.6,1.3-0.8C125.8,147.2,125.8,147.3,125.8,147.3z M110.7,154.7c0,0.1,0.1,0.2,0.3,0.3l-0.3-0.4
				C110.7,154.6,110.7,154.6,110.7,154.7z M115.4,164.1l0.1,0.2l0,0.1c0.1,0.3,0.2,0.5,0.3,0.6c0-0.1,0-0.2,0-0.2
				c0-0.3-0.2-0.6-0.5-0.9C115.3,163.9,115.4,164,115.4,164.1z M119.1,158.8l0,0.2c0.1-0.1,0.2-0.3,0.3-0.5
				C119.2,158.7,119.1,158.8,119.1,158.8z M120.2,156.8c-0.2,0.2-0.4,0.3-0.4,0.4c-0.1,0.2-0.2,0.3-0.3,0.5c0.2-0.2,0.3-0.3,0.4-0.5
				c0-0.1,0.1-0.1,0.1-0.2L120.2,156.8z M124.5,151.1l0.1,0.1l-0.2,0.3l-0.2,0.2l-0.2,0.2l-0.1,0.1l-0.1,0.1
				c-0.1-0.1-0.2-0.1-0.3-0.2l0.2-0.3l0.2-0.3c0.1-0.2,0.3-0.4,0.4-0.6C124.4,150.9,124.5,151,124.5,151.1z"/>
			<path class="st0" d="M135.2,159.3l0.1,0c0.1,0,0.1,0,0.1-0.1c1.2-0.8,2.1-1.5,2.8-2.1l0.4-0.4l0.4-0.4c0.4-0.3,0.6-0.6,0.8-0.8
				c1.1-1.1,1.9-2.1,2.4-3c0.2-0.4,0.4-0.8,0.7-1.3l0.7-1.3l0,0.3l-0.5,1.1c-0.2,0.4-0.3,0.8-0.5,1.1c-0.4,1-1.1,1.9-1.9,2.7
				c-1.3,1.3-2.4,2.3-3.3,3c-0.5,0.4-1.1,0.8-1.8,1.3l-0.9,0.6l-0.9,0.6l-0.3,0.2l-0.3,0.2l0,0.8c0,0.2,0,0.4-0.1,0.6l-0.1,0.6
				c0,0.4-0.1,0.7-0.1,1l0,0.3l-0.1,0.1c-0.1-0.2-0.2-0.4-0.3-0.7l0-0.3c0-0.1,0-0.3-0.1-0.3c-0.1-0.2-0.1-0.4-0.2-0.7l-0.1-0.4
				l-0.1-0.4c-0.5,0.2-0.8,0.4-1,0.7l0,0.8c0,0.7-0.1,1.7-0.2,2.9c0,0.1,0,0.2,0,0.3c0,0.2,0,0.5,0.1,0.8c0.4,1.7,0.8,3.4,1.2,5.1
				c0.3,1.3,0.7,2.8,1.1,4.2c0.1,0.2,0.1,0.4,0.1,0.5c0,0.1,0,0.3-0.1,0.4c-0.1,0.1-0.1,0.3-0.2,0.5l-0.1,0.3l-0.1,0.3
				c0,0,0,0.1-0.1,0.2l-0.1,0.1l-0.1,0.1l-0.3-0.3l-0.3-0.4c-0.2-0.2-0.5-0.4-0.7-0.6c-0.1,0-0.1-0.1-0.1-0.2l-0.1-0.1l0-0.1
				c-0.3-0.9-0.7-2.1-1-3.5l-0.2-0.8c-0.1-0.3-0.1-0.6-0.2-0.8c-0.1-0.4-0.2-0.7-0.5-1l-0.3-0.4l-0.3-0.4c-0.2-0.3-0.5-0.6-0.6-0.8
				c-0.8-1.3-1.4-2.7-1.8-4.2c-0.1-0.3-0.1-0.6-0.2-1l-0.1-0.5l-0.1-0.5c-0.1-0.8-0.2-1.5-0.2-1.9c0-0.4-0.1-0.9-0.1-1.6
				c0-0.3,0-0.7-0.1-1.1l0-0.6l-0.1-0.6c-0.7-0.5-1.4-0.9-2-1.3c0-0.1,0-0.1,0-0.2c0-0.1,0-0.2,0.1-0.3c0-0.1,0.1-0.2,0.1-0.3
				l0.1-0.3c0.1,0,0.3,0,0.4,0c0.4,0,0.8,0.1,1.2,0.2l0-0.7c-0.1-1.4-0.1-3-0.1-4.8l0-4.8c0-0.6,0.1-1.4,0.2-2.3
				c0-0.2,0.1-0.5,0.1-0.8l0.1-0.4l0-0.4c-0.2-0.1-0.5-0.1-0.8-0.2l-0.4-0.1l-0.4-0.1l-0.4-0.4c0-0.1,0-0.2,0-0.4l0-0.2l0-0.3
				c0-0.1-0.1-0.3-0.4-0.4l-0.1-0.1l-0.1-0.1c-0.1-0.1-0.2-0.1-0.2-0.2l0.1-0.3l0.1-0.3c0.1-0.2,0.2-0.4,0.3-0.5
				c0.2,0,0.5,0.1,0.7,0.2c0.1,0.1,0.2,0.1,0.3,0.2l0.3,0.2c0.6,0.4,1.3,0.7,2.2,0.8l2,0.4l0.1,0c0.6,0.3,1.4,0.6,2.5,1l0.6,0.2
				l0.6,0.2c0.5,0.2,0.9,0.3,1.2,0.4c1,0.4,2.2,0.8,3.8,1.1c0.6,0.1,1.2,0.2,1.8,0.2c0.3,0,0.6,0,0.8-0.1c-0.1-0.1-0.1-0.2-0.2-0.3
				l-0.3-0.3c-0.2-0.2-0.3-0.4-0.3-0.6c0,0,0-0.1-0.1-0.1s-0.1-0.1-0.1-0.1l-0.6-0.4l-0.6-0.4l0,0c0-0.2,0.1-0.3,0.3-0.3l0.2,0
				l0.2,0c0.2,0,0.3,0,0.4,0.1c0.2,0.1,0.5,0.1,0.8,0.1l0.8,0c0.6,0,1.1,0.2,1.5,0.8c0.4,0.4,0.7,0.9,1.2,1.5
				c0.2,0.4,0.6,0.6,0.9,0.7c0.1,0,0.3,0.1,0.4,0.2l0.3,0.1l0.2,0.1c0.1,0.2,0.2,0.3,0.3,0.4l0,0.1l0,0.1l0,1.2l0,0.1
				c0,0.5-0.2,1-0.6,1.4l-0.3,0.2l-0.3,0.2c-0.2,0.2-0.4,0.3-0.5,0.4c-0.3,0.2-0.6,0.5-1,0.9l-0.4,0.5l-0.4,0.5
				c-0.2,0.3-0.5,0.6-0.9,1l-0.4,0.5l-0.4,0.5l-0.2,0.2l-0.2,0.3c-0.2,0.2-0.3,0.4-0.3,0.5c-0.1,0-0.1,0.1-0.2,0.2l-0.2,0.2
				c0.1,0.1,0.2,0.2,0.4,0.3c0,0,0,0.1-0.1,0.1l-0.1,0.1c-0.1,0.1-0.1,0.1-0.1,0.1c-0.4,0.3-0.9,0.8-1.3,1.4
				c-0.2,0.2-0.4,0.4-0.6,0.8l-0.3,0.4l-0.3,0.4l-0.4,0.6l-0.4,0.6C135.9,158.5,135.5,158.9,135.2,159.3
				C135.2,159.2,135.2,159.3,135.2,159.3L135.2,159.3l-0.1-0.1c-0.1-0.1-0.1-0.1-0.1-0.1l0.6-0.7c0.2-0.3,0.4-0.5,0.6-0.7
				c0.4-0.5,0.8-1,1-1.5c-0.9,0.6-2,1.5-3.3,2.5c-0.1,0.1-0.1,0.1-0.2,0.1c-0.1,0.1-0.1,0.1-0.1,0.2c0,0.3-0.1,0.6-0.1,0.8
				c0,0.3,0,0.5,0.1,0.7l0.4-0.3l0.4-0.3c0.3-0.2,0.6-0.4,0.8-0.5c0,0,0.1,0,0.1-0.1L135.2,159.3L135.2,159.3z M126.2,148
				c0.1-1.2,0.3-2.2,0.4-3l0.1-0.5c0-0.2,0.1-0.4,0.1-0.6l0.1-0.6l0.1-0.6c0-0.2,0-0.4,0-0.6c0-0.2,0-0.4,0-0.5
				c-0.2-0.1-0.3-0.1-0.5-0.1c-0.1,0-0.2,0-0.3,0l0,0.3c0,0.1,0,0.2,0,0.3c-0.2,1.1-0.3,2.1-0.3,3c0,0.3,0,0.6,0,1.1l0,0.6l0,0.5
				l0,1l0,1.1c0,0.1,0,0.1,0,0.1c0,0.1,0.1,0.2,0.2,0.2L126.2,148z M126.4,153.1c-0.2,0.1-0.4,0.1-0.5,0.2l0,2.1
				c0,0,0.1,0.1,0.3,0.2c0-0.3,0-0.7,0.1-1.2l0.1-0.6L126.4,153.1z M126.1,160l0.2,0c0-0.1,0.1-0.2,0.1-0.3c0-0.1,0-0.2-0.1-0.3
				l-0.1-0.3l-0.1-0.3L126.1,160L126.1,160z M126.5,152.4c0-0.2,0.1-0.4,0.1-0.6l0.1-1.4l0.1-1.4l0-0.4l0.1-0.3
				c0-0.1,0.1-0.3,0.1-0.4c0-0.2,0-0.4-0.1-0.7l-0.2,1.4c-0.1,0.6-0.1,1.1-0.1,1.5c-0.1,0.6-0.1,1.2-0.1,1.7c0,0.4,0,0.8,0.1,1.2
				L126.5,152.4z M129.1,169.7c0-0.5-0.2-0.9-0.5-1.3l0.1-0.7c0-0.2,0.1-0.5,0.1-0.7l0-0.1c0-0.4-0.1-0.9-0.2-1.2l-0.3-0.3l-0.3-0.3
				c-0.2-0.2-0.4-0.4-0.5-0.6c-0.4-0.4-0.6-0.9-0.8-1.3l0,0.3c0,1.1,0.3,2.3,0.9,3.8c0.7,1.6,1.4,2.7,2.2,3.3c0-0.1-0.1-0.2-0.1-0.4
				l0-0.2l-0.1-0.2C129.3,169.8,129.2,169.8,129.1,169.7L129.1,169.7L129.1,169.7z M127.7,163.7l-0.1-0.1l-0.1-0.1
				c-0.2-0.1-0.3-0.2-0.3-0.4l0.1-0.3l0.1-0.3l-0.3-0.9c-0.1-0.3-0.2-0.6-0.3-0.9c0,0.3-0.1,0.6-0.1,0.9c0,0.6,0.1,1.1,0.3,1.6
				c0.3,0.8,0.7,1.3,1.3,1.7c-0.1-0.2-0.2-0.4-0.2-0.6l-0.2-0.6C127.8,163.8,127.7,163.7,127.7,163.7z M129.7,142.3
				c0,0.2,0,0.4,0,0.6c0,0.6,0.1,1.1,0.2,1.4c0.4,0.1,0.6,0.1,0.8,0.1l0-0.9c0.5-0.1,0.9-0.3,1.3-0.4c-0.3-0.1-0.7-0.3-1.2-0.4
				l-0.6-0.2L129.7,142.3z M131.4,160.8l0,0.4l0,0.4c0.1,0,0.3-0.1,0.5-0.2l0.2-0.1c0.1-0.1,0.1-0.1,0.2-0.1
				c0.1-0.2,0.1-0.5,0.1-0.8l0-0.4l0-0.4l-0.1,0c-0.1,0-0.3,0-0.4,0.1l-0.1,0.1l-0.1,0.1c-0.1,0.1-0.1,0.1-0.2,0.1
				C131.4,160.2,131.4,160.5,131.4,160.8z M131.4,153.3c0,0.1,0,0.2,0,0.2c0,0.1,0.1,0.1,0.1,0.2c0,0,0.1,0,0.1,0c0,0,0.1,0,0.1,0
				c0-0.2,0.1-0.4,0.1-0.5c0-0.1-0.1-0.2-0.2-0.4C131.5,152.9,131.4,153.1,131.4,153.3z M140.8,145.1l-1.5,0c-0.6,0-1-0.1-1.4-0.1
				c-1.7-0.3-3.3-0.7-4.7-1.3c-0.1,0-0.2-0.1-0.4-0.1l-0.2-0.1l-0.2-0.1l0.1,0.3l0.1,0.3c0.1,0.2,0.1,0.4,0.2,0.6
				c0.1,0.2,0.1,0.4,0.1,0.6l0,0.3c0,0.1,0,0.2,0,0.3c0.2,0.8,0.2,1.5,0.3,2.1l0,0.4c0.2,1.1,0.2,2,0.2,2.7l0,0.4
				c-0.2,0.5-0.3,0.7-0.3,0.9l0,0.2c0,0.1,0,0.3,0,0.5l0.2-0.1c0.1-0.1,0.1-0.1,0.2-0.1l0.6-0.3c0.3-0.1,0.5-0.2,0.7-0.3
				c0.1,0,0.3-0.1,0.4-0.1l0.4-0.1l1.4-1.4c0.6-0.6,1-1.1,1.4-1.4c0.6-0.6,1.2-1.4,1.9-2.3l0.3-0.3c0.1-0.1,0.2-0.2,0.3-0.3
				c0.2-0.2,0.5-0.4,0.7-0.4l0.5,0.3c0.2,0.1,0.4,0.2,0.5,0.3c0.2-0.2,0.4-0.4,0.7-0.6C142.5,145.3,141.7,145.2,140.8,145.1z"/>
			<path class="st0" d="M153.4,153l0.1,0.2l0.1,0.1c0.1,0.2,0.2,0.3,0.3,0.4c0.6,0.2,1,0.7,1.1,1.4c0.1,0.2,0.1,0.5,0.3,0.7l0.2,0.4
				l0.2,0.3c0.1,0.1,0.1,0.3,0.3,0.4l0.1,0.2l0.1,0.2c0-0.1,0-0.1,0-0.2c0-0.1,0-0.3-0.1-0.4l-0.5-1.5l-0.5-1.5l-0.1-0.2l0.1-0.2
				c0-0.1,0-0.1,0.1-0.2l-0.3-0.6l-0.3-0.6l-0.6-1.2l0.1,0l0.1,0.1c0,0,0.1,0,0.1,0.1c0.5,0.5,1,1.3,1.3,2.2
				c0.1,0.4,0.3,0.9,0.5,1.6l0.5,1.6c0.2,0.7,0.5,1.4,0.7,1.9c0.2,0.4,0.3,0.8,0.5,1.2l0.5,1.2c0,0,0.1,0.1,0.2,0.2
				c0-0.1,0-0.3,0-0.5l0.1-0.4c0-0.3,0.1-0.6,0.1-0.8l0.1-1.1l0.1-1.2l0.1-0.8l0.1-0.7l0.1-1.3l0.1-1.3l0.1-0.3l0.1-0.3
				c0.1-0.3,0.1-0.5,0.1-0.6l0-0.3l0-0.2c0-0.1,0-0.2,0-0.2c0.1-0.1,0.2-0.3,0.3-0.5c0-0.1,0-0.2,0.1-0.3l0.1-0.3l0.3-1.5l0.4-1.5
				l0.1-0.5c0-0.2,0.1-0.4,0.1-0.6c0.1-0.6,0.1-1.2,0.1-2l0.1-1.9l0.1-1.9l0.1-1.4c0-0.5,0-1,0.1-1.4l0.1-0.6l0.1-0.6
				c0.1-0.5,0.2-0.9,0.3-1.2l0.1,0l0.1,0c0.1,0.1,0.1,0.2,0.1,0.3c0,0.1,0,0.1,0,0.2l-0.1,0.1l0,0.1l0,0.3c0,0,0.1,0.1,0.1,0.1
				l0.1,0.1l0.1,0.1l0,0.6c0.2,0,0.6,0.1,1,0.1c0.2-0.1,0.4-0.1,0.6-0.1c0.4,0,0.7,0.1,0.9,0.4l0,0.6l0,0.6c0,0.5,0,0.9-0.1,1.2
				c-0.1,0.3-0.1,0.7-0.1,1.2l-0.1,0.6l-0.1,0.6l-0.2,1.2l-0.2,1.2l-0.2,1.4l-0.2,1.4l-0.2,1l-0.2,1.1c0,0.2,0,0.4-0.1,0.7l-0.1,0.7
				l-0.1,0.8l-0.1,0.8l0,0.1l0,0.2l-0.1,0.7l-0.1,0.7c-0.1,0.7-0.1,1.5-0.1,2.4l0,0.7l0,0.7c0,0.6-0.1,1-0.1,1.4
				c0,0.2-0.1,0.6-0.1,1l0,0.5l0,0.5c0,0.1,0,0.2,0,0.3l0,0.2l0,0.2c0,0,0,0.1,0.1,0.2l0.1,0.1l0.1,0.1l0.1-0.2l0-1l0-1
				c0-0.8,0.1-1.5,0.1-2c0-0.2,0-0.4,0-0.6l0-0.6c0-0.5,0.1-1,0.2-1.3c0,0,0-0.1,0-0.1l0-0.2c0-0.5,0.1-1.3,0.2-2.4l0.1-0.4l0-0.4
				c0-0.4,0-0.6,0.1-0.8c0.1-0.4,0.2-0.9,0.2-1.4l0.3-1.5c0.1-0.4,0.2-0.8,0.3-1.4c0.1-0.2,0.2-0.4,0.3-0.5l0,0.1l0,0.1
				c0,0,0,0.1,0,0.1c0,0,0,0.1,0,0.1c-0.2,0.6-0.4,1.2-0.5,1.9l-0.2,1l-0.2,1c-0.1,0.4-0.1,0.8-0.2,1.3l-0.1,0.7l-0.1,0.6l-0.3,3.5
				l0,0.1l-0.1,4.8l0,0.1c0,0.1,0,0.2,0.1,0.4c0.1-0.8,0.3-1.7,0.4-2.8l0.2-1.4l0.2-1.4c0.3-2.4,0.6-4.4,0.8-5.8
				c0.1,0.2,0.1,0.3,0.1,0.4c-0.1,0.3-0.1,0.8-0.2,1.3l-0.2,1.3l-0.1,0.7l-0.1,0.7c-0.1,0.4-0.1,0.8-0.2,1.2l-0.1,0.8
				c0,0.3-0.1,0.6-0.1,0.8l-0.2,1.2l-0.2,1.2l-0.1,0.5l-0.1,0.5l-0.2,1.7l-0.2,1.7c-0.1,0.3-0.1,0.8-0.1,1.4
				c-0.1,1.1-0.1,1.9-0.1,2.4c0,0.2,0,0.4,0.1,0.7c0.1,0.2,0.1,0.4,0.1,0.6c0,0.1,0,0.2,0,0.3c-0.1,0-0.2,0-0.3-0.1l-0.1,0.1
				l-0.1,0.2c0,0.1-0.1,0.2-0.1,0.3l0,0.2c0,0.2,0,0.5-0.1,0.8l-0.2,1c-0.1,0.8-0.2,1.4-0.2,1.9c0,0.1,0,0.3,0,0.4l0.2,0
				c0.1,0,0.1,0,0.2,0l0.1,0.1l0.1,0.1c0.1,0.1,0.1,0.2,0.2,0.3l-0.2,0.2l-0.1,0.1l0.4,1l0.4,1c0,0.1,0.1,0.3,0.1,0.4
				c0,0.1,0,0.2,0,0.4c-0.1,0-0.2,0-0.2-0.1c0,0,0-0.1,0-0.1l0-0.1l0-0.1c-0.1-0.2-0.2-0.4-0.3-0.7l-0.3-0.7
				c-0.1-0.3-0.3-0.4-0.5-0.4l-0.1,0.8l-0.1,0.8l-0.1,0.4l-0.1,0.4l-0.2,0.8l-0.2,0.8c0,0.2-0.1,0.4-0.2,0.7l-0.2,0.7
				c-0.1,0.5-0.2,1-0.2,1.4c0,0-0.1,0.2-0.3,0.6l-0.1-0.4l0-1.2c0-0.4,0-0.8-0.1-1.2l-0.1-0.8l-0.1-0.8l0-0.1c0,0,0-0.1,0-0.1
				c-0.1-0.3-0.2-0.6-0.2-1l0-1c0-1,0-1.9,0-2.8l0-0.3l0-0.2c0-0.1,0-0.2,0-0.3l0-0.1c0-0.2,0-0.3,0-0.6l-0.1-0.6
				c0,0-0.1-0.1-0.2-0.1l-0.1-0.1l-0.1-0.1l-0.1-0.2l0-0.2c0-0.2,0-0.3-0.1-0.4l-0.1-0.2l-0.1-0.2c-0.1-0.2-0.1-0.3-0.2-0.4
				c-0.2-0.2-0.3-0.5-0.6-0.8l-0.6-0.8l-0.1-0.2l-0.1-0.2c-0.1-0.1-0.2-0.3-0.3-0.4l-0.8-1c-0.3-0.4-0.6-0.7-0.9-1
				c-0.5-0.4-0.8-0.9-1.1-1.4c-1.2-1.9-2-3.3-2.6-4.3c-0.3-0.5-0.7-1.2-1.2-2l-1.2-2c0-0.1-0.1-0.1-0.1-0.2l-0.1-0.1l-0.1-0.1
				l-0.1,0.1l-0.1,0.1c0,0.1,0,0.1-0.1,0.2c-0.1,0.8-0.1,1.7-0.2,2.7l0,1.7c0,0.4,0,0.8,0,1.1c0,0.3-0.1,0.6-0.1,1.1l-0.1,0.5
				l-0.1,0.5l0,0.1l-0.1,2.4l-0.1,1.9c-0.1,0.7-0.1,1.4-0.2,1.9c0,0.1,0,0.3,0,0.5l0,0.4c-0.2,0.1-0.3,0.2-0.5,0.2
				c-0.1,0-0.3,0-0.4-0.1l-0.2-1.7l-0.1,0l0,0.5l0,0.6l-0.1,0.6l0,0.3l0,0.3l0,0.3l0,0.3c-0.1,0.1-0.2,0.1-0.3,0.1l-0.1,0
				c-0.1,0-0.1,0-0.2,0l-0.2-0.1l-0.2,0.1l-0.3,0.1c-0.1,0-0.2-0.1-0.5-0.1l0-0.1l0-0.1c0-0.1-0.1-0.1-0.1-0.2l0-0.4l0-0.4
				c0-0.3,0-0.5-0.1-0.7c0-0.1-0.1-0.3-0.1-0.6l0-0.3l0-0.3c-0.1-0.5-0.2-0.9-0.4-1.2l0-0.3l0-0.3l0.1-0.6l0.1-0.7l0-0.6l0-0.2
				l0-0.1l0-5.6l0-0.2l0-0.2l-0.1-0.2l-0.1-0.1l-0.1-0.1l0-1.5c0-0.2,0-0.5,0-0.6c0-0.2,0-0.4,0-0.5l-0.1-0.8l-0.1-0.8
				c0-0.5-0.1-1-0.1-1.3l0-0.4c0-0.5-0.1-1-0.3-1.5c-0.1-0.2-0.2-0.4-0.3-0.7l-0.4-0.7c-1.2-1.9-2-3.6-2.4-5.2l0,0l0-0.1
				c0-0.1-0.1-0.1-0.1-0.1l0-0.1c0-0.1,0-0.1,0.1-0.2c0.1,0.1,0.2,0.1,0.2,0.3l0.1,0.1l0.1,0.2c0.4,1.3,0.9,2.5,1.6,3.7
				c0.2,0.3,0.4,0.7,0.7,1.2l0.4,0.6l0.4,0.6l0-0.2l0-0.2l0-0.8l0-0.5c0-0.4,0-0.7,0.1-1c0.1-0.5,0.2-1,0.5-1.5l0.2,0.1
				c0.1,0,0.1,0,0.2,0.1c-0.1,0.2-0.1,0.5-0.1,0.8c0,0.1,0,0.3,0,0.4c0,0.2,0.1,0.3,0.1,0.6l0.1,0.3l0.1,0.3l0.1-1.4l-0.1-0.4
				c-0.1-0.2-0.1-0.3-0.1-0.4c0.1-0.2,0.3-0.5,0.6-0.7l0.3-0.3c0.1-0.1,0.2-0.2,0.3-0.3l0.4,0l0.9,1.2l0.5,0.6l0.5,0.6
				c0.1,0,0.2-0.1,0.3-0.2l0.1-0.1l0-0.1c0-0.1,0.1-0.1,0.1-0.1c0-0.1-0.1-0.3-0.2-0.4l0.1-0.1c0,0,0-0.1,0.1-0.1c0.1,0,0.2,0,0.3,0
				c0.3,0,0.6,0.1,0.8,0.3c0.4,0.2,0.6,0.6,0.6,0.9l0,0.1c0,0.1,0,0.2,0,0.3l-0.1,0.2l-0.1,0.2l0,0.1l-0.1,0.2l-0.1,0.6l0,0.3
				l-0.1,0.3c1.5,1.9,2.9,4,4.3,6.4c0.1-0.1,0.1-0.3,0.1-0.4c0,0,0-0.1,0-0.1l0-0.1l0-0.1c0-0.1-0.1-0.2-0.1-0.3c0-0.1,0-0.3,0-0.5
				l0-0.4c-0.1-0.2-0.2-0.4-0.3-0.6L153.4,153L153.4,153L153.4,153z M144.5,151.4c0-0.6-0.1-1.1-0.2-1.7c-0.1-0.2-0.1-0.5-0.2-0.9
				l-0.2-0.8c-0.1,0.1-0.2,0.3-0.2,0.4l0,1.2l0,1.1c0,0.4,0.2,1.1,0.7,1.9C144.4,152.2,144.5,151.8,144.5,151.4z M143.8,153.1
				c0,0.3,0.1,0.6,0.2,0.7c0.1-0.2,0.1-0.4,0.1-0.6l0-0.1c0-0.2-0.1-0.4-0.2-0.6C143.8,152.7,143.8,152.9,143.8,153.1z M146.4,164.4
				L146.4,164.4l0.1-0.2l0-0.4l0-0.2l-0.1,0L146.4,164.4z M155.3,156.4l0,1.8l0.4,0.6c0.1,0.2,0.3,0.4,0.4,0.6
				c0.3,0.4,0.6,0.8,0.9,1.1c-0.1-0.7-0.3-1.4-0.6-2.2c-0.1-0.3-0.3-0.6-0.5-1l-0.3-0.5l-0.2-0.5L155.3,156.4z M158.5,162.5l0-0.1
				l0-0.2c0-0.2,0-0.4-0.1-0.6l-0.5-1.1l-0.5-1.1c0.3,1.1,0.6,2.1,0.9,2.9c0,0.2-0.1,0.3-0.1,0.3l0.2,0.2L158.5,162.5L158.5,162.5z
				 M159.5,156.1L159.5,156.1l0.1-0.8l-0.1,0L159.5,156.1z M159.6,155.1L159.6,155.1l0.1-0.8l-0.1,0L159.6,155.1z"/>
			<path class="st0" d="M173.4,168.7c-0.7,0-1.4-0.2-2-0.5c-0.6-0.3-1.2-0.8-1.8-1.6c-0.6-0.8-1.1-1.7-1.7-2.9
				c-0.2-0.4-0.4-0.8-0.5-1.3c0-0.1-0.1-0.2-0.1-0.3l-0.1-0.3c-0.1-0.3-0.2-0.8-0.5-1.4l-0.8-1.6l-0.8-1.6c-0.6-1.1-1-2.1-1.1-2.8
				l-0.1-0.4c0-0.2-0.1-0.3-0.1-0.4c0-0.1,0-0.2,0-0.3c0-0.2,0-0.3,0.1-0.5c0-0.1,0.1-0.2,0.2-0.3l0.1-0.2l0.1-0.1
				c0-0.1,0.1-0.1,0.2-0.2l0.1-0.1l0.1-0.1l0.1,0.1l0.1,0.1c-0.5,0.4-0.7,0.8-0.8,1.3l0.1,0.2l0.1,0.2c0,0.2,0.1,0.3,0.1,0.5
				c0.1,0.5,0.3,1.1,0.7,1.9c0.3,0.6,0.6,1.2,1,2l1,2c0,0,0,0.1,0.1,0.1l0.1,0.1l0.1,0.1c0-0.1,0.1-0.2,0.1-0.3c0-0.1,0-0.2-0.1-0.3
				l0-0.1l-0.1-0.1c0-0.1-0.1-0.2-0.1-0.3l-0.1-0.4l-0.1-0.4c-0.1-0.3-0.1-0.5-0.1-0.8l0-0.6c0.1,0,0.1,0,0.2-0.1l0.2-0.1l0,0l0,0
				c0,0,0,0.1,0,0.1c0,0.1,0,0.2,0,0.3c0,0.3,0,0.6,0.1,0.9l0.1,0.3l0.1,0.3c0.1,0.2,0.1,0.4,0.1,0.6c0.1,0.4,0.2,0.8,0.5,1.3
				l0.3,0.6c0.1,0.2,0.2,0.5,0.3,0.6c0.5,1.4,1.1,2.5,1.8,3.5c0.5,0.8,1,1.3,1.5,1.7c0.2,0.1,0.4,0.3,0.7,0.4l0.4,0.2
				c0.1,0.1,0.3,0.2,0.4,0.2c0,0,0,0,0.1,0l0,0l0.1,0c0.1,0.1,0.1,0.2,0.2,0.2C173.7,168.7,173.5,168.7,173.4,168.7z M168.1,146.5
				l0.1,0l0.1,0.1l0.1-0.1c0,0,0.1-0.1,0.1-0.1c0.2-0.5,0.6-1.1,1.1-1.7l0.3-0.3c0.1-0.1,0.2-0.2,0.3-0.3l0.5-0.5l0.3-0.3l0.2-0.3
				l0.1,0c0.2,0,0.4,0.1,0.6,0.2c0.1,0,0.2,0.1,0.3,0.2l0.3,0.2l0.2-0.1l0.3-0.1c0.2-0.1,0.4-0.2,0.5-0.2c0.4-0.1,0.7-0.2,1.1-0.3
				c0.1,0,0.2,0,0.3,0c0.3,0,0.6,0.1,0.9,0.2c0.3,0.2,0.7,0.3,1.2,0.4c0.5,0.1,1,0.4,1.5,0.7l0.6,0.5l0.3,0.3l0.3,0.3
				c0.5-0.2,1-0.3,1.4-0.3c0.1,0,0.2,0,0.3,0c0.2,0.1,0.4,0.3,0.5,0.5c0.4,1,0.7,1.9,0.8,2.7c0.1,0.5,0.2,1.1,0.3,1.6
				c0,0,0,0.1,0.1,0.2l0.1,0.2l0.6-0.2c0.3-0.1,0.4-0.1,0.6-0.2c0.2,0,0.3,0.1,0.4,0.2c0.1,0.1,0.1,0.2,0.2,0.3
				c0.3,0.7,0.5,1.3,0.7,1.8c0.1,0.3,0.2,0.6,0.2,0.9c0,0.2,0,0.4,0.1,0.6l0.1,0.3l0.1,0.3c0,0.2,0.1,0.3,0.1,0.5l0,0.3l0,0.3
				c0,0.7-0.1,1.5-0.3,2.3c0,0,0,0.1,0,0.2l0,0.2c0.1,0.1,0.2,0.2,0.3,0.3l-0.1,0.5l-0.1,0.5c-0.1,0.4-0.1,0.7-0.2,0.9
				c-0.2,0.8-0.4,1.6-0.4,2.3l0,0.4c0,0.7-0.2,1.4-0.5,2.1c-0.3,0.6-0.7,1.2-1.5,1.7c-0.9,0.7-1.5,1.2-1.9,1.6
				c-0.8,0.9-1.5,1.4-2.1,1.8c-0.2,0.1-0.4,0.2-0.6,0.3l-0.3,0.1l-0.3,0.1c0,0-0.1,0-0.3,0l0.1-0.1c0-0.1,0-0.1,0.1-0.1l0.7-0.6
				c0.3-0.2,0.5-0.4,0.7-0.6c0.6-0.4,1.1-0.8,1.6-1.1c0.7-0.4,1.3-1,1.7-1.7c0.7-1.1,1.3-2.4,1.9-3.8l0-0.2l-0.1,0
				c-0.5,0.9-1.4,1.8-2.8,2.8c-0.2,0.2-0.4,0.3-0.5,0.5c-0.5,0.9-1.4,1.6-2.5,2.3c-0.6,0.4-1.1,0.7-1.4,1.1c0,0.1-0.1,0.1-0.3,0.2
				l-0.1,0.1l-0.1,0.1l-0.4-0.1l-0.4-0.2c0-0.1,0.1-0.2,0.1-0.3l0.1-0.3c0.1-0.2,0.2-0.4,0.4-0.5c-0.1,0-0.2-0.1-0.3-0.1
				s-0.2,0-0.2,0.1l-0.1,0.1l-0.1,0c-0.1,0-0.1,0.1-0.2,0.1l-0.8,0l-0.2-0.1l-0.1-0.1l-0.1-0.1l0.1-0.2l0-0.1l0-0.2l-0.1,0l-0.1,0
				l-0.2-0.1l-0.3-0.2c-0.1-0.1-0.2-0.1-0.3-0.2c-0.3-0.2-0.4-0.4-0.4-0.6c0-0.1,0-0.2,0.1-0.4l-0.2-0.5l-0.3-0.5
				c-0.2-0.4-0.4-0.7-0.6-0.9c-0.1,0-0.2,0-0.3,0l-0.2,0c-0.3-0.1-0.4-0.2-0.4-0.4c0-0.2-0.1-0.4-0.1-0.5l-0.1-0.2l-0.1-0.2
				c-0.1-0.2-0.1-0.3-0.2-0.3c-0.7-0.8-1.1-1.5-1.5-2.3l-0.2-0.2l0,0.2l0.1,0.2c0,0,0,0.1,0,0.1c0,0.1,0,0.2-0.1,0.3l-0.1-0.2
				l-0.1-0.2c-0.1-0.1-0.1-0.2-0.1-0.3c-0.1-0.4-0.3-0.8-0.5-1.4l-0.3-0.7l-0.3-0.7c-0.1-0.2-0.1-0.4-0.2-0.6l-0.1-0.3l-0.1-0.3
				c-0.1-0.5-0.1-1-0.1-1.6l0-1.6c0-0.1,0-0.1-0.1-0.2l0,4.1l-0.4,0l0-3.9c0-0.2,0.1-0.5,0.1-0.9l0.1-0.5l0.1-0.5
				c0-0.5,0.1-1,0.2-1.6l0.2-0.8c0.1-0.3,0.1-0.6,0.2-0.8c0.1-0.2,0.1-0.3,0.3-0.5l0.2-0.3l0.2-0.3
				C167.9,146.4,168,146.5,168.1,146.5z M166.9,151.8L166.9,151.8l0.1-0.8l-0.1,0L166.9,151.8z M169.5,152.2l0-2.8
				c-0.1,0.3-0.2,0.7-0.2,1.1l0,0.3c0,0.2,0,0.4,0.1,0.7l0,0.3L169.5,152.2z M172.9,163.1l0.6,1l0.6,1c0.1,0.2,0.3,0.4,0.6,0.4
				c0.3,0.1,0.6,0.2,0.9,0.4c0.2,0.1,0.3,0.2,0.5,0.2c0.2,0,0.4-0.1,0.5-0.2c0.2-0.1,0.3-0.3,0.4-0.4c0.2-0.3,0.4-0.6,0.7-0.8
				c0.4-0.3,0.7-0.7,1-1.2c0.3-0.5,0.5-1.1,0.8-1.7c0.7-1.9,1.1-3.9,1.1-6l0-2.2c0-0.8-0.1-1.6-0.1-2.2c0-0.3-0.2-0.6-0.3-0.8
				c-0.5-0.6-1.1-1.1-1.9-1.5c-0.6-0.4-1.5-0.8-2.8-1.3c-0.6-0.3-1.1-0.5-1.4-0.8l-0.1-0.1l-0.1-0.1c-0.4,0.1-0.7,0.4-1,0.8
				c-0.2,0.5-0.4,0.9-0.4,1.3l-0.1,0.4l-0.1,0.4c-0.1,0.3-0.1,0.6-0.1,0.8l0,1.1l0,1.1c0,0.8,0,1.6,0.1,2.2c0,0.2,0.1,0.5,0.1,0.9
				l0,0.4l0.1,0.5l0.3,2.1c0.1,0.8,0.3,1.7,0.7,2.5c0.1,0.2,0.2,0.4,0.3,0.7l0.2,0.3l0.2,0.3l-0.1,0.2l-0.1,0.2
				c-0.1,0.1-0.2,0.2-0.3,0.3c-0.3-0.2-0.5-0.3-0.6-0.4L172.9,163.1z M173.5,150.3L173.5,150.3c0,0.1,0.1,0.2,0.1,0.2
				c0,0,0,0.1,0,0.1c0,0.2-0.1,0.3-0.1,0.5l0,0.3l-0.1,0.3c-0.1,0.5-0.1,0.9-0.2,1.2l-0.2-0.3c0-0.4,0.1-0.9,0.1-1.4l0.1-0.4
				c0-0.2,0.1-0.4,0.3-0.5L173.5,150.3z M173.7,145.3l0.3,0.2l0.3,0.2c0.5,0.2,0.9,0.4,1.2,0.5c-0.7-0.7-1.4-1.2-2.2-1.5l-0.1,0.1
				l-0.1,0.1c-0.1,0.1-0.1,0.2-0.1,0.3C173.2,145.1,173.4,145.2,173.7,145.3z M176.7,147L176.7,147l-2.4-1l0,0l-0.1,0l0.2,0.5
				L176.7,147z M176.7,147.4l-0.9-0.2L175,147l-0.3-0.1l0,0.1l0.9,0.4l0.9,0.4c0.7,0.3,1.3,0.6,1.8,0.8
				C178,147.9,177.5,147.5,176.7,147.4z M179,169.3c0.3-0.1,0.5-0.3,0.7-0.5C179.3,168.9,179.1,169.1,179,169.3z M183.9,161
				l-0.1,0.2c-0.1,0.2-0.2,0.3-0.3,0.4l-0.9,1.1l-1,1.1l-0.2,0.3c0.8-0.6,1.4-1.2,1.9-1.9c0.5-0.6,0.8-1.1,0.8-1.5l0,0L183.9,161z
				 M182.6,166.1C182.6,166.1,182.5,166.2,182.6,166.1l-0.1,0.2c1.3-0.8,2-2.1,2-3.8l0-0.1C184,163.7,183.4,164.9,182.6,166.1z
				 M183.5,153.4c0-0.2-0.1-0.5-0.1-0.8l-0.1-0.4c0-0.1-0.1-0.3-0.1-0.4c0,0,0-0.1,0-0.2l0-0.1l0-0.1c0-0.2-0.1-0.3-0.2-0.3l0,0.6
				l0,0.2l0,0.3c0,0.2,0.1,0.4,0.1,0.5l0,0.1c0,0.4,0.2,0.8,0.5,1.3L183.5,153.4z M183.3,155.8l0-0.2c0-0.1-0.1-0.2-0.1-0.4
				l-0.1-0.2c0-0.1-0.1-0.1-0.1-0.2c0,0.2,0,0.5,0,0.7l0,0.4l0,0.3c0,0.2,0,0.4,0,0.6c0,0.3,0,0.5,0.1,0.8
				C183.2,156.8,183.3,156.2,183.3,155.8z"/>
			<path class="st0" d="M193.7,150c-0.2,0-0.4-0.1-0.7-0.1c0,0-0.1,0.1-0.1,0.2l-0.1,0.1l-0.1,0.1c0,0.1,0,0.1,0,0.2
				c0,0.3,0.1,0.6,0.2,0.9c0.4,0.9,0.7,2,0.9,3.4c0,0.1,0,0.2,0,0.3l0,0.8c-0.2-0.1-0.3-0.3-0.3-0.6l-0.1-0.3c0-0.1,0-0.2-0.1-0.3
				l-0.2-0.6l-0.2-0.6c-0.1-0.5-0.3-0.9-0.4-1.3l0,0.2l0,0.2l-0.1,4.3l0,0.7c0.2-0.1,0.2-0.3,0.2-0.5l0-0.3c0-0.1,0-0.2,0-0.3
				c0.1-0.1,0.1-0.3,0.1-0.5l0-0.6c0.2,0.1,0.3,0.2,0.3,0.3c0,0.2,0,0.5-0.1,0.8l-0.1,0.8l0.1,0.1l0.1,0.1l0,1.3l0.4,0.3l0.4,0.3
				c0.3,0.2,0.5,0.5,0.7,0.6c0.8,0,1.7-0.2,2.7-0.5c1.1-0.4,1.9-0.9,2.6-1.4c0,0,0.1,0,0.2,0.1l0.1,0l0.1,0c0.1,0,0.1,0,0.2,0.1
				c0.1,0,0.2,0,0.2-0.1l0.1-0.1l0.2-0.1c0.2-0.1,0.3-0.1,0.5-0.1c0.1,0,0.1,0,0.2,0l0.1,0.1l0.1,0.1l0.1,0.1l0,0.6
				c-0.2,0.2-0.5,0.4-0.9,0.6l-0.5,0.2l-0.5,0.2l-1.2,0.6l-1.3,0.6c-0.1,0-0.2,0.1-0.4,0.2l-0.2,0.1l-0.2,0.1l0.1,0.6l0.1,0.6
				c-0.1,0.2-0.3,0.3-0.5,0.5l-0.3,0.2l-0.3,0.2c-0.3,0.2-0.8,0.5-1.3,0.7l-0.6,0.3l-0.7,0.4l-0.1,0.1l-0.1,0.1l-0.1,0.1l0.1,0.6
				l0.2,0.8l0.1,0.8c0.1,0.6,0.2,1.1,0.3,1.5c0,0.2,0.1,0.5,0.1,0.8l0,0.5l0,0.5c-0.4-0.4-0.7-0.9-1-1.5c-0.1-0.2-0.2-0.5-0.3-0.8
				l-0.1-0.4l-0.1-0.4l0,0.2c0,0.1,0,0.1,0,0.2l0.1,0.7l0.1,0.7c0.1,0.5,0.2,0.9,0.3,1.3c0.1,0.5,0.3,1.1,0.5,1.8l0.5,1.8
				c0,0.1,0,0.2,0.1,0.4l0.1,0.5l0.1,0.5l0,0.1c0,0.1,0,0.3-0.1,0.4c-0.7-1.4-1.3-2.9-1.8-4.6l-0.8,0c0.1-0.4,0.1-0.7,0.1-1.1
				c0-0.3,0-0.5-0.1-0.8c0,0.1-0.1,0.3-0.1,0.6c-0.2-0.1-0.3-0.3-0.3-0.6l-0.1-0.5l-0.1-0.5l0-0.6l0.2-2.1l0.1-0.7l-0.2-0.1
				l-0.1-0.1c-0.1-0.1-0.2-0.1-0.3-0.1c-0.8-0.1-1.7-0.6-2.5-1.4l-0.1-0.1l-0.2-0.1c-0.1-0.1-0.2-0.2-0.3-0.3
				c-0.2-0.2-0.3-0.4-0.3-0.6c0-0.1-0.1-0.4-0.2-1l-0.4-0.5c-0.2-0.2-0.3-0.3-0.4-0.5l-0.2-0.2l-0.2-0.2c-0.2-0.2-0.3-0.3-0.4-0.4
				c0-0.1-0.1-0.1-0.1-0.2c0-0.1,0-0.1,0-0.2c0-0.1,0-0.1,0.1-0.2l0.1-0.2c0.1-0.2,0.2-0.5,0.2-0.7c0-0.2,0-0.3-0.1-0.5
				c-0.1-0.1-0.1-0.3-0.1-0.5c0,0,0-0.1,0-0.1l0.1-0.1l0-0.1l0.2,0.2l0.1,0.2c0.1,0.2,0.2,0.3,0.2,0.3c0.1,0,0.3,0,0.4-0.1
				c1,0.7,1.9,1.4,2.9,2.1c0.2-0.1,0.3-0.3,0.4-0.4c0.1,0,0.2,0,0.3,0.1l0.2,0l0.2,0c0-0.2,0-0.4,0-0.6l0-1.7l-0.1-0.1l-0.1-0.1
				c-0.1-0.1-0.2-0.1-0.2-0.1l-1-0.5l-1-0.5l-0.1-0.1c-0.1,0-0.1,0-0.1-0.1c-0.1-0.1-0.1-0.2-0.2-0.3l0.3,0l1.1,0.5l1.1,0.5
				c0,0,0.1,0.1,0.2,0.1l0.1,0c0.1,0,0.1,0.1,0.1,0.1c0-1-0.1-2-0.3-3.2c-0.1-0.4-0.2-1-0.2-1.6l-0.3-1.6l-0.1,0l-0.1,0l-0.2-0.1
				c-0.9-0.2-1.7-0.5-2.4-1c-0.1-0.1-0.3-0.2-0.5-0.4c-0.2-0.2-0.4-0.3-0.7-0.4l-0.8-0.3l-0.2-0.7l0.1-0.1c0,0,0.1-0.1,0.1-0.1
				c0.2,0,0.5,0,0.9-0.1l0.5-0.1l0.5-0.1c0.1,0,0.1,0,0.2,0c0.1,0,0.2,0,0.2,0l0.2,0l0.2,0l0.6,0.1l0.6,0c0,0,0.1,0,0.1-0.1l0,0
				l0.1-0.1l-0.2-0.6l-0.1-0.6c0.1-0.2,0.3-0.3,0.6-0.4l0.6-0.2l0.2,0l0.1,0.1c0.1,0,0.2,0.1,0.3,0.1l0.1,0c0.2,0,0.4-0.1,0.5-0.2
				c0.8,0.2,1.7,0.4,2.8,0.4c0.6,0,1.2,0,1.9-0.1c0.7-0.1,1.3-0.2,1.6-0.3l0.3-0.1c0.1,0,0.2,0,0.2-0.1c0.2-0.1,0.3-0.2,0.5-0.3
				c0,0,0.1-0.1,0.1-0.1l0.1,0l0.1,0c0.1,0.1,0.1,0.2,0.1,0.3c0,0.1,0,0.2,0,0.3l-0.1,0.1l0,0.1l0,0.1c0,0.1,0,0.1,0,0.2
				c-0.4,0.3-0.9,0.6-1.6,0.7c-0.2,0-0.5,0.1-0.9,0.1l-0.4,0.1l-0.5,0.1c0.1,0,0.2,0,0.4,0.1l0.2,0l0.2,0c0.3,0.1,0.5,0.1,0.7,0.1
				l0.6,0.1c0.2,0,0.4,0,0.6,0c0.3,0,0.7-0.1,1.1-0.2l0.9-0.2l0.9-0.2c0.7-0.2,1.2-0.3,1.7-0.4l0.5-0.1l0.6-0.1
				c0.4-0.1,0.8-0.2,1.1-0.3c0.1,0,0.3-0.1,0.4-0.1c0.3,0,0.6,0.1,0.9,0.4l0,0.5l-0.1,0.3l-0.1,0.3c-0.1,0.2-0.2,0.5-0.3,0.7
				c-0.3,0.4-0.9,0.7-1.8,0.9c-1,0.2-2.1,0.3-3.1,0.3l-0.5,0c-0.3,0-0.7,0.1-1.1,0.2l-0.5,0.1l-0.5,0.2l-0.9,0.3l-0.9,0.3
				c-0.7,0.2-1.3,0.3-1.8,0.4C193.8,149.8,193.7,149.9,193.7,150L193.7,150z M188.9,147.4l-1.2,0l0,0.1L188.9,147.4L188.9,147.4z
				 M190.3,159.7c0.1,0,0.1,0.1,0.1,0.1c0,0,0.1,0,0.1,0c0.1,0,0.1,0,0.2-0.1c-0.1,0-0.1,0-0.2-0.1l-0.2-0.1c-0.1,0-0.2,0-0.2-0.1
				L190.3,159.7z M190.2,145.8l0.1,0.2c0.1,0.2,0.1,0.3,0.1,0.3c0.1,0.3,0.3,0.4,0.4,0.6l0.3,0l0.3,0c0.2,0,0.4,0,0.5-0.1
				c-0.4-0.3-0.7-0.7-1.2-1.1l-0.1-0.1l-0.1,0c-0.1-0.1-0.3-0.1-0.4-0.1L190.2,145.8z M193,159.9l0-0.5l0-0.4c0-0.2-0.1-0.3-0.3-0.3
				c0,0.1,0.1,0.2,0.1,0.3l0,0.2l0,0.2c0,0.3,0,0.5,0.1,0.6L193,159.9z M193,161.1l0-0.2c0,0,0-0.1,0-0.1c0,0,0,0,0-0.1
				c0,0,0,0-0.1-0.1l-0.1-0.1l-0.1-0.1l0,0.2c0,0,0,0.1,0.1,0.1l0.1,0.1L193,161.1z M193.4,161.1l0.6,0c-0.3-0.1-0.5-0.2-0.5-0.3
				c0,0,0,0.1,0,0.1L193.4,161.1L193.4,161.1z M194.2,161.6c-0.1,0-0.1,0.1-0.2,0.1l-0.1,0l-0.1,0c-0.2,0-0.3,0.1-0.4,0.3
				c0,0.1,0,0.2,0.1,0.3C193.8,162.1,194,161.8,194.2,161.6z M193.4,160L193.4,160l0.1,0l0.1,0l0-0.3c0-0.1-0.1-0.2-0.2-0.3
				L193.4,160z M193.7,150l0.2,0.1l0,0.1c0,0.6-0.1,1.1-0.4,1.3c-0.1-0.1-0.1-0.2-0.1-0.3c0,0,0-0.1,0-0.1l0-0.1l0-0.1
				c0-0.1,0.1-0.1,0.1-0.2c0-0.1,0-0.2,0.1-0.4L193.7,150L193.7,150z M194.2,160.5l0,0.2l0.6,0.2l0.1,0l0.1-0.1l0.2-0.1
				c-0.1-0.1-0.3-0.2-0.5-0.2c-0.1,0-0.1,0-0.2,0L194.2,160.5z M194.7,167.6l0.1,0l0.1,1.1l0.1,1.1l-0.1,0l-0.2,0
				c-0.1-0.7-0.2-1.3-0.2-1.8c0-0.2,0-0.4,0-0.6C194.6,167.6,194.6,167.6,194.7,167.6z M196.1,160.2c-0.2,0-0.3,0.1-0.4,0.2
				c0.1,0,0.1,0.1,0.2,0.1c0,0,0.1,0,0.1,0c0,0,0.1,0,0.1-0.1l0.1-0.1l0.1,0C196.2,160.2,196.1,160.2,196.1,160.2z"/>
			<path class="st0" d="M225.8,150.4l-0.2,0.3l-0.2,0.3l0,0.1c0,0,0,0.1,0,0.1c0.3,0.7,0.5,1.5,0.5,2.4c0,0.6-0.1,1.2-0.2,1.9
				c-0.1,0.3-0.2,0.5-0.3,0.7c-0.2,0.4-0.5,0.8-0.8,1.3l-0.4,0.7l-0.4,0.7l-0.1-0.3c-0.1-0.1-0.1-0.2-0.2-0.3
				c-0.1-0.1-0.1-0.2-0.2-0.3l-0.1-0.1l-0.2-0.2l-0.8,0c-0.1-0.1-0.2-0.2-0.5-0.3l-0.2-0.2l-0.3-0.2L221,157l-0.1,0.1
				c-0.1,0.1-0.2,0.1-0.3,0.2c-1.6,1.3-3.3,2.1-5.2,2.5c-0.2,0.1-0.3,0.1-0.6,0.2l-0.3,0.1l-0.3,0.1c0.4,0.6,1.1,1.3,2,2l0.5,0.4
				l0.5,0.4c0.4,0.3,0.7,0.6,1,0.8c0.2,0.2,0.5,0.5,0.9,0.9l0.5,0.5l0.5,0.5c0.5,0.5,1.2,1.1,1.9,1.9l1.7,2.1c0.9,1,2,2,3.4,3
				l1.5,1.1c0.6,0.4,1.1,0.8,1.5,1.1l0.4,0.3c0.1,0.1,0.2,0.2,0.3,0.3c0.3,0.2,0.5,0.5,0.6,0.7l1.5,1.2c-0.1,0.1-0.2,0.1-0.3,0.1
				l-0.1,0c0,0-0.1-0.1-0.2-0.1l-0.2-0.1l-0.5-0.2c-0.2-0.1-0.4-0.1-0.5-0.2c-0.3-0.1-0.5-0.2-0.8-0.2c-0.1,0-0.2,0-0.3,0l-0.1,0
				l-0.1,0l0.4,0.6l0.4,0.5c0.3,0.4,0.6,0.8,0.7,1.2c0.2,0.5,0.8,1.2,1.8,2.3c-0.2,0-0.3,0-0.4,0l-0.1,0c-0.1,0-0.1-0.1-0.2-0.1
				l-0.2-0.2c-0.6-0.4-1.5-0.9-2.7-1.3c-0.2-0.1-0.5-0.2-0.8-0.5c-0.2-0.2-0.5-0.5-0.9-0.9l-1-1c-0.4-0.4-0.8-0.7-1-1l-1.5-1.5
				l-1.5-1.5l-1.3-1.3l-1.3-1.3l-1-1l-1.1-1l-1-1l-1-0.9l-0.8-0.7c-0.3-0.3-0.6-0.5-0.8-0.7c-0.8-0.7-1.4-1.3-1.7-2
				c-0.1,0.8-0.2,1.5-0.3,2.3l-0.2-0.4l0.1-1.9l0-0.4l0-0.4l-0.2-0.3l-0.2-0.3l0-0.3l0-0.3c-0.2-0.4-0.5-0.6-0.9-0.6
				c-0.2,0-0.4,0.1-0.7,0.2l0,0.3l0,0.3l0,3.1l0,0.3c0,1.5,0.2,3.1,0.6,4.9c0,0.1,0,0.3,0.1,0.5l0.1,1.7c0,0.6,0.1,1.2,0.1,1.7
				c0,0.2,0,0.5,0.1,0.8l0.1,0.4l0.1,0.4l0.5,3.2l0.1,0.8l0.1,0.8c-0.1,0-0.1,0-0.2,0c-0.1,0-0.1,0-0.2-0.1c0,0-0.1-0.1-0.1-0.2
				l0-0.1l0-0.1c-0.2-0.4-0.4-0.8-0.6-1.4l-0.6-1.4c-0.1-0.3-0.4-0.9-0.7-1.8c0,0.2,0,0.3,0,0.5l0,0.5c0,0.4,0,0.7,0,0.9l0,0.4
				l0,0.4c0,0.4-0.1,0.7-0.2,0.9l-0.5,0.1c-0.2,0.1-0.3,0.1-0.5,0.1c-0.1-0.5-0.2-1.2-0.3-2.1l0-0.5l0-0.5c0-0.4-0.1-0.7-0.1-1.1
				c-0.2-0.2-0.3-0.7-0.4-1.3c0-0.3-0.1-0.6-0.1-1l-0.2-1c0-0.1,0-0.3,0-0.6l0-2.2c0-0.5-0.1-1-0.2-1.5l-0.2-1l-0.2-1
				c-0.2-0.8-0.3-1.5-0.3-2c0-0.3-0.1-0.6-0.1-1l-0.1-1l-0.1-1.4l-0.1-1.4c0-0.3-0.1-0.6-0.3-0.8l0,1.6l0,0.8l0,0.7c0,0.4,0,0.7,0,1
				l0,0.4c0.1,0.8,0.1,2,0.1,3.4l0,1.1c0,0.6-0.1,1.5-0.1,2.7l-0.1,1.4l0,1.4l0,0.9l0,0.9c0,0.7,0,1.4,0.1,1.9
				c0,0.3,0.1,0.8,0.1,1.3l0.1,0.7l0.1,0.7c-0.2-0.1-0.3-0.2-0.4-0.3c0-0.1,0-0.2-0.1-0.3l-0.1-0.2c-0.2-1.2-0.3-2.2-0.3-3.1l0-2.1
				c0.1-1.6,0.2-3.5,0.1-5.8l0-8.1l0-0.7l0-0.7c0-0.6,0-1.1,0-1.5c0-1.3-0.1-2.8-0.2-4.4c0-0.2,0-0.4-0.1-0.7l-0.1-0.3l-0.1-0.3
				c-0.2-0.8-0.3-1.6-0.3-2.3l0-0.3c0-0.2,0-0.4,0-0.5c0-0.6-0.1-1.4-0.3-2.2l0.1-0.1l0.1-0.1c0.1-0.1,0.2-0.2,0.3-0.3
				c-0.3-0.2-0.8-0.4-1.3-0.7l-1.3-0.7l-0.1-0.3l-0.1-0.3l0.2-0.8l0.1-0.4l0.1-0.4l-1.1-1l-0.7-0.7l-0.7-0.7
				c-0.4-0.4-0.6-0.8-0.6-1.2c0-0.1,0-0.2-0.1-0.3l-0.1-0.2l-0.1-0.2c0.2-0.4,0.4-0.7,0.5-1c0.1-0.1,0.2-0.1,0.3-0.1l0.1,0l0.4,0.1
				c0.6,0.1,1.2,0.4,1.9,1l1.2,1.1l1.2,1.1c0.9,0.8,1.7,1.6,2.3,2.4c0.9,1,1.9,1.7,3.1,2.2c1.2,0.5,2.7,1.1,4.3,1.8
				c0.3,0.1,0.6,0.2,0.8,0.2c0.3,0,0.6-0.1,0.8-0.3l0.1-0.1l0.1,0c0.1,0,0.3,0,0.4,0c0.4,0,0.8,0.1,1.1,0.3c0.4,0.2,0.8,0.4,1.3,0.7
				l0.7,0.3l0.7,0.3c0.6,0.3,1.3,0.9,2,1.9l1.2,0.3c0.3-0.4,0.7-0.9,1.1-1.5l0.6-0.7l0.6-0.7c0.1,0.2,0.1,0.5,0.1,0.8l0,0.2l0,0.2
				l0,0.2l-0.1,0.5c-0.1,0.5-0.1,1.1-0.2,1.7c0.2,0.4,0.3,0.8,0.5,1.2C226.1,149.9,226,150.1,225.8,150.4z M206,155.5
				c0-0.2,0-0.3,0-0.5l0-0.3l-0.1-0.3c0-0.3-0.1-0.5-0.1-0.7l0,0.7l0,0.7c0,0.5,0,0.9,0.1,1.4C206,156.2,206,155.9,206,155.5z
				 M207.1,144.9c-0.3-0.3-0.8-0.6-1.3-0.7c0.1,0.9,0.2,2.1,0.2,3.7c0.2-0.3,0.3-0.6,0.4-0.8l0.1-0.9l0-0.4l0.1-0.4
				c0.1-0.1,0.1-0.2,0.2-0.2L207.1,144.9z M211.1,156.5l0.2,0.2l0.2,0.2c0.2,0.2,0.4,0.3,0.7,0.3c0.1,0,0.2,0,0.3,0
				c0.1-0.3,0.1-0.7,0.1-1.2c0-0.8-0.1-1.9-0.3-3.2c-0.3-2.2-0.7-3.9-1.2-5.2l-1.5-0.6c0,0.1,0,0.3,0,0.5c0,0.7,0.1,2,0.4,3.6
				c0.3,2.2,0.6,3.9,0.9,5.1C210.8,156.2,210.9,156.3,211.1,156.5z M209.6,153.2l0.1,1l0.1,1c0,0,0.1,0.1,0.2,0.3l0-0.2
				c0-0.3,0-0.6-0.1-1l-0.1-0.5L209.6,153.2z M217.7,148.9l-1.8-0.5l-1.8-0.5c-0.1,0.1-0.2,0.2-0.3,0.3c-0.2,0-0.4,0-0.6-0.1
				l-0.3-0.2l-0.3-0.1c-0.4-0.2-0.7-0.3-0.9-0.3c-0.1,0-0.1,0-0.2,0l0.2,1.2l0.3,1.2c0.2,0.9,0.4,1.7,0.4,2.3
				c0.1,0.6,0.2,1.4,0.2,2.4l0.1,1.2c0,0.5,0,0.9,0.1,1.2l0.7-0.2l0.7-0.2c0.5-0.2,0.9-0.4,1.3-0.5c1.1-0.5,2.1-1.2,2.8-2
				c0.4-0.4,0.8-0.9,1.3-1.5l1.3-1.5c0-0.1,0.1-0.1,0.2-0.2l0.1-0.1l0.1-0.1c-0.6-1.4-1.4-2.1-2.5-2.2
				C218.3,148.6,217.9,148.8,217.7,148.9z"/>
			<path class="st0" d="M222.7,171.4c0.7-0.4,1.3-0.7,1.8-1l0,0c0.3-0.1,0.5-0.2,0.7-0.3c0,0,0,0,0.1-0.1c0.1,0,0.1,0.1,0.1,0.1
				l1.2,0.1c0.4,0,0.8,0.1,1.2,0.1c0.2,0,0.5,0,0.8,0l0.4-0.1l0.4,0l2.3-0.1l2.3-0.1c0.2,0,0.5,0,0.8-0.1l0.4,0l0.4,0
				c0-0.1-0.1-0.2-0.1-0.3l-0.1-0.1l-0.1-0.1c-0.1-0.2-0.2-0.3-0.2-0.5l0.1-0.3l0.1-0.3c0.1-0.2,0.2-0.3,0.3-0.4
				c0.1,0,0.2-0.1,0.3-0.1l0.2,0l0.7,0.1l0.7,0.1c0.3,0.1,0.7,0.1,1.1,0.2l0.6,0.1c0.3,0,0.5,0.1,0.6,0.1c0.1,0,0.2-0.1,0.4-0.1
				l0.2-0.1l0.2-0.1c0.4-0.1,0.6-0.3,0.9-0.5c0-0.2,0.1-0.4,0.2-0.7l0.1-0.7c0.1-0.5,0.2-0.9,0.2-1.3l0-0.1l-0.2,0l-0.2,0
				c-0.1,0-0.2,0-0.3,0.1c-0.2,0.1-0.3,0.1-0.5,0.1c-0.3,0-0.6-0.1-0.8-0.4c-0.2,0-0.4,0-0.5,0c-0.3,0-0.6,0-0.8-0.1
				c-0.9-0.2-1.6-0.6-2.3-1.1c-0.3-0.3-0.5-0.7-0.6-1.3c0.5,0,0.9,0,1.2,0.1l-0.5-0.5l-0.5-0.5c-0.4-0.4-0.7-0.7-0.9-1
				c-0.3-0.2-0.5-0.5-0.7-0.8c0.5,0.3,1.1,0.6,1.7,0.9c0.9,0.9,1.6,1.7,2.1,2.4c0,0.1,0.1,0.1,0.2,0.2l0.2,0.3
				c0.6-0.6,1.3-1.3,2-2.1l0,0.1l0,0c0,0,0,0,0,0.1l0.1,0c0.3-0.2,0.5-0.5,0.7-0.9l0,0c0,0,0,0,0-0.1l0.1,0l0.5-0.6
				c0.2-0.2,0.4-0.4,0.6-0.6c0.4-0.3,0.6-0.8,0.7-1.4c0.1-0.8,0.3-1.4,0.4-1.9c0.2-0.6,0.3-1,0.3-1.3c0.3-1.6,0.4-3,0.4-4.2l0-0.3
				c0-0.1,0.1-0.2,0.2-0.3l0.2,0l0.3,0c0-0.1,0-0.2,0-0.3c0-0.1,0-0.3-0.1-0.4l-0.7,0.4l-0.7,0.4c-0.1,0-0.2,0.1-0.3,0.2l-0.3,0.2
				l-0.3,0.3l-0.3,0.3l-1.1,0.9c-0.4,0.3-0.8,0.6-1.1,0.9c-1,0.8-2.2,1.5-3.5,2c-0.1,0-0.2,0.1-0.4,0.1l-0.2,0l-0.2,0
				c-0.2-0.2-0.4-0.5-0.7-0.8c-0.1-0.1-0.2-0.1-0.3-0.2l-0.2-0.1l-0.2-0.1c-0.3-0.1-0.5-0.2-0.6-0.4c0.6-0.4,1-0.6,1.4-0.6l0.1,0
				c0.1,0,0.3,0,0.5-0.1l0.2-0.1l0.2-0.1c-0.1-0.1-0.2-0.1-0.3-0.1l-0.7,0.1c-0.3,0-0.5,0.1-0.6,0.1c-0.3,0-0.6,0-0.9,0l-0.5,0
				l-0.5,0c-0.9,0-2-0.2-3.2-0.4c-0.7-0.1-1.2-0.4-1.7-0.7c-0.7-0.5-1.5-1.3-2.3-2.5l-0.1-0.3c0.6,0.2,1,0.3,1.2,0.5
				c0.4,0.3,0.8,0.4,1.1,0.4l0.1,0c0.1,0,0.1,0,0.2,0l0.2,0.1l0.6,0.2l0.6,0.2c0.9,0.3,2,0.5,3.2,0.6c0.5,0,1,0.1,1.5,0.1
				c0.8,0,1.5-0.1,2.2-0.2c1.3-0.2,2.6-0.6,3.8-1.1c0.7-0.3,1.4-0.7,1.9-1.3c0.5-0.6,1.1-1.1,1.7-1.7c0.8-0.7,1.5-1,2.2-1
				c0.1,0,0.2,0,0.3,0l0.1,0l0,0c0.1,0,0.1-0.1,0.2-0.1l0.1-0.1l0.1-0.1c0.1-0.1,0.2-0.2,0.3-0.2l0.1,0c0.1,0.2,0.1,0.4,0.1,0.6
				c0,0.1,0,0.2,0,0.4c0,0.1,0,0.3-0.1,0.5l-0.1,0.3l-0.1,0.3c0.1,0,0.2,0.1,0.4,0.2l0.1-0.1l0.1-0.1c0.1-0.1,0.1-0.1,0.1-0.2
				l0.3-0.9l0.3-0.9c0.5-1.4,1.2-2.5,2.1-3.4c0.3-0.3,0.6-0.5,0.9-0.6c0.1,0.1,0.2,0.1,0.3,0.1l0.2,0.1l0.1,0.1
				c0.2-0.2,0.5-0.4,0.7-0.6l0.3-0.3l0.3-0.3c0,0.2-0.1,0.5-0.3,0.7l-0.2,0.3c-0.1,0.1-0.2,0.2-0.2,0.3l0,0.1l0,0.2
				c0,0,0,0.1-0.1,0.2l-0.1,0.2c-0.3,0-0.6,0.2-0.8,0.5l-0.3,0.3c-0.1,0.1-0.2,0.2-0.3,0.3c-0.5,0.8-0.9,1.5-1.1,2.3
				c1.3-1.1,2.2-2,2.8-2.8c0.6-0.7,1.2-1.8,1.8-3.4c0.1,0,0.1,0,0.2,0.1l0.1,0l0.1,0l0,0.1l0,0.1c0,0.1-0.1,0.2-0.1,0.2
				c-0.5,1.3-1.1,2.5-2.1,3.6c-0.7,0.8-1.6,1.6-2.7,2.4c-0.3,0.3-0.6,0.6-0.7,1l-0.6,1.9c-0.3,0.8-0.5,1.4-0.6,1.9
				c-0.3,0.9-0.6,2.1-1,3.5l-0.5,1.8c-0.2,0.7-0.3,1.3-0.5,1.8c0,0,0,0.1-0.1,0.2l0,0.1c0,0.1,0,0.1,0,0.1c0.2-0.1,0.3-0.1,0.3-0.1
				l1.3-0.9c0.5-0.4,0.9-0.7,1.3-0.9c0.3-0.2,0.7-0.4,1-0.4c0.8-0.1,1.5-0.3,2.1-0.4c0,0,0.1,0,0.1,0c0.1,0,0.1,0,0.2,0.1l-0.3,0.3
				l-0.3,0.3c-0.2,0.3-0.4,0.5-0.5,0.7c-0.2,0.4-0.7,0.9-1.4,1.4l-0.2,0.2l-0.2,0.2c-0.2,0.1-0.4,0.2-0.5,0.3
				c-0.7,0.5-1.3,1.1-1.8,1.5c-0.2,0.2-0.5,0.5-0.8,0.8l-0.9,0.8c-0.2,0.2-0.3,0.4-0.3,0.7l0,0.1l0.1,0.6c0,0.2,0,0.4,0,0.6
				c0,0.8,0.1,1.6,0.3,2.5c0.2,0.9,0.4,1.6,0.7,2c0.1,0.1,0.2,0.2,0.3,0.4l0.1,0.2l0.2,0.2l0,0.1c0,0.2-0.1,0.4-0.2,0.7l-0.1,0.2
				l-0.1,0.2c-0.1,0.2-0.1,0.3-0.1,0.4l-0.1,0c-0.3,0-0.5,0-0.7-0.1c-0.3-0.1-0.5-0.2-0.8-0.2c-0.1,0-0.2,0-0.3,0l0.3,0.3
				c0.1,0.1,0.2,0.2,0.2,0.3c0.2,0.2,0.3,0.4,0.4,0.6l-0.1,0.1l-0.1,0.1c-0.5-0.1-0.9-0.3-1.2-0.4l-0.2,0.4
				c-0.1,0.2-0.1,0.3-0.2,0.4c-0.1,0.3-0.4,0.5-0.7,0.6l-1.5-0.5l-1.5-0.5l-0.3-0.1l-0.3-0.1c-0.2-0.1-0.4-0.1-0.6-0.1
				c-0.5,0-0.9-0.1-1.3-0.1c-0.7,0-1.3,0.1-1.8,0.2c-1.3,0.3-2.2,0.5-2.9,0.6c-0.5,0.1-1.1,0.1-1.6,0.1c-0.4,0-0.8,0-1.2-0.1
				c-0.3,0-0.7-0.1-1.2-0.2l-0.3-0.1l-0.3-0.1c-0.2-0.1-0.4-0.1-0.5-0.1c-0.1,0-0.2,0-0.2,0l-0.1,0l-0.1,0c-0.1,0-0.3,0-0.3,0.1
				c-0.4,0.2-0.9,0.3-1.4,0.3c-0.3,0-0.6,0-0.9-0.1l-0.2,0l-0.2,0l-0.4,0l-0.4,0.1c-0.2-0.2-0.3-0.4-0.4-0.6c0,0-0.1,0-0.1,0l-0.1,0
				l-0.1,0c-0.1,0-0.2-0.1-0.2-0.2L222.7,171.4z M244.3,167.1l-0.1-0.5c-0.1-0.4-0.1-0.8-0.1-1.2c-0.1,0.9-0.3,1.6-0.3,2
				c0.1,0,0.1,0,0.2,0.1l0.1,0.1c0.1,0,0.1,0.1,0.2,0.1c0,0,0.1,0,0.1,0L244.3,167.1z M243.8,169.5L243.8,169.5
				c-0.1,0-0.2,0-0.3,0.1c0.2,0.1,0.3,0.2,0.4,0.2l0.4,0C244,169.6,243.9,169.5,243.8,169.5z M241.2,160.4c-0.1,0.2-0.2,0.4-0.4,0.6
				c0-0.1,0-0.3,0-0.4l0-0.2C240.9,160.4,241,160.4,241.2,160.4z"/>
			<path class="st0" d="M258.8,157.3l0.1,0.2l0.1,0.1c0.1,0.2,0.2,0.3,0.3,0.4c0.6,0.2,1,0.7,1.1,1.4c0.1,0.2,0.1,0.5,0.2,0.7
				l0.2,0.4l0.2,0.3c0.1,0.1,0.1,0.3,0.2,0.4l0.1,0.2l0.1,0.2c0-0.1,0-0.1,0-0.2c0-0.1,0-0.3-0.1-0.4l-0.5-1.5l-0.5-1.5l-0.1-0.2
				l0.1-0.2c0-0.1,0-0.1,0.1-0.2l-0.3-0.6l-0.3-0.6l-0.6-1.2l0.1,0l0.1,0.1c0,0,0.1,0,0.1,0.1c0.5,0.5,0.9,1.3,1.2,2.2
				c0.1,0.4,0.3,0.9,0.5,1.6l0.5,1.6c0.2,0.7,0.4,1.4,0.7,1.9c0.1,0.4,0.3,0.8,0.5,1.2l0.5,1.2c0,0,0.1,0.1,0.2,0.2
				c0-0.1,0-0.3,0-0.5l0.1-0.4c0-0.3,0.1-0.6,0.1-0.8l0.1-1.1l0.1-1.2l0.1-0.8l0.1-0.7l0.1-1.3l0.1-1.3l0.1-0.3l0.1-0.3
				c0.1-0.3,0.1-0.5,0.1-0.6l0-0.3l0-0.2c0-0.1,0-0.2,0-0.2c0.1-0.1,0.2-0.3,0.2-0.5c0-0.1,0-0.2,0.1-0.3l0.1-0.3l0.3-1.5l0.3-1.5
				l0.1-0.5c0-0.2,0.1-0.4,0.1-0.6c0.1-0.6,0.1-1.2,0.1-2l0.1-1.9l0-1.9l0-1.4c0-0.5,0-1,0.1-1.4l0.1-0.6l0.1-0.6
				c0.1-0.5,0.1-0.9,0.3-1.2l0.1,0l0.1,0c0.1,0.1,0.1,0.2,0.1,0.3c0,0.1,0,0.1,0,0.2l-0.1,0.1l0,0.1l0,0.3c0,0,0.1,0.1,0.1,0.1
				l0.1,0.1l0.1,0.1l0,0.6c0.2,0,0.5,0.1,1,0.1c0.2-0.1,0.4-0.1,0.6-0.1c0.3,0,0.6,0.1,0.9,0.4l0,0.6l0,0.6c0,0.5,0,0.9-0.1,1.2
				c-0.1,0.3-0.1,0.7-0.1,1.2l-0.1,0.6l-0.1,0.6l-0.2,1.2l-0.2,1.2l-0.2,1.4l-0.2,1.4l-0.2,1l-0.2,1.1c0,0.2,0,0.4-0.1,0.7l-0.1,0.7
				l-0.1,0.8l-0.1,0.8l0,0.1l0,0.2l-0.1,0.7l-0.1,0.7c-0.1,0.7-0.1,1.5-0.1,2.4l0,0.7l0,0.7c0,0.6,0,1-0.1,1.4c0,0.2-0.1,0.6,0,1
				l0,0.5l0,0.5c0,0.1,0,0.2,0,0.3l0,0.2l0,0.2c0,0,0,0.1,0.1,0.2l0.1,0.1l0.1,0.1l0.1-0.2l0-1l0-1c0-0.8,0-1.5,0.1-2
				c0-0.2,0-0.4,0-0.6l0-0.6c0-0.5,0.1-1,0.2-1.3c0,0,0-0.1,0-0.1l0-0.2c0-0.5,0.1-1.3,0.2-2.4l0.1-0.4l0-0.4c0-0.4,0-0.6,0.1-0.8
				c0.1-0.4,0.1-0.9,0.2-1.4l0.3-1.5c0.1-0.4,0.2-0.8,0.3-1.4c0.1-0.2,0.2-0.4,0.3-0.5l0,0.1l0,0.1c0,0,0,0.1,0,0.1c0,0,0,0.1,0,0.1
				c-0.2,0.6-0.3,1.2-0.5,1.9l-0.2,1l-0.2,1c-0.1,0.4-0.1,0.8-0.2,1.3l-0.1,0.7l-0.1,0.6l-0.3,3.5l0,0.1l-0.1,4.8l0,0.1
				c0,0.1,0,0.2,0.1,0.4c0.1-0.8,0.2-1.7,0.4-2.8l0.2-1.4l0.2-1.4c0.3-2.4,0.5-4.4,0.8-5.8c0.1,0.2,0.1,0.3,0.1,0.4
				c-0.1,0.3-0.1,0.8-0.2,1.3l-0.2,1.3l-0.1,0.7L269,159c-0.1,0.4-0.1,0.8-0.2,1.2l-0.1,0.8c0,0.3-0.1,0.6-0.1,0.8l-0.2,1.2
				l-0.2,1.2l-0.1,0.5l-0.1,0.5l-0.2,1.7l-0.2,1.7c-0.1,0.3-0.1,0.8-0.1,1.4c-0.1,1.1-0.1,1.9-0.1,2.4c0,0.2,0,0.4,0.1,0.7
				c0.1,0.2,0.1,0.4,0.1,0.6c0,0.1,0,0.2,0,0.3c-0.1,0-0.2,0-0.3-0.1l-0.1,0.1l-0.1,0.2c0,0.1-0.1,0.2-0.1,0.3l0,0.2
				c0,0.2,0,0.5-0.1,0.8l-0.2,1c-0.1,0.8-0.2,1.4-0.2,1.9c0,0.1,0,0.3,0,0.4l0.2,0c0.1,0,0.1,0,0.2,0l0.1,0.1l0.1,0.1
				c0.1,0.1,0.1,0.2,0.2,0.3l-0.2,0.2l-0.1,0.1l0.4,1l0.4,1c0,0.1,0.1,0.3,0.1,0.4c0,0.1,0,0.2,0,0.4c-0.1,0-0.2,0-0.2-0.1
				c0,0,0-0.1,0-0.1l0-0.1l0-0.1c-0.1-0.2-0.2-0.4-0.3-0.7l-0.3-0.7c-0.1-0.3-0.3-0.4-0.5-0.4l-0.1,0.8l-0.1,0.8l-0.1,0.4l-0.1,0.4
				l-0.2,0.8l-0.2,0.8c0,0.2-0.1,0.4-0.2,0.7l-0.2,0.7c-0.1,0.5-0.2,1-0.2,1.4c0,0-0.1,0.2-0.2,0.6l-0.1-0.4l0-1.2
				c0-0.4,0-0.8-0.1-1.2l-0.1-0.8l-0.1-0.8l0-0.1c0,0,0-0.1,0-0.1c-0.1-0.3-0.2-0.6-0.2-1l0-1c0-1,0-1.9,0-2.8l0-0.3l0-0.2
				c0-0.1,0-0.2,0-0.3l0-0.1c0-0.2,0-0.3,0-0.6l-0.1-0.6c0,0-0.1-0.1-0.2-0.1l-0.1-0.1l-0.1-0.1l-0.1-0.2l0-0.2c0-0.2,0-0.3-0.1-0.4
				l-0.1-0.2l-0.1-0.2c-0.1-0.2-0.1-0.3-0.2-0.4c-0.1-0.2-0.3-0.5-0.5-0.8l-0.5-0.8l-0.1-0.2l-0.1-0.2c-0.1-0.1-0.2-0.3-0.2-0.4
				l-0.8-1c-0.3-0.4-0.6-0.7-0.8-1c-0.4-0.4-0.8-0.9-1.1-1.4c-1.1-1.9-1.9-3.3-2.5-4.3c-0.3-0.5-0.7-1.2-1.1-2l-1.1-2
				c0-0.1-0.1-0.1-0.1-0.2l-0.1-0.1l-0.1-0.1l-0.1,0.1l-0.1,0.1c0,0.1,0,0.1-0.1,0.2c-0.1,0.8-0.1,1.7-0.2,2.7l0,1.7
				c0,0.4,0,0.8,0,1.1c0,0.3-0.1,0.6-0.1,1.1l-0.1,0.5l-0.1,0.5l0,0.1l-0.1,2.4l-0.1,1.9c-0.1,0.7-0.1,1.4-0.2,1.9
				c0,0.1,0,0.3,0,0.5l0,0.4c-0.1,0.1-0.3,0.2-0.5,0.2c-0.1,0-0.3,0-0.4-0.1l-0.2-1.7l-0.1,0l0,0.5l0,0.6l-0.1,0.6l0,0.3l0,0.3
				l0,0.3l0,0.3c-0.1,0.1-0.2,0.1-0.3,0.1l-0.1,0c-0.1,0-0.1,0-0.2,0l-0.2-0.1l-0.2,0.1l-0.2,0.1c-0.1,0-0.2-0.1-0.5-0.1l0-0.1
				l0-0.1c0-0.1-0.1-0.1-0.1-0.2l0-0.4l0-0.4c0-0.3,0-0.5-0.1-0.7c0-0.1-0.1-0.3-0.1-0.6l0-0.3l0-0.3c-0.1-0.5-0.2-0.9-0.4-1.2
				l0-0.3l0-0.3l0.1-0.6l0.1-0.7l0-0.6l0-0.2l0-0.1l0-5.6l0-0.2l0-0.2l-0.1-0.2l-0.1-0.1l-0.1-0.1l0-1.5c0-0.2,0-0.5,0-0.6
				c0-0.2,0-0.4,0-0.5l-0.1-0.8l-0.1-0.8c0-0.5-0.1-1-0.1-1.3l0-0.4c0-0.5-0.1-1-0.3-1.5c-0.1-0.2-0.2-0.4-0.3-0.7l-0.4-0.7
				c-1.1-1.9-1.9-3.6-2.3-5.2l0,0l0-0.1c0-0.1-0.1-0.1-0.1-0.1l0-0.1c0-0.1,0-0.1,0.1-0.2c0.1,0.1,0.2,0.1,0.2,0.3l0.1,0.1l0.1,0.2
				c0.4,1.3,0.9,2.5,1.5,3.7c0.2,0.3,0.4,0.7,0.7,1.2l0.4,0.6l0.4,0.6l0-0.2l0-0.2l0-0.8l0-0.5c0-0.4,0-0.7,0-1
				c0.1-0.5,0.2-1,0.5-1.5l0.2,0.1c0.1,0,0.1,0,0.2,0.1c-0.1,0.2-0.1,0.5-0.1,0.8c0,0.1,0,0.3,0,0.4c0,0.2,0.1,0.3,0.1,0.6l0.1,0.3
				l0.1,0.3l0.1-1.4l-0.1-0.4c-0.1-0.2-0.1-0.3-0.1-0.4c0.1-0.2,0.3-0.5,0.6-0.7l0.3-0.3c0.1-0.1,0.2-0.2,0.3-0.3l0.4,0l0.9,1.2
				l0.4,0.6l0.4,0.6c0.1,0,0.2-0.1,0.3-0.2l0.1-0.1l0-0.1c0-0.1,0.1-0.1,0.1-0.1c0-0.1-0.1-0.3-0.2-0.4l0.1-0.1c0,0,0-0.1,0.1-0.1
				c0.1,0,0.2,0,0.3,0c0.3,0,0.5,0.1,0.8,0.3c0.3,0.2,0.5,0.6,0.6,0.9l0,0.1c0,0.1,0,0.2,0,0.3l-0.1,0.2l-0.1,0.2l0,0.1l-0.1,0.2
				l-0.1,0.6l0,0.3l-0.1,0.3c1.4,1.9,2.8,4.1,4.1,6.4c0.1-0.1,0.1-0.3,0.1-0.4c0,0,0-0.1,0-0.1l0-0.1l0-0.1c0-0.1-0.1-0.2-0.1-0.3
				c0-0.1,0-0.3,0-0.5l0-0.4c-0.1-0.2-0.2-0.4-0.3-0.6L258.8,157.3L258.8,157.3L258.8,157.3z M250.3,155.6c0-0.6-0.1-1.1-0.2-1.7
				c-0.1-0.2-0.1-0.5-0.2-0.9l-0.2-0.8c-0.1,0.1-0.2,0.3-0.2,0.4l0,1.2l0,1.1c0,0.4,0.2,1.1,0.7,1.9
				C250.3,156.4,250.3,156,250.3,155.6z M249.7,157.3c0,0.3,0.1,0.6,0.2,0.7c0.1-0.2,0.1-0.4,0.1-0.6l0-0.1c0-0.2-0.1-0.4-0.2-0.6
				C249.7,156.9,249.7,157.1,249.7,157.3z M252.2,168.6L252.2,168.6l0.1-0.2l0-0.4l0-0.2l-0.1,0L252.2,168.6z M260.7,160.7l0,1.8
				l0.4,0.6c0.1,0.2,0.3,0.4,0.4,0.6c0.3,0.4,0.6,0.8,0.9,1.1c-0.1-0.7-0.3-1.4-0.6-2.2c-0.1-0.3-0.3-0.6-0.5-1l-0.2-0.5l-0.2-0.5
				L260.7,160.7z M263.7,166.8l0-0.1l0-0.2c0-0.2,0-0.4-0.1-0.6l-0.5-1.1l-0.5-1.1c0.3,1.1,0.6,2.1,0.9,2.9c0,0.2-0.1,0.3-0.1,0.3
				l0.2,0.2L263.7,166.8L263.7,166.8z M264.7,160.4L264.7,160.4l0.1-0.8l-0.1,0L264.7,160.4z M264.8,159.4L264.8,159.4l0.1-0.8
				l-0.1,0L264.8,159.4z"/>
			<path class="st0" d="M275.1,148.1l0.2,0.2c0.1,0.1,0.2,0.2,0.3,0.3l0.2,0l0.2,0l0.2,0.2l0.2,0.2c0.2,0.2,0.3,0.3,0.4,0.5
				c0.4,0.6,0.8,1.4,1.2,2.3c0.1,0.1,0.1,0.2,0.1,0.3c0,0.1,0,0.2-0.1,0.3c0,0.1-0.1,0.3-0.1,0.4c0,0.1,0,0.3,0.1,0.4
				c0.1,0.1,0.2,0.1,0.3,0.2l0.2,0.2c0.2,0.1,0.3,0.3,0.4,0.4l0.1,0.1c0.1,0.1,0.1,0.1,0.1,0.1l0.8,0.5l0.9,0.5l0.3,0.2l0.3,0.2
				l0.2,0.1l0.2,0.1l0.1,0.1l0.1,0.1c0.1,0,0.2,0.1,0.2,0.1c0.6,0.5,1.1,1,1.3,1.5c0.1,0.2,0.2,0.3,0.3,0.5l0.3,0.5l0.3,0.1
				c0.1,0,0.2,0,0.3,0c0,0.2-0.1,0.3-0.1,0.4c0,0.2,0,0.3,0.1,0.5c0,0.1,0.1,0.3,0.1,0.4l0.1,0.4c0.3,1.3,0.5,2.3,0.5,3l0,0.3
				c0,0.2,0,0.5,0,0.8l0,0.6l0,0.6c0.1,0,0.2-0.1,0.3-0.1l0,0l0,0l0,0.1c-0.2,0.3-0.3,0.6-0.3,1c0,0.3-0.1,0.6-0.3,0.8
				c-0.1,0.2-0.3,0.5-0.5,0.8l-0.1,0.2l-0.1,0.2c-0.1,0.2-0.2,0.3-0.3,0.4c-0.2,0.1-0.4,0.3-0.5,0.6c-0.1,0.1-0.1,0.2-0.2,0.4
				l-0.2,0.4l-0.3,0.2l-0.2,0.2c-0.2,0.2-0.4,0.3-0.5,0.4c0.2,0,0.4-0.1,0.6-0.2l0.2-0.2l0.2-0.2c0.1-0.1,0.3-0.2,0.5-0.4l0.2-0.2
				l0.2-0.3l0,0.1l0,0.1l0,0.2c-0.1,0.1-0.1,0.3-0.2,0.5l-0.2,0.5c-0.1,0.3-0.5,0.7-1,1c-0.9,0.5-1.8,0.8-2.8,0.8
				c-0.3,0-0.6,0-0.9-0.1c-0.1,0-0.2,0-0.2,0c-0.1,0-0.2,0-0.3,0c-0.2,0-0.3,0-0.5,0c-0.5,0-1.1-0.1-1.7-0.3c-1-0.3-2.1-0.9-3.1-1.7
				c-0.5-0.4-0.9-0.7-1.2-1c-1-1-1.9-2.3-2.8-4.1c-0.1-0.3-0.2-0.6-0.2-1c-0.1-0.9-0.3-1.7-0.5-2.4l-0.1-0.2c0-0.1-0.1-0.2-0.1-0.2
				c0-0.1,0-0.2,0-0.3c0-0.1,0-0.2,0-0.3c0.1,0,0.2,0.1,0.3,0.2l0.1,0.1c0,0.1,0.1,0.1,0.1,0.1c0.1,0.1,0.1,0.2,0.2,0.3l0.1,0.1
				l0.1,0.1c0.1,0.1,0.2,0.2,0.2,0.3l0.1,0.1l0.1,0.2c0-0.1,0.1-0.2,0.1-0.3s0-0.2-0.1-0.4c-0.2-0.7-0.3-1.6-0.3-2.7
				c0-0.5,0-1,0-1.5c0.1-1.1,0.3-2.1,0.7-3.2l0-0.1l0-0.1c0-0.1,0-0.1,0.1-0.1c0.2-0.2,0.3-0.5,0.5-0.8l0.2-0.4
				c0.1-0.2,0.1-0.3,0.2-0.4l0.1-0.1l0.1,0l0.1,0c0.1,0,0.2,0,0.2,0c-0.2,0.2-0.3,0.4-0.5,0.6c-0.1,0.2-0.1,0.4-0.2,0.7
				c0.1,0.1,0.2,0.2,0.3,0.2l0.2,0c0.1,0,0.1,0,0.2,0c0.1,0.2,0.3,0.3,0.5,0.5l0.2,0.2l0.2,0.2c-0.3,0.8-0.5,1.6-0.6,2.4
				c-0.1,1.2-0.2,2.1-0.2,2.6c0,0.9,0.2,1.8,0.6,2.8c0.8,1.8,1.7,3.3,2.8,4.6c0.6,0.7,1.1,1.3,1.6,1.8c0.1,0.1,0.3,0.2,0.4,0.4
				l0.2,0.2l0.3,0.2c0.1-0.1,0.1-0.2,0.2-0.3l0.1-0.2l0.1-0.2c0.1-0.3,0.2-0.6,0.3-0.7l0.9,0c0.6-0.4,1-0.9,1.3-1.7
				c0.1-0.4,0.3-0.9,0.4-1.4l0.2-0.7l0.1-0.7c0.1-0.3,0.1-0.6,0.1-0.9l0-0.3c0-0.6-0.2-1.3-0.5-2.1c-0.2-0.4-0.5-0.9-0.8-1.4
				l-0.4-0.7l-0.4-0.7l-0.3-0.5l-0.3-0.5c-0.2-0.4-0.6-0.6-1-0.6c-0.1,0-0.2,0-0.3,0l-0.3,0.1l-0.3,0.1l-0.6-0.8l-0.6-0.8l-1.2-1.5
				l-0.3-0.3l-0.3-0.4c-0.3-0.3-0.4-0.5-0.6-0.7c-0.6-0.7-1-1.3-1.3-1.8c-0.3-0.4-0.4-0.8-0.4-1.2c0-0.1,0-0.2,0-0.3
				c0-0.1,0-0.1,0-0.2l0-0.3c0.1-0.1,0.3-0.2,0.4-0.3l-0.2-1.3l-0.2-1.4l-0.2,0l-0.1,0l-0.1,0l0-0.1l0.1-0.1l0.1-0.1l0.1-0.1
				l0.1-0.1l0-0.1l0-0.1l0-0.1c0-0.1,0-0.1-0.1-0.2c-0.2-0.5-0.3-1.1-0.4-1.9l0-0.4c0-0.4,0-1,0.1-1.5c0-0.1,0.1-0.3,0.2-0.5
				l0.2-0.5c0.2-0.1,0.6-0.2,1.1-0.3l0.3,0l0.3,0c0.2,0,0.4-0.1,0.6-0.2c0.4-0.3,0.9-0.4,1.5-0.4c0.4,0,0.8,0,1.3,0.1
				c0.9,0.2,1.7,0.4,2.4,0.7c0.8,0.3,1.8,0.9,3,2c0.1,0.1,0.2,0.2,0.2,0.3l0.1,0.2l0.1,0.1c0.4,0.5,0.6,1,0.8,1.3
				c0.2,0.4,0.5,1.1,0.9,1.8c0.3,0.6,0.5,1.2,0.5,1.7l0.1,0.7l0.1,0.7l0,0.1c0,0.2-0.1,0.4-0.2,0.8c-0.1-0.1-0.1-0.2-0.1-0.3l0-0.9
				c-0.2,0.2-0.3,0.4-0.4,0.6c-0.1,0.2-0.2,0.7-0.4,1.4l-0.1,0l-0.1,0c0,0-0.1,0-0.1-0.1c0-0.2-0.1-0.4-0.3-0.6
				c-0.1-0.1-0.2-0.1-0.2-0.2l-0.3-0.2l0-0.1c0-0.5-0.1-1-0.4-1.5c-0.2-0.4-0.4-0.8-0.8-1.3l-0.2-0.3c-0.1-0.1-0.1-0.2-0.2-0.3
				c-0.2-0.1-0.3-0.2-0.5-0.3l-0.1,0l-0.1,0l0,0l-0.3-0.1l-0.3-0.1c-0.2,0-0.4-0.1-0.5-0.1l-1.5-0.5c-0.6-0.1-1.1-0.2-1.6-0.2
				c-0.1,0-0.1,0-0.2-0.1l-0.2-0.1c-0.2,0.1-0.4,0.2-0.6,0.4c-0.1,0.1-0.2,0.2-0.2,0.3l-0.2,0.3c-0.1,0.2-0.2,0.3-0.2,0.5
				c0,0.2,0,0.3,0.1,0.4l0.1,0.2l0.1,0.2c-0.1,0.2-0.2,0.5-0.4,0.9L275.1,148.1z M276.4,143.8c-0.8,0-1.4,0.3-1.8,0.8
				c0.1,0.2,0.1,0.5,0.2,1c0.1-0.2,0.3-0.4,0.5-0.6l0.2-0.3l0.2-0.3l0.3-0.1l0.3-0.1c0.3-0.1,0.5-0.2,0.7-0.3
				C276.7,143.8,276.6,143.8,276.4,143.8z M279.3,145l0.1-0.2c-0.1-0.2-0.3-0.4-0.6-0.5l-0.2-0.1l-0.2-0.1c-0.2,0-0.3-0.1-0.4-0.1
				c-0.2,0.1-0.6,0.2-1.1,0.3c0.4,0.1,0.8,0.2,1.2,0.3l0.6,0.2L279.3,145z M279.6,157.7l-0.1,0.1c0.1,0.3,0.3,0.7,0.6,1.2l0.4,0.5
				c0.1,0.2,0.3,0.4,0.4,0.6l0.6,1.2l0.6,1.2c0.1-0.1,0.2-0.3,0.2-0.6l0-0.3c0-0.1,0-0.2,0.1-0.3l-0.2-0.2l-0.2-0.2
				c-0.2-0.2-0.3-0.3-0.4-0.5c-0.1-0.2-0.2-0.5-0.2-0.8c0-0.1,0-0.3,0.1-0.5L279.6,157.7z M281.7,169l-0.1-0.1l-0.5,1l-0.5,1
				c0,0,0,0.1,0,0.1l0,0.1l0,0.1l0.3-0.3c0.1-0.1,0.3-0.2,0.3-0.3c0.2-0.2,0.4-0.4,0.5-0.7L281.7,169L281.7,169z M282.2,165.8
				c0-0.3,0-0.6-0.1-0.9l-0.1,0.5l-0.1,0.4c-0.1,0.4-0.1,0.7-0.2,0.9c-0.2,0.7-0.3,1.3-0.5,1.7C281.8,167.6,282.2,166.7,282.2,165.8
				z M282.9,161.9c-0.1,1.1-0.2,2-0.3,2.5c0,0.2-0.1,0.4-0.1,0.6c0,0.4,0.1,0.8,0.2,1.2c0.5-0.8,0.8-1.7,0.8-2.7l0-0.3
				c0-0.5-0.2-1-0.6-1.4L282.9,161.9z"/>
		</g>
	</g>
	<g>
		<path class="st1" d="M193.1,117.6h-42.7V46.5h15.1v56.1h27.5V117.6z"/>
		<path class="st1" d="M306.8,117.4h-21.9V102h-8.2v15.4h-21.9l14-71.1h24.1L306.8,117.4z M285.4,90l-4.5-31l-4.3,31H285.4z"/>
		<path class="st1" d="M351.5,117.6h-36.3V46.5h36.3c3.2,0,5.9,1.1,8.2,3.4c2.3,2.3,3.4,5,3.4,8.1v48.1c0,3.1-1.1,5.8-3.4,8.1
			C357.4,116.5,354.7,117.6,351.5,117.6z M343.6,103.1c1.2,0,2.1-0.4,2.9-1.2c0.8-0.8,1.2-1.7,1.2-2.8V64.4c0-1.1-0.4-2.1-1.2-2.9
			c-0.8-0.8-1.8-1.2-2.9-1.2l-13.3,0v42.7H343.6z"/>
		<path class="st1" d="M216.2,117.7c-2.1,0-4.1-0.5-5.9-1.5c-1.9-0.9-3.6-2.5-5.2-4.6c-1.7-2.2-3.3-5.1-4.9-8.6
			c-0.5-1.1-1-2.4-1.6-4c-0.1-0.3-0.2-0.6-0.3-0.9l-0.2-0.9c-0.2-1-0.7-2.4-1.6-4.2l-2.5-4.7l-2.4-4.7c-1.7-3.3-2.8-6.1-3.3-8.2
			l-0.3-1.1c-0.1-0.4-0.2-0.8-0.3-1.1c-0.1-0.3-0.1-0.5-0.1-0.8c0-0.5,0.1-1,0.2-1.5c0.1-0.3,0.3-0.6,0.5-0.9l0.3-0.5l0.4-0.4
			c0.1-0.2,0.3-0.4,0.5-0.5l0.2-0.3l0.3-0.3l0.2,0.3l0.2,0.3c-1.4,1.1-2.2,2.3-2.3,3.7l0.2,0.6l0.2,0.7c0.1,0.5,0.2,1,0.3,1.4
			c0.3,1.5,1,3.4,2,5.6c0.8,1.6,1.8,3.6,3,6l3.1,5.9c0.1,0.1,0.1,0.2,0.2,0.4l0.2,0.3l0.2,0.3c0.1-0.3,0.2-0.5,0.2-0.8
			s-0.1-0.6-0.2-0.9l-0.1-0.3l-0.2-0.4c-0.1-0.3-0.2-0.6-0.2-0.7l-0.3-1.1l-0.3-1.1c-0.2-0.8-0.3-1.6-0.3-2.2l0-1.9
			c0.2,0,0.4-0.1,0.7-0.2l0.7-0.2l0.1,0.1l0.1,0.1c0.1,0.1,0.1,0.2,0.1,0.2c-0.1,0.3-0.1,0.6-0.1,1c0,0.8,0.1,1.6,0.4,2.6l0.3,0.9
			l0.3,0.9c0.2,0.7,0.3,1.3,0.4,1.7c0.2,1.1,0.7,2.4,1.4,3.9l1,1.9c0.3,0.7,0.6,1.3,0.8,1.9c1.6,4,3.4,7.5,5.3,10.3
			c1.6,2.3,3.1,3.9,4.4,4.9c0.5,0.4,1.3,0.8,2.2,1.2l1.2,0.7c0.4,0.3,0.8,0.5,1.2,0.7c0.1,0,0.1,0.1,0.2,0.1l0.1,0.1l0.2,0.1
			c0.2,0.3,0.4,0.5,0.5,0.7C217,117.7,216.6,117.7,216.2,117.7z M200.6,52.4l0.3,0.1l0.3,0.2l0.2-0.3c0.1-0.1,0.2-0.2,0.2-0.3
			c0.6-1.5,1.7-3.2,3.2-4.9l0.7-0.7c0.4-0.4,0.6-0.6,0.7-0.8l1.4-1.6l0.7-0.8l0.7-0.9l0.2,0c0.6,0,1.1,0.2,1.7,0.5
			c0.2,0.1,0.5,0.3,0.8,0.5l0.8,0.5l0.7-0.3l0.7-0.3c0.5-0.3,1-0.5,1.5-0.6c1.1-0.4,2.2-0.7,3.1-1c0.3,0,0.6-0.1,0.9-0.1
			c0.8,0,1.7,0.2,2.6,0.7c1,0.5,2.1,1,3.4,1.3c1.5,0.4,3,1.1,4.4,2.2l1.9,1.5l1,0.7l0.9,0.8c1.5-0.5,2.9-0.8,4.1-0.8
			c0.2,0,0.5,0,0.7,0.1c0.7,0.3,1.1,0.8,1.4,1.5c1.2,3.1,1.9,5.7,2.3,7.8c0.3,1.6,0.6,3.1,0.8,4.8c0,0.1,0.1,0.3,0.2,0.5l0.3,0.6
			l1.8-0.5c0.8-0.2,1.3-0.4,1.7-0.5c0.5,0.1,0.9,0.4,1.2,0.7c0.2,0.2,0.3,0.5,0.5,0.9c0.9,2.1,1.6,3.9,2.1,5.2
			c0.3,0.8,0.5,1.7,0.6,2.6c0.1,0.5,0.1,1.1,0.3,1.7l0.3,0.9l0.2,0.9c0.1,0.4,0.2,1,0.2,1.6l-0.1,0.9l0,0.8c0,2.1-0.3,4.4-1,6.7
			c-0.1,0.1-0.1,0.3-0.1,0.5l-0.1,0.5c0.3,0.3,0.6,0.6,0.9,0.9l-0.2,1.3l-0.2,1.3c-0.2,1.1-0.4,1.9-0.6,2.6
			c-0.7,2.5-1.1,4.7-1.1,6.6l0,1.1c0,2-0.5,4-1.4,6.1c-0.8,1.8-2.2,3.5-4.3,5c-2.6,1.9-4.5,3.5-5.6,4.6c-2.4,2.5-4.5,4.3-6.3,5.2
			c-0.5,0.3-1.1,0.5-1.8,0.8l-1,0.4l-0.9,0.4c-0.1,0-0.3,0-0.7-0.1l0.2-0.4c0.1-0.2,0.1-0.3,0.2-0.4l2.1-1.8
			c0.8-0.7,1.5-1.3,2.1-1.8c1.7-1.3,3.2-2.4,4.6-3.2c2-1.3,3.7-2.9,5-5c2-3.2,3.9-6.9,5.6-11.1l0-0.6l-0.2-0.1
			c-1.5,2.5-4.2,5.2-8.3,8.1c-0.7,0.5-1.1,1-1.4,1.5c-1.5,2.6-4,4.8-7.3,6.7c-1.9,1-3.2,2.1-4,3.1c-0.1,0.2-0.4,0.4-0.7,0.6
			l-0.4,0.3l-0.4,0.3l-1.3-0.4l-1.3-0.5c0.1-0.2,0.2-0.4,0.3-0.8l0.2-0.9c0.2-0.6,0.6-1.1,1.2-1.4c-0.3-0.1-0.5-0.2-0.7-0.2
			c-0.2,0-0.4,0.1-0.7,0.2l-0.2,0.2l-0.2,0.1c-0.2,0.1-0.3,0.2-0.5,0.3l-2.5,0l-0.5-0.3l-0.2-0.2l-0.3-0.3l0.2-0.7l0.1-0.4l0.1-0.5
			l-0.3-0.1l-0.3-0.1l-0.7-0.4l-0.9-0.5c-0.4-0.2-0.7-0.4-0.9-0.5c-0.8-0.5-1.2-1.1-1.2-1.7c0-0.4,0.1-0.7,0.4-1.1l-0.7-1.5
			l-0.8-1.4c-0.6-1.1-1.1-2-1.7-2.7c-0.2,0-0.5,0.1-0.7,0.1l-0.6,0.1c-0.8-0.3-1.2-0.7-1.2-1.2c-0.1-0.6-0.2-1.2-0.4-1.6l-0.2-0.5
			l-0.3-0.5c-0.2-0.4-0.4-0.8-0.6-1c-1.9-2.2-3.4-4.5-4.3-6.8l-0.5-0.5l0,0.6l0.2,0.5c0.1,0.1,0.1,0.2,0.1,0.3
			c0,0.3-0.1,0.6-0.3,0.8l-0.3-0.5l-0.2-0.5c-0.2-0.4-0.3-0.6-0.4-0.9c-0.4-1.1-0.9-2.5-1.5-4.1l-0.9-2l-0.8-2
			c-0.2-0.5-0.4-1.1-0.5-1.8l-0.3-0.9l-0.2-0.9c-0.2-1.3-0.4-2.9-0.4-4.8l0-4.8c0-0.2-0.1-0.4-0.3-0.5l0,12l-1.1,0l0-11.4
			c0-0.7,0.2-1.6,0.3-2.7l0.2-1.4l0.2-1.3c0.1-1.4,0.3-3,0.7-4.6l0.6-2.4c0.2-1,0.4-1.8,0.7-2.4c0.2-0.4,0.4-1,0.7-1.6l0.5-0.8
			l0.5-0.9C200.1,52.1,200.3,52.2,200.6,52.4z M197.2,67.8l0.2,0l0-2.2l-0.2,0L197.2,67.8z M204.9,69l0-8.1c-0.3,0.9-0.5,2-0.5,3.1
			l0,0.9c0,0.5,0.1,1.2,0.3,2l0.1,1L204.9,69z M214.8,101.2l1.7,2.9l1.7,2.9c0.4,0.7,1,1.1,1.8,1.3c0.9,0.2,1.9,0.6,2.7,1.2
			c0.5,0.3,1,0.5,1.4,0.5c0.5,0,1.1-0.2,1.6-0.5c0.5-0.4,1-0.8,1.2-1.3c0.6-0.9,1.3-1.6,2-2.2c1.2-0.9,2.1-2.1,2.8-3.5
			c0.8-1.5,1.6-3.2,2.3-5.1c2.1-5.7,3.2-11.6,3.2-17.6l0-6.5c-0.1-2.4-0.2-4.6-0.4-6.5c-0.1-1-0.5-1.8-1-2.4
			c-1.6-1.7-3.4-3.2-5.5-4.5c-1.7-1.1-4.5-2.4-8.4-3.9c-1.8-0.8-3.2-1.5-4.1-2.3l-0.4-0.3L217,53c-1.3,0.3-2.2,1.1-2.8,2.4
			c-0.7,1.4-1,2.7-1.1,4l-0.2,1.2l-0.2,1.2c-0.2,1-0.2,1.9-0.2,2.5l-0.1,3.3l0,3.2c0,2.5,0.1,4.7,0.4,6.5c0.1,0.6,0.2,1.4,0.3,2.5
			l0,1.3l0.2,1.3l0.8,6.2c0.3,2.4,1,4.9,2,7.5c0.2,0.5,0.6,1.2,1,2l0.6,1l0.6,1l-0.3,0.5l-0.3,0.5c-0.3,0.3-0.5,0.6-0.7,0.9
			c-0.8-0.5-1.4-1-1.8-1.3L214.8,101.2z M216.4,63.5l0.1,0.3c0.1,0.1,0.1,0.2,0.1,0.3c0,0.1,0,0.2-0.1,0.3c-0.1,0.4-0.2,1-0.3,1.5
			l-0.1,0.8l-0.2,0.8c-0.2,1.4-0.4,2.6-0.7,3.5l-0.5-0.9c0-1.2,0.2-2.7,0.4-4.2l0.2-1.3c0.1-0.6,0.4-1.1,1-1.4L216.4,63.5z
			 M217,48.7l0.8,0.5l0.9,0.5c1.4,0.7,2.6,1.2,3.6,1.4c-2.1-2-4.2-3.5-6.4-4.5l-0.2,0.3l-0.2,0.3c-0.2,0.3-0.3,0.6-0.4,0.7
			C215.8,48.1,216.4,48.4,217,48.7z M226,53.9l0.2-0.3L219,51l-0.1,0l-0.2,0.1l0.7,1.3L226,53.9z M226.1,54.8l-2.6-0.5l-2.6-0.5
			l-0.9-0.2l-0.1,0.3l2.6,1.1l2.7,1.1c2.1,0.9,3.9,1.7,5.3,2.3C229.7,56.4,228.2,55.2,226.1,54.8z M232.7,119.4
			c0.9-0.3,1.5-0.9,2-1.6C233.7,118.3,233,118.9,232.7,119.4z M247.2,95l-0.4,0.6c-0.3,0.5-0.6,0.9-0.9,1.2l-2.7,3.4l-2.8,3.4
			l-0.5,0.9c2.3-1.7,4.1-3.5,5.6-5.4c1.5-1.9,2.2-3.4,2.2-4.5l0-0.1L247.2,95z M243.3,110c-0.1,0-0.1,0.1-0.1,0.3l-0.1,0.3
			c3.9-2.4,5.8-6.2,5.8-11.2l0-0.2C247.4,102.8,245.6,106.4,243.3,110z M245.9,72.4c-0.1-0.6-0.2-1.4-0.3-2.2l-0.3-1.1
			c-0.1-0.4-0.3-0.8-0.4-1.1c-0.1-0.1-0.1-0.3-0.1-0.5l0-0.3l-0.1-0.2c-0.1-0.4-0.3-0.8-0.7-0.9l0,1.7l0.1,0.7l0.1,0.7
			c0.1,0.6,0.2,1.1,0.2,1.4l0,0.2c0,1.2,0.5,2.5,1.5,3.9L245.9,72.4z M245.5,79.7l0-0.5c-0.1-0.4-0.2-0.7-0.3-1.1l-0.2-0.5
			c-0.1-0.2-0.2-0.4-0.3-0.6c0,0.6,0,1.3-0.1,2.1l-0.1,1.1l-0.1,1c-0.1,0.7-0.1,1.3-0.1,1.8c0,0.8,0.1,1.6,0.2,2.2
			C245.2,82.7,245.5,80.8,245.5,79.7z"/>
		<path class="st1" d="M80.8,61l-0.6,0.8l-0.6,0.8l0,0.3c0,0.1,0,0.1,0.1,0.2c0.7,1.6,1.1,3.5,1.1,5.7c0,1.3-0.2,2.8-0.5,4.4
			c-0.2,0.7-0.4,1.2-0.6,1.6c-0.5,0.9-1.1,1.9-1.8,3.1l-1,1.6l-1,1.6l-0.3-0.8c-0.2-0.3-0.3-0.5-0.4-0.7c-0.2-0.2-0.3-0.4-0.6-0.6
			l-0.3-0.3l-0.4-0.5l-1.9,0c-0.2-0.1-0.6-0.4-1.1-0.8L70.5,77l-0.6-0.5l-0.3,0.2l-0.3,0.2c-0.3,0.1-0.5,0.2-0.7,0.4
			c-3.8,3.1-7.9,5-12.3,6c-0.4,0.1-0.8,0.3-1.4,0.5l-0.7,0.2L53.4,84c1,1.5,2.6,3.1,4.6,4.8l1.2,1l1.2,0.9c1,0.8,1.7,1.4,2.3,1.9
			c0.5,0.5,1.3,1.2,2.2,2.1l1.1,1.1l1.1,1.1c1.3,1.2,2.8,2.7,4.4,4.6l4.1,4.9c2.1,2.4,4.8,4.8,7.9,7.1l3.6,2.5
			c1.4,1,2.6,1.8,3.5,2.5l0.9,0.6c0.3,0.2,0.6,0.5,0.8,0.6c0.6,0.5,1.1,1.1,1.4,1.7l3.6,2.9c-0.3,0.2-0.5,0.3-0.8,0.3l-0.2,0
			c-0.1-0.1-0.2-0.1-0.4-0.2l-0.4-0.2l-1.2-0.5c-0.5-0.2-0.9-0.3-1.3-0.5c-0.6-0.2-1.2-0.4-1.8-0.4c-0.3,0-0.5,0-0.7,0.1l-0.2,0.1
			l-0.2,0l1,1.4l0.9,1.3c0.7,1,1.3,1.9,1.8,2.7c0.6,1.1,2,2.9,4.2,5.5c-0.5,0.1-0.8,0.1-1,0.1l-0.2,0c-0.2-0.1-0.3-0.2-0.6-0.3
			l-0.6-0.4c-1.4-1-3.5-2-6.4-3c-0.5-0.2-1.2-0.6-1.9-1.2c-0.5-0.4-1.3-1.1-2.2-2.1l-2.3-2.5c-1-1-1.8-1.8-2.4-2.4l-3.5-3.5
			l-3.6-3.5l-3.1-3.1l-3.1-3.1l-2.5-2.5l-2.6-2.5l-2.3-2.3l-2.3-2.2l-1.8-1.7c-0.7-0.6-1.3-1.2-1.8-1.6c-1.9-1.6-3.2-3.2-4.1-4.8
			c-0.3,1.8-0.5,3.6-0.7,5.4l-0.6-0.9l0.2-4.6l0.1-0.9l0-1l-0.5-0.6l-0.6-0.8l0-0.7l-0.1-0.7c-0.5-1-1.2-1.5-2.2-1.5
			c-0.5,0-1,0.1-1.7,0.4l0,0.7l-0.1,0.6l0.1,7.3l0,0.6c0,3.6,0.5,7.4,1.3,11.5c0.1,0.3,0.1,0.7,0.2,1.2l0.2,3.9
			c0.1,1.5,0.1,2.8,0.3,3.9c0,0.5,0.1,1.2,0.2,2l0.2,1l0.2,0.9l1.1,7.5l0.3,1.8l0.3,1.8c-0.2,0.1-0.3,0.1-0.4,0.1
			c-0.2,0-0.3-0.1-0.4-0.2c-0.1-0.1-0.1-0.2-0.2-0.4l-0.1-0.2l-0.1-0.2c-0.4-0.9-0.8-2-1.4-3.3l-1.4-3.4c-0.3-0.7-0.8-2.1-1.7-4.2
			c0.1,0.4,0.1,0.8,0.1,1.3l0.1,1.2c0.1,0.9,0.1,1.6,0.1,2.2l0,1l0.1,1c0,0.9-0.2,1.6-0.4,2.1l-1.1,0.2c-0.4,0.1-0.8,0.2-1.2,0.3
			c-0.3-1.2-0.5-2.9-0.7-4.9l-0.1-1.3l-0.1-1.3c-0.1-0.9-0.2-1.8-0.3-2.6c-0.5-0.5-0.8-1.5-1-3c-0.1-0.6-0.1-1.4-0.2-2.4l-0.4-2.5
			c-0.1-0.3-0.1-0.8-0.1-1.4l0-5.2c-0.1-1.1-0.2-2.3-0.4-3.5l-0.4-2.4l-0.5-2.4c-0.4-2-0.7-3.6-0.8-4.8c-0.1-0.7-0.2-1.5-0.3-2.5
			l-0.2-2.5l-0.2-3.3l-0.2-3.3c-0.1-0.7-0.3-1.4-0.7-2l0,3.8l-0.1,1.8l-0.1,1.7c-0.1,0.9-0.1,1.7-0.1,2.5l0,1c0.2,2,0.3,4.7,0.3,7.9
			l0,2.6c-0.1,1.5-0.1,3.6-0.3,6.4l-0.2,3.2l-0.1,3.2l-0.1,2.2l-0.1,2.2c0,1.7,0.1,3.2,0.3,4.5c0.1,0.8,0.2,1.8,0.3,3l0.2,1.6
			l0.2,1.5c-0.4-0.1-0.7-0.4-1-0.8c-0.1-0.2-0.1-0.4-0.2-0.6l-0.2-0.5c-0.5-2.8-0.7-5.2-0.7-7.3l0-5c0.3-3.7,0.4-8.3,0.4-13.6
			L32,79.3l0.1-1.7l0.1-1.7c0-1.5,0.1-2.6,0.1-3.5c0-3.1-0.1-6.5-0.4-10.3c0-0.5-0.1-1-0.2-1.6l-0.2-0.7l-0.2-0.8
			c-0.5-2-0.8-3.8-0.8-5.5l0-0.8c0-0.4,0.1-0.9,0.1-1.3c0-1.5-0.3-3.2-0.7-5.1l0.3-0.3l0.3-0.3c0.3-0.2,0.5-0.5,0.8-0.6
			c-0.8-0.4-1.8-1-3-1.6l-3-1.5L25,41l-0.2-0.7l0.6-1.9l0.2-0.9l0.3-1L23.2,34l-1.7-1.5l-1.6-1.6C19,30,18.5,29,18.4,27.9
			c0-0.2-0.1-0.5-0.2-0.8L18,26.7l-0.2-0.5c0.4-0.9,0.8-1.6,1.3-2.4c0.3-0.1,0.5-0.2,0.7-0.2l0.2,0l0.9,0.3c1.3,0.2,2.8,1,4.4,2.4
			l2.9,2.5l2.8,2.6c2.1,2,3.9,3.9,5.4,5.6c2.1,2.4,4.6,4.1,7.4,5.2c2.9,1.1,6.3,2.5,10.2,4.2c0.7,0.3,1.3,0.5,1.9,0.4
			c0.7,0,1.4-0.2,2-0.7l0.2-0.3l0.3-0.1c0.3-0.1,0.6-0.1,0.9-0.1c1,0,1.8,0.2,2.6,0.7c0.9,0.5,1.9,1,3.1,1.5l1.6,0.7l1.6,0.7
			c1.5,0.7,3,2.2,4.6,4.5l2.8,0.6c0.7-0.9,1.6-2.1,2.6-3.5l1.4-1.7l1.3-1.7c0.2,0.5,0.3,1.2,0.3,1.9l0,0.5l-0.1,0.5l-0.1,0.5
			l-0.2,1.1c-0.2,1.3-0.3,2.7-0.5,4.1c0.4,0.9,0.8,1.8,1.3,2.9C81.6,59.9,81.2,60.4,80.8,61z M34.1,73.2c0-0.4,0-0.7-0.1-1.1
			l-0.1-0.7l-0.2-0.8c-0.1-0.7-0.2-1.2-0.2-1.5l-0.1,1.6l0,1.6c0,1.2,0.1,2.2,0.3,3.2C34,74.7,34.1,74,34.1,73.2z M36.7,48.1
			c-0.8-0.8-1.8-1.4-3-1.7c0.2,2.1,0.4,5,0.6,8.8c0.5-0.8,0.8-1.4,0.9-1.8l0.2-2.1l0.1-1l0.2-1c0.2-0.2,0.3-0.4,0.6-0.5L36.7,48.1z
			 M46,75.4l0.4,0.5l0.4,0.5c0.5,0.4,1,0.6,1.6,0.6c0.2,0,0.4,0,0.6-0.1c0.2-0.7,0.3-1.6,0.3-2.9c0-1.9-0.3-4.4-0.7-7.7
			C47.8,61,46.9,57,45.7,54l-3.4-1.4c-0.1,0.3-0.1,0.7-0.1,1.3c0,1.8,0.3,4.6,0.8,8.6c0.7,5.2,1.4,9.2,2.2,12
			C45.4,74.7,45.7,75,46,75.4z M42.4,67.7l0.2,2.3l0.2,2.3c0,0.1,0.2,0.3,0.6,0.7l0-0.4c0-0.7-0.1-1.5-0.3-2.4l-0.3-1.3L42.4,67.7z
			 M61.6,57.5l-4.2-1.3L53.3,55c-0.3,0.3-0.5,0.6-0.6,0.8c-0.4,0-0.9-0.1-1.4-0.3l-0.6-0.4L50,54.9c-0.9-0.5-1.6-0.7-2.2-0.7
			c-0.2,0-0.3,0-0.5,0.1l0.6,2.7l0.7,2.7c0.5,2.2,0.8,4,1.1,5.5c0.2,1.5,0.4,3.4,0.6,5.6l0.2,2.9c0.1,1.2,0.1,2.1,0.2,2.9l1.6-0.6
			l1.6-0.6c1.2-0.4,2.2-0.8,3-1.2c2.7-1.2,4.9-2.7,6.7-4.7c0.9-1,1.9-2.2,3.1-3.6l3.1-3.6c0.1-0.1,0.2-0.3,0.4-0.5l0.2-0.3l0.2-0.3
			c-1.3-3.3-3.3-5.1-5.8-5.2C63.2,56.8,62.2,57.2,61.6,57.5z"/>
		<path class="st1" d="M83.7,110.8c1.7-0.9,3.1-1.6,4.2-2.3l0.1-0.1c0.6-0.3,1.2-0.5,1.6-0.7c0,0,0.1,0,0.1-0.1
			c0.1,0.1,0.2,0.1,0.3,0.1l2.8,0.1c1.1,0.1,2,0.1,2.8,0.1c0.5,0,1.1,0,1.8-0.1l1-0.1l0.9,0l5.4-0.2l5.4-0.2c0.5,0,1.1,0,1.8-0.1
			l0.9-0.1l1-0.1c-0.1-0.2-0.2-0.4-0.3-0.6l-0.2-0.3l-0.2-0.3c-0.3-0.4-0.4-0.8-0.4-1.2l0.3-0.6l0.3-0.6c0.2-0.5,0.4-0.8,0.7-0.9
			c0.2-0.1,0.4-0.1,0.8-0.1l0.4,0l1.7,0.1l1.7,0.2c0.7,0.1,1.6,0.3,2.7,0.4l1.3,0.2c0.6,0.1,1.1,0.2,1.5,0.3c0.3-0.1,0.6-0.2,1-0.3
			l0.6-0.1l0.5-0.1c0.8-0.3,1.5-0.6,2-1.1c0.1-0.4,0.2-1,0.4-1.7l0.3-1.7c0.3-1.2,0.4-2.2,0.4-3.1l0-0.3l-0.4,0l-0.4,0.1
			c-0.3,0-0.5,0-0.7,0.1c-0.4,0.2-0.7,0.3-1.1,0.3c-0.7,0-1.4-0.3-1.9-1.1c-0.5,0-0.9,0.1-1.3,0.1c-0.7,0-1.3-0.1-1.8-0.2
			c-2.1-0.5-3.9-1.4-5.3-2.6c-0.8-0.7-1.2-1.7-1.3-3.1c1.1,0,2.1,0.1,2.7,0.2l-1.1-1.3l-1.1-1.2c-0.8-0.9-1.6-1.7-2.2-2.3
			c-0.6-0.6-1.1-1.2-1.7-1.8c1.3,0.8,2.6,1.5,4.1,2.2c2,2.2,3.7,4,4.9,5.6c0.1,0.1,0.2,0.3,0.4,0.5l0.6,0.7c1.4-1.5,3-3.2,4.7-5
			l-0.1,0.3l0,0.1c0,0,0,0.1,0.1,0.1l0.2,0c0.7-0.5,1.2-1.3,1.6-2.2l0-0.1c0,0,0-0.1-0.1-0.1l0.1,0l1.2-1.3c0.5-0.5,0.9-1,1.3-1.3
			c0.8-0.8,1.4-1.9,1.6-3.2c0.3-1.9,0.6-3.4,0.9-4.5c0.4-1.4,0.7-2.4,0.8-3.1c0.6-3.7,1-7.1,1-10l0-0.7c0-0.3,0.2-0.6,0.4-0.7l0.5,0
			l0.6-0.1c0-0.2,0.1-0.4,0.1-0.6c0-0.3,0-0.6-0.1-0.9l-1.7,0.9l-1.6,0.9c-0.2,0.1-0.4,0.2-0.6,0.4l-0.6,0.5l-0.8,0.6l-0.7,0.6
			l-2.7,2.1c-1.1,0.8-1.9,1.5-2.6,2.1c-2.4,1.9-5.1,3.5-8.2,4.8c-0.3,0.1-0.6,0.2-1,0.3l-0.5,0.1l-0.5,0.1c-0.4-0.4-0.9-1.1-1.7-1.9
			c-0.2-0.2-0.4-0.3-0.6-0.5l-0.4-0.1l-0.4-0.1c-0.7-0.2-1.1-0.5-1.4-0.9c1.3-0.9,2.5-1.3,3.4-1.3l0.1,0c0.3,0,0.6-0.1,1.1-0.2
			l0.5-0.2l0.5-0.2c-0.3-0.2-0.5-0.3-0.8-0.3l-1.6,0.1c-0.6,0.1-1.1,0.1-1.5,0.1c-0.6,0-1.3,0-2.2-0.1l-1.1-0.1l-1.1-0.1
			c-2.2-0.1-4.7-0.4-7.5-1c-1.6-0.3-2.9-0.8-3.9-1.6c-1.7-1.1-3.5-3.1-5.5-5.9l-0.3-0.7c1.3,0.4,2.3,0.8,2.9,1.3
			c0.9,0.7,1.8,1,2.7,1l0.3,0c0.1,0,0.3,0,0.4,0.1l0.4,0.1l1.5,0.4l1.5,0.4c2.2,0.7,4.7,1.1,7.6,1.3c1.3,0.1,2.5,0.1,3.6,0.1
			c1.9,0,3.6-0.1,5.2-0.4c3.2-0.6,6.1-1.4,8.9-2.5c1.7-0.7,3.2-1.7,4.4-3c1.2-1.3,2.5-2.6,4-3.9c1.8-1.6,3.5-2.4,5.1-2.4
			c0.3,0,0.6,0,0.8,0.1l0.2,0l0-0.1c0.1,0,0.3-0.1,0.4-0.3l0.1-0.2l0.1-0.2c0.2-0.3,0.4-0.5,0.7-0.5l0.1,0c0.1,0.4,0.2,0.9,0.2,1.5
			c0,0.3,0,0.6-0.1,0.9c0,0.3-0.1,0.7-0.2,1.2l-0.2,0.6l-0.1,0.6c0.2,0.1,0.6,0.2,1,0.4l0.2-0.3l0.1-0.3c0.1-0.2,0.2-0.3,0.3-0.5
			l0.8-2.1l0.8-2.2c1.3-3.4,2.9-6,4.9-7.9c0.7-0.7,1.4-1.2,2.2-1.3c0.3,0.1,0.5,0.2,0.8,0.3l0.4,0.2l0.3,0.1
			c0.5-0.4,1.1-0.9,1.7-1.4l0.8-0.7l0.8-0.7c-0.1,0.6-0.3,1.2-0.7,1.7l-0.6,0.7c-0.3,0.3-0.4,0.6-0.5,0.7l-0.1,0.2l0,0.5
			c0,0.1-0.1,0.2-0.2,0.4l-0.2,0.4c-0.7,0.1-1.4,0.5-2,1.2l-0.6,0.8c-0.3,0.3-0.5,0.6-0.6,0.8c-1.3,1.8-2.1,3.6-2.6,5.4
			c3.1-2.6,5.3-4.8,6.7-6.5c1.4-1.7,2.8-4.4,4.3-8c0.1,0,0.3,0,0.4,0.1l0.2,0l0.2,0.1l-0.1,0.3l-0.1,0.3c-0.1,0.2-0.1,0.4-0.2,0.5
			c-1.1,3.2-2.7,6-4.9,8.4c-1.7,1.9-3.9,3.8-6.4,5.7c-0.8,0.6-1.4,1.4-1.7,2.4l-1.4,4.4c-0.6,1.9-1.1,3.4-1.5,4.5
			c-0.7,2.1-1.5,4.9-2.4,8.4l-1.2,4.2c-0.4,1.6-0.8,3-1.2,4.2c0,0.1-0.1,0.2-0.1,0.4l-0.1,0.3c0,0.1-0.1,0.2-0.1,0.3
			c0.4-0.2,0.7-0.3,0.7-0.3l3-2.1c1.2-0.8,2.2-1.5,3-2.1c0.8-0.5,1.6-0.9,2.5-1c1.8-0.3,3.5-0.7,5-1c0.1,0,0.2-0.1,0.3-0.1
			c0.2,0,0.3,0.1,0.4,0.3l-0.7,0.8l-0.7,0.7c-0.5,0.6-0.9,1.2-1.2,1.7c-0.6,1-1.7,2.1-3.4,3.2l-0.6,0.4l-0.6,0.4
			c-0.5,0.3-0.8,0.5-1.1,0.8c-1.6,1.3-3.1,2.5-4.4,3.6c-0.5,0.5-1.2,1.1-2,1.8l-2,1.9c-0.5,0.4-0.7,1-0.7,1.7l0,0.3l0.1,1.3
			c0,0.5,0.1,1,0.1,1.3c0,1.9,0.3,3.9,0.7,6c0.4,2.2,1,3.7,1.7,4.7c0.2,0.2,0.4,0.5,0.7,0.9l0.3,0.4l0.4,0.5l0,0.2
			c0,0.5-0.1,1.1-0.4,1.7l-0.1,0.4l-0.2,0.5c-0.1,0.4-0.2,0.7-0.3,0.9l-0.3,0c-0.7,0-1.2-0.1-1.6-0.3c-0.6-0.4-1.2-0.5-1.9-0.5
			c-0.3,0-0.5,0-0.8,0.1l0.6,0.7c0.2,0.2,0.4,0.4,0.6,0.7c0.4,0.5,0.7,1,0.8,1.5l-0.2,0.3l-0.2,0.2c-1.1-0.4-2-0.6-2.7-0.9l-0.4,1.1
			c-0.2,0.4-0.3,0.7-0.4,1c-0.3,0.6-0.9,1.1-1.6,1.5l-3.5-1.1l-3.6-1.1l-0.6-0.2l-0.6-0.3c-0.5-0.2-1-0.3-1.3-0.3
			c-1.1-0.1-2.1-0.1-3-0.1c-1.7,0-3.1,0.2-4.2,0.5c-3,0.8-5.3,1.3-6.9,1.5c-1.2,0.2-2.5,0.3-3.8,0.3c-0.9,0-1.9,0-2.9-0.1
			c-0.8,0-1.7-0.2-2.8-0.5l-0.6-0.1l-0.6-0.2c-0.5-0.1-1-0.2-1.3-0.3c-0.2,0-0.4,0.1-0.6,0.1l-0.3,0.1l-0.3,0.1
			c-0.3,0-0.6,0.1-0.8,0.2c-1,0.5-2.1,0.8-3.4,0.8c-0.7,0-1.4-0.1-2.1-0.3l-0.4,0l-0.4,0.1l-1,0.1l-1,0.1c-0.4-0.6-0.7-1-1-1.4
			c-0.1,0-0.2-0.1-0.3-0.1l-0.1-0.1l-0.1,0c-0.3-0.1-0.5-0.2-0.5-0.5L83.7,110.8z M134.8,100.5l-0.1-1.3c-0.1-1.1-0.2-2-0.3-2.7
			c-0.3,2.1-0.6,3.7-0.8,4.8c0.1,0,0.3,0.1,0.4,0.2l0.3,0.2c0.2,0.1,0.3,0.1,0.4,0.1c0.1,0,0.2,0,0.3-0.1L134.8,100.5z M133.6,106.1
			L133.6,106.1c-0.2,0-0.5,0.1-0.8,0.3c0.4,0.3,0.7,0.4,0.9,0.4l1,0C134.1,106.4,133.8,106.2,133.6,106.1z M127.5,84.7
			c-0.3,0.5-0.6,1-0.9,1.4c0-0.3,0.1-0.6,0.1-0.9l0-0.4C126.8,84.8,127.1,84.7,127.5,84.7z"/>
	</g>
</g>
</svg>
